<?xml version="1.0" encoding="utf-8" standalone="no"?>
<!DOCTYPE svg PUBLIC "-//W3C//DTD SVG 1.1//EN"
  "http://www.w3.org/Graphics/SVG/1.1/DTD/svg11.dtd">
<!-- Created with matplotlib (https://matplotlib.org/) -->
<svg height="360pt" version="1.1" viewBox="0 0 360 360" width="360pt" xmlns="http://www.w3.org/2000/svg" xmlns:xlink="http://www.w3.org/1999/xlink">
 <defs>
  <style type="text/css">
*{stroke-linecap:butt;stroke-linejoin:round;}
  </style>
 </defs>
 <g id="figure_1">
  <g id="patch_1">
   <path d="M 0 360 
L 360 360 
L 360 0 
L 0 0 
z
" style="fill:#ffffff;"/>
  </g>
  <g id="axes_1">
   <g id="patch_2">
    <path d="M 44.425 317.79375 
L 349.2 317.79375 
L 349.2 10.8 
L 44.425 10.8 
z
" style="fill:#ffffff;"/>
   </g>
   <g id="PathCollection_1">
    <defs>
     <path d="M 0 3 
C 0.795609 3 1.55874 2.683901 2.12132 2.12132 
C 2.683901 1.55874 3 0.795609 3 0 
C 3 -0.795609 2.683901 -1.55874 2.12132 -2.12132 
C 1.55874 -2.683901 0.795609 -3 0 -3 
C -0.795609 -3 -1.55874 -2.683901 -2.12132 -2.12132 
C -2.683901 -1.55874 -3 -0.795609 -3 0 
C -3 0.795609 -2.683901 1.55874 -2.12132 2.12132 
C -1.55874 2.683901 -0.795609 3 0 3 
z
" id="m52156ae5e7" style="stroke:#1f77b4;stroke-opacity:0.8;"/>
    </defs>
    <g clip-path="url(#p480c5642b9)">
     <use style="fill:#1f77b4;fill-opacity:0.8;stroke:#1f77b4;stroke-opacity:0.8;" x="180.469898" xlink:href="#m52156ae5e7" y="199.493689"/>
     <use style="fill:#1f77b4;fill-opacity:0.8;stroke:#1f77b4;stroke-opacity:0.8;" x="116.754403" xlink:href="#m52156ae5e7" y="245.593802"/>
     <use style="fill:#1f77b4;fill-opacity:0.8;stroke:#1f77b4;stroke-opacity:0.8;" x="170.667013" xlink:href="#m52156ae5e7" y="232.610761"/>
     <use style="fill:#1f77b4;fill-opacity:0.8;stroke:#1f77b4;stroke-opacity:0.8;" x="174.953395" xlink:href="#m52156ae5e7" y="154.387434"/>
     <use style="fill:#1f77b4;fill-opacity:0.8;stroke:#1f77b4;stroke-opacity:0.8;" x="263.579973" xlink:href="#m52156ae5e7" y="79.518657"/>
     <use style="fill:#1f77b4;fill-opacity:0.8;stroke:#1f77b4;stroke-opacity:0.8;" x="250.582905" xlink:href="#m52156ae5e7" y="116.688392"/>
     <use style="fill:#1f77b4;fill-opacity:0.8;stroke:#1f77b4;stroke-opacity:0.8;" x="194.629195" xlink:href="#m52156ae5e7" y="156.247976"/>
     <use style="fill:#1f77b4;fill-opacity:0.8;stroke:#1f77b4;stroke-opacity:0.8;" x="154.724669" xlink:href="#m52156ae5e7" y="233.743078"/>
     <use style="fill:#1f77b4;fill-opacity:0.8;stroke:#1f77b4;stroke-opacity:0.8;" x="158.77928" xlink:href="#m52156ae5e7" y="209.695062"/>
     <use style="fill:#1f77b4;fill-opacity:0.8;stroke:#1f77b4;stroke-opacity:0.8;" x="109.896649" xlink:href="#m52156ae5e7" y="252.642851"/>
     <use style="fill:#1f77b4;fill-opacity:0.8;stroke:#1f77b4;stroke-opacity:0.8;" x="112.662332" xlink:href="#m52156ae5e7" y="249.002667"/>
     <use style="fill:#1f77b4;fill-opacity:0.8;stroke:#1f77b4;stroke-opacity:0.8;" x="324.184496" xlink:href="#m52156ae5e7" y="51.559101"/>
     <use style="fill:#1f77b4;fill-opacity:0.8;stroke:#1f77b4;stroke-opacity:0.8;" x="115.835258" xlink:href="#m52156ae5e7" y="219.995356"/>
     <use style="fill:#1f77b4;fill-opacity:0.8;stroke:#1f77b4;stroke-opacity:0.8;" x="97.419743" xlink:href="#m52156ae5e7" y="256.688806"/>
     <use style="fill:#1f77b4;fill-opacity:0.8;stroke:#1f77b4;stroke-opacity:0.8;" x="117.012601" xlink:href="#m52156ae5e7" y="240.122744"/>
     <use style="fill:#1f77b4;fill-opacity:0.8;stroke:#1f77b4;stroke-opacity:0.8;" x="158.938979" xlink:href="#m52156ae5e7" y="193.314335"/>
     <use style="fill:#1f77b4;fill-opacity:0.8;stroke:#1f77b4;stroke-opacity:0.8;" x="254.074537" xlink:href="#m52156ae5e7" y="101.739088"/>
     <use style="fill:#1f77b4;fill-opacity:0.8;stroke:#1f77b4;stroke-opacity:0.8;" x="285.049387" xlink:href="#m52156ae5e7" y="109.030798"/>
     <use style="fill:#1f77b4;fill-opacity:0.8;stroke:#1f77b4;stroke-opacity:0.8;" x="135.527338" xlink:href="#m52156ae5e7" y="225.028489"/>
     <use style="fill:#1f77b4;fill-opacity:0.8;stroke:#1f77b4;stroke-opacity:0.8;" x="133.766047" xlink:href="#m52156ae5e7" y="209.348729"/>
     <use style="fill:#1f77b4;fill-opacity:0.8;stroke:#1f77b4;stroke-opacity:0.8;" x="288.835002" xlink:href="#m52156ae5e7" y="52.045122"/>
     <use style="fill:#1f77b4;fill-opacity:0.8;stroke:#1f77b4;stroke-opacity:0.8;" x="140.034646" xlink:href="#m52156ae5e7" y="244.375619"/>
     <use style="fill:#1f77b4;fill-opacity:0.8;stroke:#1f77b4;stroke-opacity:0.8;" x="97.73014" xlink:href="#m52156ae5e7" y="249.600006"/>
     <use style="fill:#1f77b4;fill-opacity:0.8;stroke:#1f77b4;stroke-opacity:0.8;" x="171.481608" xlink:href="#m52156ae5e7" y="215.27724"/>
     <use style="fill:#1f77b4;fill-opacity:0.8;stroke:#1f77b4;stroke-opacity:0.8;" x="85.078958" xlink:href="#m52156ae5e7" y="269.116866"/>
     <use style="fill:#1f77b4;fill-opacity:0.8;stroke:#1f77b4;stroke-opacity:0.8;" x="197.198564" xlink:href="#m52156ae5e7" y="139.336097"/>
     <use style="fill:#1f77b4;fill-opacity:0.8;stroke:#1f77b4;stroke-opacity:0.8;" x="101.056097" xlink:href="#m52156ae5e7" y="262.792718"/>
     <use style="fill:#1f77b4;fill-opacity:0.8;stroke:#1f77b4;stroke-opacity:0.8;" x="154.238238" xlink:href="#m52156ae5e7" y="193.949953"/>
     <use style="fill:#1f77b4;fill-opacity:0.8;stroke:#1f77b4;stroke-opacity:0.8;" x="273.646198" xlink:href="#m52156ae5e7" y="94.648544"/>
     <use style="fill:#1f77b4;fill-opacity:0.8;stroke:#1f77b4;stroke-opacity:0.8;" x="99.394923" xlink:href="#m52156ae5e7" y="262.061727"/>
     <use style="fill:#1f77b4;fill-opacity:0.8;stroke:#1f77b4;stroke-opacity:0.8;" x="242.367163" xlink:href="#m52156ae5e7" y="106.792905"/>
     <use style="fill:#1f77b4;fill-opacity:0.8;stroke:#1f77b4;stroke-opacity:0.8;" x="96.030491" xlink:href="#m52156ae5e7" y="261.538067"/>
     <use style="fill:#1f77b4;fill-opacity:0.8;stroke:#1f77b4;stroke-opacity:0.8;" x="124.83307" xlink:href="#m52156ae5e7" y="248.30567"/>
     <use style="fill:#1f77b4;fill-opacity:0.8;stroke:#1f77b4;stroke-opacity:0.8;" x="102.742614" xlink:href="#m52156ae5e7" y="255.563952"/>
     <use style="fill:#1f77b4;fill-opacity:0.8;stroke:#1f77b4;stroke-opacity:0.8;" x="235.470488" xlink:href="#m52156ae5e7" y="146.195221"/>
     <use style="fill:#1f77b4;fill-opacity:0.8;stroke:#1f77b4;stroke-opacity:0.8;" x="116.132287" xlink:href="#m52156ae5e7" y="219.012852"/>
     <use style="fill:#1f77b4;fill-opacity:0.8;stroke:#1f77b4;stroke-opacity:0.8;" x="195.547268" xlink:href="#m52156ae5e7" y="178.148726"/>
     <use style="fill:#1f77b4;fill-opacity:0.8;stroke:#1f77b4;stroke-opacity:0.8;" x="90.376866" xlink:href="#m52156ae5e7" y="249.866733"/>
     <use style="fill:#1f77b4;fill-opacity:0.8;stroke:#1f77b4;stroke-opacity:0.8;" x="150.341989" xlink:href="#m52156ae5e7" y="229.225837"/>
     <use style="fill:#1f77b4;fill-opacity:0.8;stroke:#1f77b4;stroke-opacity:0.8;" x="179.911238" xlink:href="#m52156ae5e7" y="198.503291"/>
     <use style="fill:#1f77b4;fill-opacity:0.8;stroke:#1f77b4;stroke-opacity:0.8;" x="111.54058" xlink:href="#m52156ae5e7" y="280.636431"/>
     <use style="fill:#1f77b4;fill-opacity:0.8;stroke:#1f77b4;stroke-opacity:0.8;" x="146.783306" xlink:href="#m52156ae5e7" y="237.740539"/>
     <use style="fill:#1f77b4;fill-opacity:0.8;stroke:#1f77b4;stroke-opacity:0.8;" x="209.320453" xlink:href="#m52156ae5e7" y="140.581055"/>
     <use style="fill:#1f77b4;fill-opacity:0.8;stroke:#1f77b4;stroke-opacity:0.8;" x="145.101932" xlink:href="#m52156ae5e7" y="195.122167"/>
     <use style="fill:#1f77b4;fill-opacity:0.8;stroke:#1f77b4;stroke-opacity:0.8;" x="136.044678" xlink:href="#m52156ae5e7" y="257.16652"/>
     <use style="fill:#1f77b4;fill-opacity:0.8;stroke:#1f77b4;stroke-opacity:0.8;" x="181.25253" xlink:href="#m52156ae5e7" y="142.293968"/>
     <use style="fill:#1f77b4;fill-opacity:0.8;stroke:#1f77b4;stroke-opacity:0.8;" x="61.189663" xlink:href="#m52156ae5e7" y="290.643573"/>
     <use style="fill:#1f77b4;fill-opacity:0.8;stroke:#1f77b4;stroke-opacity:0.8;" x="126.954107" xlink:href="#m52156ae5e7" y="201.995561"/>
     <use style="fill:#1f77b4;fill-opacity:0.8;stroke:#1f77b4;stroke-opacity:0.8;" x="115.339452" xlink:href="#m52156ae5e7" y="243.581999"/>
     <use style="fill:#1f77b4;fill-opacity:0.8;stroke:#1f77b4;stroke-opacity:0.8;" x="207.521642" xlink:href="#m52156ae5e7" y="115.873303"/>
     <use style="fill:#1f77b4;fill-opacity:0.8;stroke:#1f77b4;stroke-opacity:0.8;" x="196.253625" xlink:href="#m52156ae5e7" y="184.720917"/>
     <use style="fill:#1f77b4;fill-opacity:0.8;stroke:#1f77b4;stroke-opacity:0.8;" x="155.678398" xlink:href="#m52156ae5e7" y="195.141507"/>
     <use style="fill:#1f77b4;fill-opacity:0.8;stroke:#1f77b4;stroke-opacity:0.8;" x="191.171233" xlink:href="#m52156ae5e7" y="148.56401"/>
     <use style="fill:#1f77b4;fill-opacity:0.8;stroke:#1f77b4;stroke-opacity:0.8;" x="123.201489" xlink:href="#m52156ae5e7" y="242.909771"/>
     <use style="fill:#1f77b4;fill-opacity:0.8;stroke:#1f77b4;stroke-opacity:0.8;" x="188.44507" xlink:href="#m52156ae5e7" y="191.365175"/>
     <use style="fill:#1f77b4;fill-opacity:0.8;stroke:#1f77b4;stroke-opacity:0.8;" x="83.736505" xlink:href="#m52156ae5e7" y="266.649775"/>
     <use style="fill:#1f77b4;fill-opacity:0.8;stroke:#1f77b4;stroke-opacity:0.8;" x="148.389843" xlink:href="#m52156ae5e7" y="228.695105"/>
     <use style="fill:#1f77b4;fill-opacity:0.8;stroke:#1f77b4;stroke-opacity:0.8;" x="174.988449" xlink:href="#m52156ae5e7" y="190.100536"/>
     <use style="fill:#1f77b4;fill-opacity:0.8;stroke:#1f77b4;stroke-opacity:0.8;" x="120.970766" xlink:href="#m52156ae5e7" y="249.23139"/>
     <use style="fill:#1f77b4;fill-opacity:0.8;stroke:#1f77b4;stroke-opacity:0.8;" x="149.35264" xlink:href="#m52156ae5e7" y="224.254178"/>
     <use style="fill:#1f77b4;fill-opacity:0.8;stroke:#1f77b4;stroke-opacity:0.8;" x="106.28345" xlink:href="#m52156ae5e7" y="265.172148"/>
     <use style="fill:#1f77b4;fill-opacity:0.8;stroke:#1f77b4;stroke-opacity:0.8;" x="138.920909" xlink:href="#m52156ae5e7" y="238.479558"/>
     <use style="fill:#1f77b4;fill-opacity:0.8;stroke:#1f77b4;stroke-opacity:0.8;" x="189.47068" xlink:href="#m52156ae5e7" y="166.56133"/>
     <use style="fill:#1f77b4;fill-opacity:0.8;stroke:#1f77b4;stroke-opacity:0.8;" x="196.336994" xlink:href="#m52156ae5e7" y="135.984191"/>
     <use style="fill:#1f77b4;fill-opacity:0.8;stroke:#1f77b4;stroke-opacity:0.8;" x="131.66644" xlink:href="#m52156ae5e7" y="227.453788"/>
     <use style="fill:#1f77b4;fill-opacity:0.8;stroke:#1f77b4;stroke-opacity:0.8;" x="134.752122" xlink:href="#m52156ae5e7" y="239.730124"/>
     <use style="fill:#1f77b4;fill-opacity:0.8;stroke:#1f77b4;stroke-opacity:0.8;" x="99.335466" xlink:href="#m52156ae5e7" y="253.370736"/>
     <use style="fill:#1f77b4;fill-opacity:0.8;stroke:#1f77b4;stroke-opacity:0.8;" x="195.253219" xlink:href="#m52156ae5e7" y="154.686596"/>
     <use style="fill:#1f77b4;fill-opacity:0.8;stroke:#1f77b4;stroke-opacity:0.8;" x="108.16085" xlink:href="#m52156ae5e7" y="252.353091"/>
     <use style="fill:#1f77b4;fill-opacity:0.8;stroke:#1f77b4;stroke-opacity:0.8;" x="166.010027" xlink:href="#m52156ae5e7" y="245.110933"/>
     <use style="fill:#1f77b4;fill-opacity:0.8;stroke:#1f77b4;stroke-opacity:0.8;" x="170.534591" xlink:href="#m52156ae5e7" y="191.072487"/>
     <use style="fill:#1f77b4;fill-opacity:0.8;stroke:#1f77b4;stroke-opacity:0.8;" x="133.776936" xlink:href="#m52156ae5e7" y="224.264512"/>
     <use style="fill:#1f77b4;fill-opacity:0.8;stroke:#1f77b4;stroke-opacity:0.8;" x="227.448685" xlink:href="#m52156ae5e7" y="153.396644"/>
     <use style="fill:#1f77b4;fill-opacity:0.8;stroke:#1f77b4;stroke-opacity:0.8;" x="155.722197" xlink:href="#m52156ae5e7" y="194.015991"/>
     <use style="fill:#1f77b4;fill-opacity:0.8;stroke:#1f77b4;stroke-opacity:0.8;" x="276.872324" xlink:href="#m52156ae5e7" y="91.241958"/>
     <use style="fill:#1f77b4;fill-opacity:0.8;stroke:#1f77b4;stroke-opacity:0.8;" x="185.248915" xlink:href="#m52156ae5e7" y="181.190935"/>
     <use style="fill:#1f77b4;fill-opacity:0.8;stroke:#1f77b4;stroke-opacity:0.8;" x="178.43566" xlink:href="#m52156ae5e7" y="193.53808"/>
     <use style="fill:#1f77b4;fill-opacity:0.8;stroke:#1f77b4;stroke-opacity:0.8;" x="162.020529" xlink:href="#m52156ae5e7" y="198.301629"/>
     <use style="fill:#1f77b4;fill-opacity:0.8;stroke:#1f77b4;stroke-opacity:0.8;" x="121.591777" xlink:href="#m52156ae5e7" y="223.749545"/>
     <use style="fill:#1f77b4;fill-opacity:0.8;stroke:#1f77b4;stroke-opacity:0.8;" x="168.214724" xlink:href="#m52156ae5e7" y="177.495059"/>
     <use style="fill:#1f77b4;fill-opacity:0.8;stroke:#1f77b4;stroke-opacity:0.8;" x="199.379606" xlink:href="#m52156ae5e7" y="135.766967"/>
     <use style="fill:#1f77b4;fill-opacity:0.8;stroke:#1f77b4;stroke-opacity:0.8;" x="166.254336" xlink:href="#m52156ae5e7" y="188.95448"/>
     <use style="fill:#1f77b4;fill-opacity:0.8;stroke:#1f77b4;stroke-opacity:0.8;" x="134.987004" xlink:href="#m52156ae5e7" y="200.599458"/>
     <use style="fill:#1f77b4;fill-opacity:0.8;stroke:#1f77b4;stroke-opacity:0.8;" x="136.209261" xlink:href="#m52156ae5e7" y="252.112006"/>
     <use style="fill:#1f77b4;fill-opacity:0.8;stroke:#1f77b4;stroke-opacity:0.8;" x="192.676392" xlink:href="#m52156ae5e7" y="183.996192"/>
     <use style="fill:#1f77b4;fill-opacity:0.8;stroke:#1f77b4;stroke-opacity:0.8;" x="210.782121" xlink:href="#m52156ae5e7" y="156.659282"/>
     <use style="fill:#1f77b4;fill-opacity:0.8;stroke:#1f77b4;stroke-opacity:0.8;" x="199.724494" xlink:href="#m52156ae5e7" y="164.485998"/>
     <use style="fill:#1f77b4;fill-opacity:0.8;stroke:#1f77b4;stroke-opacity:0.8;" x="264.705703" xlink:href="#m52156ae5e7" y="113.072625"/>
     <use style="fill:#1f77b4;fill-opacity:0.8;stroke:#1f77b4;stroke-opacity:0.8;" x="207.121199" xlink:href="#m52156ae5e7" y="139.775515"/>
     <use style="fill:#1f77b4;fill-opacity:0.8;stroke:#1f77b4;stroke-opacity:0.8;" x="122.180774" xlink:href="#m52156ae5e7" y="247.521051"/>
     <use style="fill:#1f77b4;fill-opacity:0.8;stroke:#1f77b4;stroke-opacity:0.8;" x="174.231799" xlink:href="#m52156ae5e7" y="165.91072"/>
     <use style="fill:#1f77b4;fill-opacity:0.8;stroke:#1f77b4;stroke-opacity:0.8;" x="115.227419" xlink:href="#m52156ae5e7" y="255.595427"/>
     <use style="fill:#1f77b4;fill-opacity:0.8;stroke:#1f77b4;stroke-opacity:0.8;" x="133.929832" xlink:href="#m52156ae5e7" y="225.413863"/>
     <use style="fill:#1f77b4;fill-opacity:0.8;stroke:#1f77b4;stroke-opacity:0.8;" x="94.287886" xlink:href="#m52156ae5e7" y="262.509665"/>
     <use style="fill:#1f77b4;fill-opacity:0.8;stroke:#1f77b4;stroke-opacity:0.8;" x="300.508907" xlink:href="#m52156ae5e7" y="60.883429"/>
     <use style="fill:#1f77b4;fill-opacity:0.8;stroke:#1f77b4;stroke-opacity:0.8;" x="227.674287" xlink:href="#m52156ae5e7" y="135.645584"/>
     <use style="fill:#1f77b4;fill-opacity:0.8;stroke:#1f77b4;stroke-opacity:0.8;" x="238.530436" xlink:href="#m52156ae5e7" y="101.484633"/>
     <use style="fill:#1f77b4;fill-opacity:0.8;stroke:#1f77b4;stroke-opacity:0.8;" x="140.538417" xlink:href="#m52156ae5e7" y="230.860706"/>
     <use style="fill:#1f77b4;fill-opacity:0.8;stroke:#1f77b4;stroke-opacity:0.8;" x="230.788799" xlink:href="#m52156ae5e7" y="115.645308"/>
     <use style="fill:#1f77b4;fill-opacity:0.8;stroke:#1f77b4;stroke-opacity:0.8;" x="158.922132" xlink:href="#m52156ae5e7" y="201.739656"/>
     <use style="fill:#1f77b4;fill-opacity:0.8;stroke:#1f77b4;stroke-opacity:0.8;" x="140.107355" xlink:href="#m52156ae5e7" y="226.876511"/>
     <use style="fill:#1f77b4;fill-opacity:0.8;stroke:#1f77b4;stroke-opacity:0.8;" x="255.877499" xlink:href="#m52156ae5e7" y="116.047787"/>
     <use style="fill:#1f77b4;fill-opacity:0.8;stroke:#1f77b4;stroke-opacity:0.8;" x="233.050089" xlink:href="#m52156ae5e7" y="130.875598"/>
     <use style="fill:#1f77b4;fill-opacity:0.8;stroke:#1f77b4;stroke-opacity:0.8;" x="177.495096" xlink:href="#m52156ae5e7" y="199.109258"/>
     <use style="fill:#1f77b4;fill-opacity:0.8;stroke:#1f77b4;stroke-opacity:0.8;" x="134.373157" xlink:href="#m52156ae5e7" y="224.109403"/>
     <use style="fill:#1f77b4;fill-opacity:0.8;stroke:#1f77b4;stroke-opacity:0.8;" x="178.138142" xlink:href="#m52156ae5e7" y="177.187281"/>
     <use style="fill:#1f77b4;fill-opacity:0.8;stroke:#1f77b4;stroke-opacity:0.8;" x="152.527927" xlink:href="#m52156ae5e7" y="188.958844"/>
     <use style="fill:#1f77b4;fill-opacity:0.8;stroke:#1f77b4;stroke-opacity:0.8;" x="178.207084" xlink:href="#m52156ae5e7" y="175.080676"/>
     <use style="fill:#1f77b4;fill-opacity:0.8;stroke:#1f77b4;stroke-opacity:0.8;" x="215.091729" xlink:href="#m52156ae5e7" y="148.308275"/>
     <use style="fill:#1f77b4;fill-opacity:0.8;stroke:#1f77b4;stroke-opacity:0.8;" x="244.136465" xlink:href="#m52156ae5e7" y="105.10468"/>
     <use style="fill:#1f77b4;fill-opacity:0.8;stroke:#1f77b4;stroke-opacity:0.8;" x="194.578923" xlink:href="#m52156ae5e7" y="182.95235"/>
     <use style="fill:#1f77b4;fill-opacity:0.8;stroke:#1f77b4;stroke-opacity:0.8;" x="120.756595" xlink:href="#m52156ae5e7" y="255.890628"/>
     <use style="fill:#1f77b4;fill-opacity:0.8;stroke:#1f77b4;stroke-opacity:0.8;" x="115.086566" xlink:href="#m52156ae5e7" y="243.367131"/>
     <use style="fill:#1f77b4;fill-opacity:0.8;stroke:#1f77b4;stroke-opacity:0.8;" x="238.455084" xlink:href="#m52156ae5e7" y="122.137785"/>
     <use style="fill:#1f77b4;fill-opacity:0.8;stroke:#1f77b4;stroke-opacity:0.8;" x="99.063771" xlink:href="#m52156ae5e7" y="234.221169"/>
     <use style="fill:#1f77b4;fill-opacity:0.8;stroke:#1f77b4;stroke-opacity:0.8;" x="275.660334" xlink:href="#m52156ae5e7" y="32.234067"/>
     <use style="fill:#1f77b4;fill-opacity:0.8;stroke:#1f77b4;stroke-opacity:0.8;" x="96.240331" xlink:href="#m52156ae5e7" y="229.573975"/>
     <use style="fill:#1f77b4;fill-opacity:0.8;stroke:#1f77b4;stroke-opacity:0.8;" x="185.797047" xlink:href="#m52156ae5e7" y="180.731072"/>
     <use style="fill:#1f77b4;fill-opacity:0.8;stroke:#1f77b4;stroke-opacity:0.8;" x="78.670245" xlink:href="#m52156ae5e7" y="285.555914"/>
     <use style="fill:#1f77b4;fill-opacity:0.8;stroke:#1f77b4;stroke-opacity:0.8;" x="332.272564" xlink:href="#m52156ae5e7" y="91.277244"/>
     <use style="fill:#1f77b4;fill-opacity:0.8;stroke:#1f77b4;stroke-opacity:0.8;" x="151.915551" xlink:href="#m52156ae5e7" y="221.226675"/>
     <use style="fill:#1f77b4;fill-opacity:0.8;stroke:#1f77b4;stroke-opacity:0.8;" x="125.767921" xlink:href="#m52156ae5e7" y="226.073498"/>
     <use style="fill:#1f77b4;fill-opacity:0.8;stroke:#1f77b4;stroke-opacity:0.8;" x="165.426147" xlink:href="#m52156ae5e7" y="198.314066"/>
     <use style="fill:#1f77b4;fill-opacity:0.8;stroke:#1f77b4;stroke-opacity:0.8;" x="244.423475" xlink:href="#m52156ae5e7" y="127.092419"/>
     <use style="fill:#1f77b4;fill-opacity:0.8;stroke:#1f77b4;stroke-opacity:0.8;" x="153.885464" xlink:href="#m52156ae5e7" y="190.800169"/>
     <use style="fill:#1f77b4;fill-opacity:0.8;stroke:#1f77b4;stroke-opacity:0.8;" x="226.606326" xlink:href="#m52156ae5e7" y="133.956098"/>
     <use style="fill:#1f77b4;fill-opacity:0.8;stroke:#1f77b4;stroke-opacity:0.8;" x="125.225062" xlink:href="#m52156ae5e7" y="263.47074"/>
     <use style="fill:#1f77b4;fill-opacity:0.8;stroke:#1f77b4;stroke-opacity:0.8;" x="114.103598" xlink:href="#m52156ae5e7" y="247.269697"/>
     <use style="fill:#1f77b4;fill-opacity:0.8;stroke:#1f77b4;stroke-opacity:0.8;" x="89.082524" xlink:href="#m52156ae5e7" y="263.735664"/>
     <use style="fill:#1f77b4;fill-opacity:0.8;stroke:#1f77b4;stroke-opacity:0.8;" x="188.824742" xlink:href="#m52156ae5e7" y="180.440384"/>
     <use style="fill:#1f77b4;fill-opacity:0.8;stroke:#1f77b4;stroke-opacity:0.8;" x="223.978597" xlink:href="#m52156ae5e7" y="144.953145"/>
     <use style="fill:#1f77b4;fill-opacity:0.8;stroke:#1f77b4;stroke-opacity:0.8;" x="240.17003" xlink:href="#m52156ae5e7" y="115.040649"/>
     <use style="fill:#1f77b4;fill-opacity:0.8;stroke:#1f77b4;stroke-opacity:0.8;" x="131.050971" xlink:href="#m52156ae5e7" y="232.291848"/>
     <use style="fill:#1f77b4;fill-opacity:0.8;stroke:#1f77b4;stroke-opacity:0.8;" x="107.267549" xlink:href="#m52156ae5e7" y="245.190535"/>
     <use style="fill:#1f77b4;fill-opacity:0.8;stroke:#1f77b4;stroke-opacity:0.8;" x="77.573535" xlink:href="#m52156ae5e7" y="280.82673"/>
     <use style="fill:#1f77b4;fill-opacity:0.8;stroke:#1f77b4;stroke-opacity:0.8;" x="94.125309" xlink:href="#m52156ae5e7" y="281.304329"/>
     <use style="fill:#1f77b4;fill-opacity:0.8;stroke:#1f77b4;stroke-opacity:0.8;" x="115.375651" xlink:href="#m52156ae5e7" y="250.648026"/>
     <use style="fill:#1f77b4;fill-opacity:0.8;stroke:#1f77b4;stroke-opacity:0.8;" x="103.31577" xlink:href="#m52156ae5e7" y="218.899902"/>
     <use style="fill:#1f77b4;fill-opacity:0.8;stroke:#1f77b4;stroke-opacity:0.8;" x="157.423165" xlink:href="#m52156ae5e7" y="197.594547"/>
     <use style="fill:#1f77b4;fill-opacity:0.8;stroke:#1f77b4;stroke-opacity:0.8;" x="145.359968" xlink:href="#m52156ae5e7" y="226.603729"/>
     <use style="fill:#1f77b4;fill-opacity:0.8;stroke:#1f77b4;stroke-opacity:0.8;" x="101.682463" xlink:href="#m52156ae5e7" y="235.608377"/>
     <use style="fill:#1f77b4;fill-opacity:0.8;stroke:#1f77b4;stroke-opacity:0.8;" x="142.220561" xlink:href="#m52156ae5e7" y="239.954263"/>
     <use style="fill:#1f77b4;fill-opacity:0.8;stroke:#1f77b4;stroke-opacity:0.8;" x="108.614095" xlink:href="#m52156ae5e7" y="249.587952"/>
     <use style="fill:#1f77b4;fill-opacity:0.8;stroke:#1f77b4;stroke-opacity:0.8;" x="131.485254" xlink:href="#m52156ae5e7" y="216.613479"/>
     <use style="fill:#1f77b4;fill-opacity:0.8;stroke:#1f77b4;stroke-opacity:0.8;" x="135.149009" xlink:href="#m52156ae5e7" y="249.975701"/>
     <use style="fill:#1f77b4;fill-opacity:0.8;stroke:#1f77b4;stroke-opacity:0.8;" x="99.712534" xlink:href="#m52156ae5e7" y="269.586136"/>
     <use style="fill:#1f77b4;fill-opacity:0.8;stroke:#1f77b4;stroke-opacity:0.8;" x="147.86741" xlink:href="#m52156ae5e7" y="179.317831"/>
     <use style="fill:#1f77b4;fill-opacity:0.8;stroke:#1f77b4;stroke-opacity:0.8;" x="83.930464" xlink:href="#m52156ae5e7" y="283.511407"/>
     <use style="fill:#1f77b4;fill-opacity:0.8;stroke:#1f77b4;stroke-opacity:0.8;" x="193.301919" xlink:href="#m52156ae5e7" y="158.655078"/>
     <use style="fill:#1f77b4;fill-opacity:0.8;stroke:#1f77b4;stroke-opacity:0.8;" x="246.46042" xlink:href="#m52156ae5e7" y="162.148394"/>
     <use style="fill:#1f77b4;fill-opacity:0.8;stroke:#1f77b4;stroke-opacity:0.8;" x="236.978635" xlink:href="#m52156ae5e7" y="140.032765"/>
     <use style="fill:#1f77b4;fill-opacity:0.8;stroke:#1f77b4;stroke-opacity:0.8;" x="253.847194" xlink:href="#m52156ae5e7" y="89.45373"/>
     <use style="fill:#1f77b4;fill-opacity:0.8;stroke:#1f77b4;stroke-opacity:0.8;" x="81.149888" xlink:href="#m52156ae5e7" y="288.638767"/>
     <use style="fill:#1f77b4;fill-opacity:0.8;stroke:#1f77b4;stroke-opacity:0.8;" x="117.895465" xlink:href="#m52156ae5e7" y="250.274073"/>
     <use style="fill:#1f77b4;fill-opacity:0.8;stroke:#1f77b4;stroke-opacity:0.8;" x="190.073974" xlink:href="#m52156ae5e7" y="168.974873"/>
     <use style="fill:#1f77b4;fill-opacity:0.8;stroke:#1f77b4;stroke-opacity:0.8;" x="114.238833" xlink:href="#m52156ae5e7" y="246.125039"/>
     <use style="fill:#1f77b4;fill-opacity:0.8;stroke:#1f77b4;stroke-opacity:0.8;" x="191.308503" xlink:href="#m52156ae5e7" y="183.487362"/>
     <use style="fill:#1f77b4;fill-opacity:0.8;stroke:#1f77b4;stroke-opacity:0.8;" x="120.953907" xlink:href="#m52156ae5e7" y="235.393823"/>
     <use style="fill:#1f77b4;fill-opacity:0.8;stroke:#1f77b4;stroke-opacity:0.8;" x="100.102201" xlink:href="#m52156ae5e7" y="268.164159"/>
     <use style="fill:#1f77b4;fill-opacity:0.8;stroke:#1f77b4;stroke-opacity:0.8;" x="117.568189" xlink:href="#m52156ae5e7" y="246.979937"/>
     <use style="fill:#1f77b4;fill-opacity:0.8;stroke:#1f77b4;stroke-opacity:0.8;" x="285.572804" xlink:href="#m52156ae5e7" y="77.559796"/>
     <use style="fill:#1f77b4;fill-opacity:0.8;stroke:#1f77b4;stroke-opacity:0.8;" x="151.387185" xlink:href="#m52156ae5e7" y="180.418396"/>
     <use style="fill:#1f77b4;fill-opacity:0.8;stroke:#1f77b4;stroke-opacity:0.8;" x="219.651005" xlink:href="#m52156ae5e7" y="163.994028"/>
     <use style="fill:#1f77b4;fill-opacity:0.8;stroke:#1f77b4;stroke-opacity:0.8;" x="168.304314" xlink:href="#m52156ae5e7" y="184.456601"/>
     <use style="fill:#1f77b4;fill-opacity:0.8;stroke:#1f77b4;stroke-opacity:0.8;" x="269.651745" xlink:href="#m52156ae5e7" y="76.595762"/>
     <use style="fill:#1f77b4;fill-opacity:0.8;stroke:#1f77b4;stroke-opacity:0.8;" x="332.435337" xlink:href="#m52156ae5e7" y="56.754238"/>
     <use style="fill:#1f77b4;fill-opacity:0.8;stroke:#1f77b4;stroke-opacity:0.8;" x="155.829733" xlink:href="#m52156ae5e7" y="242.694697"/>
     <use style="fill:#1f77b4;fill-opacity:0.8;stroke:#1f77b4;stroke-opacity:0.8;" x="164.63607" xlink:href="#m52156ae5e7" y="155.470618"/>
     <use style="fill:#1f77b4;fill-opacity:0.8;stroke:#1f77b4;stroke-opacity:0.8;" x="196.333888" xlink:href="#m52156ae5e7" y="174.900124"/>
     <use style="fill:#1f77b4;fill-opacity:0.8;stroke:#1f77b4;stroke-opacity:0.8;" x="206.955604" xlink:href="#m52156ae5e7" y="189.819179"/>
     <use style="fill:#1f77b4;fill-opacity:0.8;stroke:#1f77b4;stroke-opacity:0.8;" x="274.357357" xlink:href="#m52156ae5e7" y="52.587196"/>
     <use style="fill:#1f77b4;fill-opacity:0.8;stroke:#1f77b4;stroke-opacity:0.8;" x="185.400722" xlink:href="#m52156ae5e7" y="180.021668"/>
     <use style="fill:#1f77b4;fill-opacity:0.8;stroke:#1f77b4;stroke-opacity:0.8;" x="143.75847" xlink:href="#m52156ae5e7" y="226.296054"/>
     <use style="fill:#1f77b4;fill-opacity:0.8;stroke:#1f77b4;stroke-opacity:0.8;" x="200.662756" xlink:href="#m52156ae5e7" y="166.258641"/>
     <use style="fill:#1f77b4;fill-opacity:0.8;stroke:#1f77b4;stroke-opacity:0.8;" x="201.665632" xlink:href="#m52156ae5e7" y="168.397339"/>
     <use style="fill:#1f77b4;fill-opacity:0.8;stroke:#1f77b4;stroke-opacity:0.8;" x="98.663692" xlink:href="#m52156ae5e7" y="252.750933"/>
     <use style="fill:#1f77b4;fill-opacity:0.8;stroke:#1f77b4;stroke-opacity:0.8;" x="195.241188" xlink:href="#m52156ae5e7" y="204.642775"/>
     <use style="fill:#1f77b4;fill-opacity:0.8;stroke:#1f77b4;stroke-opacity:0.8;" x="224.043837" xlink:href="#m52156ae5e7" y="140.34169"/>
     <use style="fill:#1f77b4;fill-opacity:0.8;stroke:#1f77b4;stroke-opacity:0.8;" x="125.68771" xlink:href="#m52156ae5e7" y="232.316471"/>
    </g>
   </g>
   <g id="PolyCollection_1">
    <path clip-path="url(#p480c5642b9)" d="M 61.189663 290.833191 
L 61.189663 302.086605 
L 63.929519 299.329226 
L 66.669374 296.55092 
L 69.409229 293.772486 
L 72.149085 290.994052 
L 74.88894 288.215618 
L 77.628795 285.481472 
L 80.36865 282.763972 
L 83.108506 279.946351 
L 85.848361 277.238881 
L 88.588216 274.513443 
L 91.328072 271.752607 
L 94.067927 268.990357 
L 96.807782 266.21407 
L 99.547637 263.454757 
L 102.287493 260.71657 
L 105.027348 257.960351 
L 107.767203 255.212834 
L 110.507059 252.465072 
L 113.246914 249.707219 
L 115.986769 246.947704 
L 118.726624 244.180804 
L 121.46648 241.425239 
L 124.206335 238.710205 
L 126.94619 235.980718 
L 129.686046 233.322943 
L 132.425901 230.670132 
L 135.165756 227.992753 
L 137.905611 225.333503 
L 140.645467 222.662919 
L 143.385322 219.981179 
L 146.125177 217.278612 
L 148.865033 214.626653 
L 151.604888 211.992876 
L 154.344743 209.3309 
L 157.084598 206.708982 
L 159.824454 204.105571 
L 162.564309 201.462894 
L 165.304164 198.913688 
L 168.04402 196.272886 
L 170.783875 193.831855 
L 173.52373 191.169979 
L 176.263585 188.595311 
L 179.003441 186.070464 
L 181.743296 183.552964 
L 184.483151 181.033478 
L 187.223007 178.490276 
L 189.962862 175.971373 
L 192.702717 173.432615 
L 195.442572 170.869695 
L 198.182428 168.368675 
L 200.922283 165.830877 
L 203.662138 163.367799 
L 206.401993 160.867885 
L 209.141849 158.367 
L 211.881704 155.86474 
L 214.621559 153.347635 
L 217.361415 150.830147 
L 220.10127 148.314331 
L 222.841125 145.796742 
L 225.58098 143.273665 
L 228.320836 140.750864 
L 231.060691 138.245121 
L 233.800546 135.728068 
L 236.540402 133.211553 
L 239.280257 130.702681 
L 242.020112 128.210381 
L 244.759967 125.717965 
L 247.499823 123.234382 
L 250.239678 120.74128 
L 252.979533 118.234496 
L 255.719389 115.762362 
L 258.459244 113.282193 
L 261.199099 110.794182 
L 263.938954 108.25167 
L 266.67881 105.701467 
L 269.418665 103.200474 
L 272.15852 100.69948 
L 274.898376 98.198487 
L 277.638231 95.677995 
L 280.378086 93.15012 
L 283.117941 90.642788 
L 285.857797 88.137035 
L 288.597652 85.631281 
L 291.337507 83.125527 
L 294.077363 80.621672 
L 296.817218 78.115233 
L 299.557073 75.61063 
L 302.296928 73.132254 
L 305.036784 70.656403 
L 307.776639 68.180552 
L 310.516494 65.686578 
L 313.25635 63.143044 
L 315.996205 60.603173 
L 318.73606 58.109445 
L 321.475915 55.615716 
L 324.215771 53.15268 
L 326.955626 50.693242 
L 329.695481 48.194379 
L 332.435337 45.695517 
L 332.435337 25.879606 
L 332.435337 25.879606 
L 329.695481 28.644944 
L 326.955626 31.400287 
L 324.215771 34.155674 
L 321.475915 36.911328 
L 318.73606 39.667276 
L 315.996205 42.459199 
L 313.25635 45.262623 
L 310.516494 48.00595 
L 307.776639 50.749276 
L 305.036784 53.492651 
L 302.296928 56.236407 
L 299.557073 59.021126 
L 296.817218 61.822411 
L 294.077363 64.624371 
L 291.337507 67.425916 
L 288.597652 70.177162 
L 285.857797 72.92829 
L 283.117941 75.678137 
L 280.378086 78.427984 
L 277.638231 81.177831 
L 274.898376 83.927677 
L 272.15852 86.700018 
L 269.418665 89.433725 
L 266.67881 92.177434 
L 263.938954 94.927064 
L 261.199099 97.677183 
L 258.459244 100.427465 
L 255.719389 103.190672 
L 252.979533 105.97245 
L 250.239678 108.812961 
L 247.499823 111.562625 
L 244.759967 114.31229 
L 242.020112 117.061955 
L 239.280257 119.795943 
L 236.540402 122.561285 
L 233.800546 125.310949 
L 231.060691 128.062885 
L 228.320836 130.857936 
L 225.58098 133.625977 
L 222.841125 136.360055 
L 220.10127 139.116546 
L 217.361415 141.844827 
L 214.621559 144.560095 
L 211.881704 147.305411 
L 209.141849 150.026796 
L 206.401993 152.759164 
L 203.662138 155.493041 
L 200.922283 158.278957 
L 198.182428 161.051615 
L 195.442572 163.800846 
L 192.702717 166.548843 
L 189.962862 169.298893 
L 187.223007 171.98819 
L 184.483151 174.684824 
L 181.743296 177.423393 
L 179.003441 180.115278 
L 176.263585 182.817731 
L 173.52373 185.518832 
L 170.783875 188.177049 
L 168.04402 190.861096 
L 165.304164 193.527907 
L 162.564309 196.226572 
L 159.824454 198.872464 
L 157.084598 201.586856 
L 154.344743 204.238744 
L 151.604888 206.878873 
L 148.865033 209.525397 
L 146.125177 212.15682 
L 143.385322 214.739584 
L 140.645467 217.280823 
L 137.905611 219.901861 
L 135.165756 222.529349 
L 132.425901 225.154979 
L 129.686046 227.729729 
L 126.94619 230.302259 
L 124.206335 232.836844 
L 121.46648 235.36538 
L 118.726624 237.98079 
L 115.986769 240.479731 
L 113.246914 242.977329 
L 110.507059 245.481919 
L 107.767203 248.008285 
L 105.027348 250.555732 
L 102.287493 253.10073 
L 99.547637 255.631301 
L 96.807782 258.120297 
L 94.067927 260.645354 
L 91.328072 263.240855 
L 88.588216 265.682511 
L 85.848361 268.19218 
L 83.108506 270.768555 
L 80.36865 273.34657 
L 77.628795 275.888103 
L 74.88894 278.466138 
L 72.149085 280.955429 
L 69.409229 283.422254 
L 66.669374 285.887114 
L 63.929519 288.354027 
L 61.189663 290.833191 
z
" style="fill:#1f77b4;fill-opacity:0.15;"/>
   </g>
   <g id="matplotlib.axis_1">
    <g id="xtick_1">
     <g id="line2d_1">
      <defs>
       <path d="M 0 0 
L 0 3.5 
" id="mca3e011ebe" style="stroke:#000000;stroke-width:0.8;"/>
      </defs>
      <g>
       <use style="stroke:#000000;stroke-width:0.8;" x="44.490032" xlink:href="#mca3e011ebe" y="317.79375"/>
      </g>
     </g>
     <g id="text_1">
      <!-- 10 -->
      <defs>
       <path d="M 12.40625 8.296875 
L 28.515625 8.296875 
L 28.515625 63.921875 
L 10.984375 60.40625 
L 10.984375 69.390625 
L 28.421875 72.90625 
L 38.28125 72.90625 
L 38.28125 8.296875 
L 54.390625 8.296875 
L 54.390625 0 
L 12.40625 0 
z
" id="DejaVuSans-49"/>
       <path d="M 31.78125 66.40625 
Q 24.171875 66.40625 20.328125 58.90625 
Q 16.5 51.421875 16.5 36.375 
Q 16.5 21.390625 20.328125 13.890625 
Q 24.171875 6.390625 31.78125 6.390625 
Q 39.453125 6.390625 43.28125 13.890625 
Q 47.125 21.390625 47.125 36.375 
Q 47.125 51.421875 43.28125 58.90625 
Q 39.453125 66.40625 31.78125 66.40625 
z
M 31.78125 74.21875 
Q 44.046875 74.21875 50.515625 64.515625 
Q 56.984375 54.828125 56.984375 36.375 
Q 56.984375 17.96875 50.515625 8.265625 
Q 44.046875 -1.421875 31.78125 -1.421875 
Q 19.53125 -1.421875 13.0625 8.265625 
Q 6.59375 17.96875 6.59375 36.375 
Q 6.59375 54.828125 13.0625 64.515625 
Q 19.53125 74.21875 31.78125 74.21875 
z
" id="DejaVuSans-48"/>
      </defs>
      <g transform="translate(38.127532 332.392188)scale(0.1 -0.1)">
       <use xlink:href="#DejaVuSans-49"/>
       <use x="63.623047" xlink:href="#DejaVuSans-48"/>
      </g>
     </g>
    </g>
    <g id="xtick_2">
     <g id="line2d_2">
      <g>
       <use style="stroke:#000000;stroke-width:0.8;" x="99.593943" xlink:href="#mca3e011ebe" y="317.79375"/>
      </g>
     </g>
     <g id="text_2">
      <!-- 20 -->
      <defs>
       <path d="M 19.1875 8.296875 
L 53.609375 8.296875 
L 53.609375 0 
L 7.328125 0 
L 7.328125 8.296875 
Q 12.9375 14.109375 22.625 23.890625 
Q 32.328125 33.6875 34.8125 36.53125 
Q 39.546875 41.84375 41.421875 45.53125 
Q 43.3125 49.21875 43.3125 52.78125 
Q 43.3125 58.59375 39.234375 62.25 
Q 35.15625 65.921875 28.609375 65.921875 
Q 23.96875 65.921875 18.8125 64.3125 
Q 13.671875 62.703125 7.8125 59.421875 
L 7.8125 69.390625 
Q 13.765625 71.78125 18.9375 73 
Q 24.125 74.21875 28.421875 74.21875 
Q 39.75 74.21875 46.484375 68.546875 
Q 53.21875 62.890625 53.21875 53.421875 
Q 53.21875 48.921875 51.53125 44.890625 
Q 49.859375 40.875 45.40625 35.40625 
Q 44.1875 33.984375 37.640625 27.21875 
Q 31.109375 20.453125 19.1875 8.296875 
z
" id="DejaVuSans-50"/>
      </defs>
      <g transform="translate(93.231443 332.392188)scale(0.1 -0.1)">
       <use xlink:href="#DejaVuSans-50"/>
       <use x="63.623047" xlink:href="#DejaVuSans-48"/>
      </g>
     </g>
    </g>
    <g id="xtick_3">
     <g id="line2d_3">
      <g>
       <use style="stroke:#000000;stroke-width:0.8;" x="154.697853" xlink:href="#mca3e011ebe" y="317.79375"/>
      </g>
     </g>
     <g id="text_3">
      <!-- 30 -->
      <defs>
       <path d="M 40.578125 39.3125 
Q 47.65625 37.796875 51.625 33 
Q 55.609375 28.21875 55.609375 21.1875 
Q 55.609375 10.40625 48.1875 4.484375 
Q 40.765625 -1.421875 27.09375 -1.421875 
Q 22.515625 -1.421875 17.65625 -0.515625 
Q 12.796875 0.390625 7.625 2.203125 
L 7.625 11.71875 
Q 11.71875 9.328125 16.59375 8.109375 
Q 21.484375 6.890625 26.8125 6.890625 
Q 36.078125 6.890625 40.9375 10.546875 
Q 45.796875 14.203125 45.796875 21.1875 
Q 45.796875 27.640625 41.28125 31.265625 
Q 36.765625 34.90625 28.71875 34.90625 
L 20.21875 34.90625 
L 20.21875 43.015625 
L 29.109375 43.015625 
Q 36.375 43.015625 40.234375 45.921875 
Q 44.09375 48.828125 44.09375 54.296875 
Q 44.09375 59.90625 40.109375 62.90625 
Q 36.140625 65.921875 28.71875 65.921875 
Q 24.65625 65.921875 20.015625 65.03125 
Q 15.375 64.15625 9.8125 62.3125 
L 9.8125 71.09375 
Q 15.4375 72.65625 20.34375 73.4375 
Q 25.25 74.21875 29.59375 74.21875 
Q 40.828125 74.21875 47.359375 69.109375 
Q 53.90625 64.015625 53.90625 55.328125 
Q 53.90625 49.265625 50.4375 45.09375 
Q 46.96875 40.921875 40.578125 39.3125 
z
" id="DejaVuSans-51"/>
      </defs>
      <g transform="translate(148.335353 332.392188)scale(0.1 -0.1)">
       <use xlink:href="#DejaVuSans-51"/>
       <use x="63.623047" xlink:href="#DejaVuSans-48"/>
      </g>
     </g>
    </g>
    <g id="xtick_4">
     <g id="line2d_4">
      <g>
       <use style="stroke:#000000;stroke-width:0.8;" x="209.801764" xlink:href="#mca3e011ebe" y="317.79375"/>
      </g>
     </g>
     <g id="text_4">
      <!-- 40 -->
      <defs>
       <path d="M 37.796875 64.3125 
L 12.890625 25.390625 
L 37.796875 25.390625 
z
M 35.203125 72.90625 
L 47.609375 72.90625 
L 47.609375 25.390625 
L 58.015625 25.390625 
L 58.015625 17.1875 
L 47.609375 17.1875 
L 47.609375 0 
L 37.796875 0 
L 37.796875 17.1875 
L 4.890625 17.1875 
L 4.890625 26.703125 
z
" id="DejaVuSans-52"/>
      </defs>
      <g transform="translate(203.439264 332.392188)scale(0.1 -0.1)">
       <use xlink:href="#DejaVuSans-52"/>
       <use x="63.623047" xlink:href="#DejaVuSans-48"/>
      </g>
     </g>
    </g>
    <g id="xtick_5">
     <g id="line2d_5">
      <g>
       <use style="stroke:#000000;stroke-width:0.8;" x="264.905675" xlink:href="#mca3e011ebe" y="317.79375"/>
      </g>
     </g>
     <g id="text_5">
      <!-- 50 -->
      <defs>
       <path d="M 10.796875 72.90625 
L 49.515625 72.90625 
L 49.515625 64.59375 
L 19.828125 64.59375 
L 19.828125 46.734375 
Q 21.96875 47.46875 24.109375 47.828125 
Q 26.265625 48.1875 28.421875 48.1875 
Q 40.625 48.1875 47.75 41.5 
Q 54.890625 34.8125 54.890625 23.390625 
Q 54.890625 11.625 47.5625 5.09375 
Q 40.234375 -1.421875 26.90625 -1.421875 
Q 22.3125 -1.421875 17.546875 -0.640625 
Q 12.796875 0.140625 7.71875 1.703125 
L 7.71875 11.625 
Q 12.109375 9.234375 16.796875 8.0625 
Q 21.484375 6.890625 26.703125 6.890625 
Q 35.15625 6.890625 40.078125 11.328125 
Q 45.015625 15.765625 45.015625 23.390625 
Q 45.015625 31 40.078125 35.4375 
Q 35.15625 39.890625 26.703125 39.890625 
Q 22.75 39.890625 18.8125 39.015625 
Q 14.890625 38.140625 10.796875 36.28125 
z
" id="DejaVuSans-53"/>
      </defs>
      <g transform="translate(258.543175 332.392188)scale(0.1 -0.1)">
       <use xlink:href="#DejaVuSans-53"/>
       <use x="63.623047" xlink:href="#DejaVuSans-48"/>
      </g>
     </g>
    </g>
    <g id="xtick_6">
     <g id="line2d_6">
      <g>
       <use style="stroke:#000000;stroke-width:0.8;" x="320.009586" xlink:href="#mca3e011ebe" y="317.79375"/>
      </g>
     </g>
     <g id="text_6">
      <!-- 60 -->
      <defs>
       <path d="M 33.015625 40.375 
Q 26.375 40.375 22.484375 35.828125 
Q 18.609375 31.296875 18.609375 23.390625 
Q 18.609375 15.53125 22.484375 10.953125 
Q 26.375 6.390625 33.015625 6.390625 
Q 39.65625 6.390625 43.53125 10.953125 
Q 47.40625 15.53125 47.40625 23.390625 
Q 47.40625 31.296875 43.53125 35.828125 
Q 39.65625 40.375 33.015625 40.375 
z
M 52.59375 71.296875 
L 52.59375 62.3125 
Q 48.875 64.0625 45.09375 64.984375 
Q 41.3125 65.921875 37.59375 65.921875 
Q 27.828125 65.921875 22.671875 59.328125 
Q 17.53125 52.734375 16.796875 39.40625 
Q 19.671875 43.65625 24.015625 45.921875 
Q 28.375 48.1875 33.59375 48.1875 
Q 44.578125 48.1875 50.953125 41.515625 
Q 57.328125 34.859375 57.328125 23.390625 
Q 57.328125 12.15625 50.6875 5.359375 
Q 44.046875 -1.421875 33.015625 -1.421875 
Q 20.359375 -1.421875 13.671875 8.265625 
Q 6.984375 17.96875 6.984375 36.375 
Q 6.984375 53.65625 15.1875 63.9375 
Q 23.390625 74.21875 37.203125 74.21875 
Q 40.921875 74.21875 44.703125 73.484375 
Q 48.484375 72.75 52.59375 71.296875 
z
" id="DejaVuSans-54"/>
      </defs>
      <g transform="translate(313.647086 332.392188)scale(0.1 -0.1)">
       <use xlink:href="#DejaVuSans-54"/>
       <use x="63.623047" xlink:href="#DejaVuSans-48"/>
      </g>
     </g>
    </g>
    <g id="text_7">
     <!-- True Mean Velocity (degrees/s) -->
     <defs>
      <path d="M -0.296875 72.90625 
L 61.375 72.90625 
L 61.375 64.59375 
L 35.5 64.59375 
L 35.5 0 
L 25.59375 0 
L 25.59375 64.59375 
L -0.296875 64.59375 
z
" id="DejaVuSans-84"/>
      <path d="M 41.109375 46.296875 
Q 39.59375 47.171875 37.8125 47.578125 
Q 36.03125 48 33.890625 48 
Q 26.265625 48 22.1875 43.046875 
Q 18.109375 38.09375 18.109375 28.8125 
L 18.109375 0 
L 9.078125 0 
L 9.078125 54.6875 
L 18.109375 54.6875 
L 18.109375 46.1875 
Q 20.953125 51.171875 25.484375 53.578125 
Q 30.03125 56 36.53125 56 
Q 37.453125 56 38.578125 55.875 
Q 39.703125 55.765625 41.0625 55.515625 
z
" id="DejaVuSans-114"/>
      <path d="M 8.5 21.578125 
L 8.5 54.6875 
L 17.484375 54.6875 
L 17.484375 21.921875 
Q 17.484375 14.15625 20.5 10.265625 
Q 23.53125 6.390625 29.59375 6.390625 
Q 36.859375 6.390625 41.078125 11.03125 
Q 45.3125 15.671875 45.3125 23.6875 
L 45.3125 54.6875 
L 54.296875 54.6875 
L 54.296875 0 
L 45.3125 0 
L 45.3125 8.40625 
Q 42.046875 3.421875 37.71875 1 
Q 33.40625 -1.421875 27.6875 -1.421875 
Q 18.265625 -1.421875 13.375 4.4375 
Q 8.5 10.296875 8.5 21.578125 
z
M 31.109375 56 
z
" id="DejaVuSans-117"/>
      <path d="M 56.203125 29.59375 
L 56.203125 25.203125 
L 14.890625 25.203125 
Q 15.484375 15.921875 20.484375 11.0625 
Q 25.484375 6.203125 34.421875 6.203125 
Q 39.59375 6.203125 44.453125 7.46875 
Q 49.3125 8.734375 54.109375 11.28125 
L 54.109375 2.78125 
Q 49.265625 0.734375 44.1875 -0.34375 
Q 39.109375 -1.421875 33.890625 -1.421875 
Q 20.796875 -1.421875 13.15625 6.1875 
Q 5.515625 13.8125 5.515625 26.8125 
Q 5.515625 40.234375 12.765625 48.109375 
Q 20.015625 56 32.328125 56 
Q 43.359375 56 49.78125 48.890625 
Q 56.203125 41.796875 56.203125 29.59375 
z
M 47.21875 32.234375 
Q 47.125 39.59375 43.09375 43.984375 
Q 39.0625 48.390625 32.421875 48.390625 
Q 24.90625 48.390625 20.390625 44.140625 
Q 15.875 39.890625 15.1875 32.171875 
z
" id="DejaVuSans-101"/>
      <path id="DejaVuSans-32"/>
      <path d="M 9.8125 72.90625 
L 24.515625 72.90625 
L 43.109375 23.296875 
L 61.8125 72.90625 
L 76.515625 72.90625 
L 76.515625 0 
L 66.890625 0 
L 66.890625 64.015625 
L 48.09375 14.015625 
L 38.1875 14.015625 
L 19.390625 64.015625 
L 19.390625 0 
L 9.8125 0 
z
" id="DejaVuSans-77"/>
      <path d="M 34.28125 27.484375 
Q 23.390625 27.484375 19.1875 25 
Q 14.984375 22.515625 14.984375 16.5 
Q 14.984375 11.71875 18.140625 8.90625 
Q 21.296875 6.109375 26.703125 6.109375 
Q 34.1875 6.109375 38.703125 11.40625 
Q 43.21875 16.703125 43.21875 25.484375 
L 43.21875 27.484375 
z
M 52.203125 31.203125 
L 52.203125 0 
L 43.21875 0 
L 43.21875 8.296875 
Q 40.140625 3.328125 35.546875 0.953125 
Q 30.953125 -1.421875 24.3125 -1.421875 
Q 15.921875 -1.421875 10.953125 3.296875 
Q 6 8.015625 6 15.921875 
Q 6 25.140625 12.171875 29.828125 
Q 18.359375 34.515625 30.609375 34.515625 
L 43.21875 34.515625 
L 43.21875 35.40625 
Q 43.21875 41.609375 39.140625 45 
Q 35.0625 48.390625 27.6875 48.390625 
Q 23 48.390625 18.546875 47.265625 
Q 14.109375 46.140625 10.015625 43.890625 
L 10.015625 52.203125 
Q 14.9375 54.109375 19.578125 55.046875 
Q 24.21875 56 28.609375 56 
Q 40.484375 56 46.34375 49.84375 
Q 52.203125 43.703125 52.203125 31.203125 
z
" id="DejaVuSans-97"/>
      <path d="M 54.890625 33.015625 
L 54.890625 0 
L 45.90625 0 
L 45.90625 32.71875 
Q 45.90625 40.484375 42.875 44.328125 
Q 39.84375 48.1875 33.796875 48.1875 
Q 26.515625 48.1875 22.3125 43.546875 
Q 18.109375 38.921875 18.109375 30.90625 
L 18.109375 0 
L 9.078125 0 
L 9.078125 54.6875 
L 18.109375 54.6875 
L 18.109375 46.1875 
Q 21.34375 51.125 25.703125 53.5625 
Q 30.078125 56 35.796875 56 
Q 45.21875 56 50.046875 50.171875 
Q 54.890625 44.34375 54.890625 33.015625 
z
" id="DejaVuSans-110"/>
      <path d="M 28.609375 0 
L 0.78125 72.90625 
L 11.078125 72.90625 
L 34.1875 11.53125 
L 57.328125 72.90625 
L 67.578125 72.90625 
L 39.796875 0 
z
" id="DejaVuSans-86"/>
      <path d="M 9.421875 75.984375 
L 18.40625 75.984375 
L 18.40625 0 
L 9.421875 0 
z
" id="DejaVuSans-108"/>
      <path d="M 30.609375 48.390625 
Q 23.390625 48.390625 19.1875 42.75 
Q 14.984375 37.109375 14.984375 27.296875 
Q 14.984375 17.484375 19.15625 11.84375 
Q 23.34375 6.203125 30.609375 6.203125 
Q 37.796875 6.203125 41.984375 11.859375 
Q 46.1875 17.53125 46.1875 27.296875 
Q 46.1875 37.015625 41.984375 42.703125 
Q 37.796875 48.390625 30.609375 48.390625 
z
M 30.609375 56 
Q 42.328125 56 49.015625 48.375 
Q 55.71875 40.765625 55.71875 27.296875 
Q 55.71875 13.875 49.015625 6.21875 
Q 42.328125 -1.421875 30.609375 -1.421875 
Q 18.84375 -1.421875 12.171875 6.21875 
Q 5.515625 13.875 5.515625 27.296875 
Q 5.515625 40.765625 12.171875 48.375 
Q 18.84375 56 30.609375 56 
z
" id="DejaVuSans-111"/>
      <path d="M 48.78125 52.59375 
L 48.78125 44.1875 
Q 44.96875 46.296875 41.140625 47.34375 
Q 37.3125 48.390625 33.40625 48.390625 
Q 24.65625 48.390625 19.8125 42.84375 
Q 14.984375 37.3125 14.984375 27.296875 
Q 14.984375 17.28125 19.8125 11.734375 
Q 24.65625 6.203125 33.40625 6.203125 
Q 37.3125 6.203125 41.140625 7.25 
Q 44.96875 8.296875 48.78125 10.40625 
L 48.78125 2.09375 
Q 45.015625 0.34375 40.984375 -0.53125 
Q 36.96875 -1.421875 32.421875 -1.421875 
Q 20.0625 -1.421875 12.78125 6.34375 
Q 5.515625 14.109375 5.515625 27.296875 
Q 5.515625 40.671875 12.859375 48.328125 
Q 20.21875 56 33.015625 56 
Q 37.15625 56 41.109375 55.140625 
Q 45.0625 54.296875 48.78125 52.59375 
z
" id="DejaVuSans-99"/>
      <path d="M 9.421875 54.6875 
L 18.40625 54.6875 
L 18.40625 0 
L 9.421875 0 
z
M 9.421875 75.984375 
L 18.40625 75.984375 
L 18.40625 64.59375 
L 9.421875 64.59375 
z
" id="DejaVuSans-105"/>
      <path d="M 18.3125 70.21875 
L 18.3125 54.6875 
L 36.8125 54.6875 
L 36.8125 47.703125 
L 18.3125 47.703125 
L 18.3125 18.015625 
Q 18.3125 11.328125 20.140625 9.421875 
Q 21.96875 7.515625 27.59375 7.515625 
L 36.8125 7.515625 
L 36.8125 0 
L 27.59375 0 
Q 17.1875 0 13.234375 3.875 
Q 9.28125 7.765625 9.28125 18.015625 
L 9.28125 47.703125 
L 2.6875 47.703125 
L 2.6875 54.6875 
L 9.28125 54.6875 
L 9.28125 70.21875 
z
" id="DejaVuSans-116"/>
      <path d="M 32.171875 -5.078125 
Q 28.375 -14.84375 24.75 -17.8125 
Q 21.140625 -20.796875 15.09375 -20.796875 
L 7.90625 -20.796875 
L 7.90625 -13.28125 
L 13.1875 -13.28125 
Q 16.890625 -13.28125 18.9375 -11.515625 
Q 21 -9.765625 23.484375 -3.21875 
L 25.09375 0.875 
L 2.984375 54.6875 
L 12.5 54.6875 
L 29.59375 11.921875 
L 46.6875 54.6875 
L 56.203125 54.6875 
z
" id="DejaVuSans-121"/>
      <path d="M 31 75.875 
Q 24.46875 64.65625 21.28125 53.65625 
Q 18.109375 42.671875 18.109375 31.390625 
Q 18.109375 20.125 21.3125 9.0625 
Q 24.515625 -2 31 -13.1875 
L 23.1875 -13.1875 
Q 15.875 -1.703125 12.234375 9.375 
Q 8.59375 20.453125 8.59375 31.390625 
Q 8.59375 42.28125 12.203125 53.3125 
Q 15.828125 64.359375 23.1875 75.875 
z
" id="DejaVuSans-40"/>
      <path d="M 45.40625 46.390625 
L 45.40625 75.984375 
L 54.390625 75.984375 
L 54.390625 0 
L 45.40625 0 
L 45.40625 8.203125 
Q 42.578125 3.328125 38.25 0.953125 
Q 33.9375 -1.421875 27.875 -1.421875 
Q 17.96875 -1.421875 11.734375 6.484375 
Q 5.515625 14.40625 5.515625 27.296875 
Q 5.515625 40.1875 11.734375 48.09375 
Q 17.96875 56 27.875 56 
Q 33.9375 56 38.25 53.625 
Q 42.578125 51.265625 45.40625 46.390625 
z
M 14.796875 27.296875 
Q 14.796875 17.390625 18.875 11.75 
Q 22.953125 6.109375 30.078125 6.109375 
Q 37.203125 6.109375 41.296875 11.75 
Q 45.40625 17.390625 45.40625 27.296875 
Q 45.40625 37.203125 41.296875 42.84375 
Q 37.203125 48.484375 30.078125 48.484375 
Q 22.953125 48.484375 18.875 42.84375 
Q 14.796875 37.203125 14.796875 27.296875 
z
" id="DejaVuSans-100"/>
      <path d="M 45.40625 27.984375 
Q 45.40625 37.75 41.375 43.109375 
Q 37.359375 48.484375 30.078125 48.484375 
Q 22.859375 48.484375 18.828125 43.109375 
Q 14.796875 37.75 14.796875 27.984375 
Q 14.796875 18.265625 18.828125 12.890625 
Q 22.859375 7.515625 30.078125 7.515625 
Q 37.359375 7.515625 41.375 12.890625 
Q 45.40625 18.265625 45.40625 27.984375 
z
M 54.390625 6.78125 
Q 54.390625 -7.171875 48.1875 -13.984375 
Q 42 -20.796875 29.203125 -20.796875 
Q 24.46875 -20.796875 20.265625 -20.09375 
Q 16.0625 -19.390625 12.109375 -17.921875 
L 12.109375 -9.1875 
Q 16.0625 -11.328125 19.921875 -12.34375 
Q 23.78125 -13.375 27.78125 -13.375 
Q 36.625 -13.375 41.015625 -8.765625 
Q 45.40625 -4.15625 45.40625 5.171875 
L 45.40625 9.625 
Q 42.625 4.78125 38.28125 2.390625 
Q 33.9375 0 27.875 0 
Q 17.828125 0 11.671875 7.65625 
Q 5.515625 15.328125 5.515625 27.984375 
Q 5.515625 40.671875 11.671875 48.328125 
Q 17.828125 56 27.875 56 
Q 33.9375 56 38.28125 53.609375 
Q 42.625 51.21875 45.40625 46.390625 
L 45.40625 54.6875 
L 54.390625 54.6875 
z
" id="DejaVuSans-103"/>
      <path d="M 44.28125 53.078125 
L 44.28125 44.578125 
Q 40.484375 46.53125 36.375 47.5 
Q 32.28125 48.484375 27.875 48.484375 
Q 21.1875 48.484375 17.84375 46.4375 
Q 14.5 44.390625 14.5 40.28125 
Q 14.5 37.15625 16.890625 35.375 
Q 19.28125 33.59375 26.515625 31.984375 
L 29.59375 31.296875 
Q 39.15625 29.25 43.1875 25.515625 
Q 47.21875 21.78125 47.21875 15.09375 
Q 47.21875 7.46875 41.1875 3.015625 
Q 35.15625 -1.421875 24.609375 -1.421875 
Q 20.21875 -1.421875 15.453125 -0.5625 
Q 10.6875 0.296875 5.421875 2 
L 5.421875 11.28125 
Q 10.40625 8.6875 15.234375 7.390625 
Q 20.0625 6.109375 24.8125 6.109375 
Q 31.15625 6.109375 34.5625 8.28125 
Q 37.984375 10.453125 37.984375 14.40625 
Q 37.984375 18.0625 35.515625 20.015625 
Q 33.0625 21.96875 24.703125 23.78125 
L 21.578125 24.515625 
Q 13.234375 26.265625 9.515625 29.90625 
Q 5.8125 33.546875 5.8125 39.890625 
Q 5.8125 47.609375 11.28125 51.796875 
Q 16.75 56 26.8125 56 
Q 31.78125 56 36.171875 55.265625 
Q 40.578125 54.546875 44.28125 53.078125 
z
" id="DejaVuSans-115"/>
      <path d="M 25.390625 72.90625 
L 33.6875 72.90625 
L 8.296875 -9.28125 
L 0 -9.28125 
z
" id="DejaVuSans-47"/>
      <path d="M 8.015625 75.875 
L 15.828125 75.875 
Q 23.140625 64.359375 26.78125 53.3125 
Q 30.421875 42.28125 30.421875 31.390625 
Q 30.421875 20.453125 26.78125 9.375 
Q 23.140625 -1.703125 15.828125 -13.1875 
L 8.015625 -13.1875 
Q 14.5 -2 17.703125 9.0625 
Q 20.90625 20.125 20.90625 31.390625 
Q 20.90625 42.671875 17.703125 53.65625 
Q 14.5 64.65625 8.015625 75.875 
z
" id="DejaVuSans-41"/>
     </defs>
     <g transform="translate(118.653125 346.070312)scale(0.1 -0.1)">
      <use xlink:href="#DejaVuSans-84"/>
      <use x="60.865234" xlink:href="#DejaVuSans-114"/>
      <use x="101.978516" xlink:href="#DejaVuSans-117"/>
      <use x="165.357422" xlink:href="#DejaVuSans-101"/>
      <use x="226.880859" xlink:href="#DejaVuSans-32"/>
      <use x="258.667969" xlink:href="#DejaVuSans-77"/>
      <use x="344.947266" xlink:href="#DejaVuSans-101"/>
      <use x="406.470703" xlink:href="#DejaVuSans-97"/>
      <use x="467.75" xlink:href="#DejaVuSans-110"/>
      <use x="531.128906" xlink:href="#DejaVuSans-32"/>
      <use x="562.916016" xlink:href="#DejaVuSans-86"/>
      <use x="631.214844" xlink:href="#DejaVuSans-101"/>
      <use x="692.738281" xlink:href="#DejaVuSans-108"/>
      <use x="720.521484" xlink:href="#DejaVuSans-111"/>
      <use x="781.703125" xlink:href="#DejaVuSans-99"/>
      <use x="836.683594" xlink:href="#DejaVuSans-105"/>
      <use x="864.466797" xlink:href="#DejaVuSans-116"/>
      <use x="903.675781" xlink:href="#DejaVuSans-121"/>
      <use x="962.855469" xlink:href="#DejaVuSans-32"/>
      <use x="994.642578" xlink:href="#DejaVuSans-40"/>
      <use x="1033.65625" xlink:href="#DejaVuSans-100"/>
      <use x="1097.132812" xlink:href="#DejaVuSans-101"/>
      <use x="1158.65625" xlink:href="#DejaVuSans-103"/>
      <use x="1222.132812" xlink:href="#DejaVuSans-114"/>
      <use x="1263.214844" xlink:href="#DejaVuSans-101"/>
      <use x="1324.738281" xlink:href="#DejaVuSans-101"/>
      <use x="1386.261719" xlink:href="#DejaVuSans-115"/>
      <use x="1438.361328" xlink:href="#DejaVuSans-47"/>
      <use x="1472.052734" xlink:href="#DejaVuSans-115"/>
      <use x="1524.152344" xlink:href="#DejaVuSans-41"/>
     </g>
    </g>
   </g>
   <g id="matplotlib.axis_2">
    <g id="ytick_1">
     <g id="line2d_7">
      <defs>
       <path d="M 0 0 
L -3.5 0 
" id="m6ad52c4f8c" style="stroke:#000000;stroke-width:0.8;"/>
      </defs>
      <g>
       <use style="stroke:#000000;stroke-width:0.8;" x="44.425" xlink:href="#m6ad52c4f8c" y="264.325247"/>
      </g>
     </g>
     <g id="text_8">
      <!-- 20 -->
      <g transform="translate(24.7 268.124466)scale(0.1 -0.1)">
       <use xlink:href="#DejaVuSans-50"/>
       <use x="63.623047" xlink:href="#DejaVuSans-48"/>
      </g>
     </g>
    </g>
    <g id="ytick_2">
     <g id="line2d_8">
      <g>
       <use style="stroke:#000000;stroke-width:0.8;" x="44.425" xlink:href="#m6ad52c4f8c" y="207.628721"/>
      </g>
     </g>
     <g id="text_9">
      <!-- 30 -->
      <g transform="translate(24.7 211.42794)scale(0.1 -0.1)">
       <use xlink:href="#DejaVuSans-51"/>
       <use x="63.623047" xlink:href="#DejaVuSans-48"/>
      </g>
     </g>
    </g>
    <g id="ytick_3">
     <g id="line2d_9">
      <g>
       <use style="stroke:#000000;stroke-width:0.8;" x="44.425" xlink:href="#m6ad52c4f8c" y="150.932194"/>
      </g>
     </g>
     <g id="text_10">
      <!-- 40 -->
      <g transform="translate(24.7 154.731413)scale(0.1 -0.1)">
       <use xlink:href="#DejaVuSans-52"/>
       <use x="63.623047" xlink:href="#DejaVuSans-48"/>
      </g>
     </g>
    </g>
    <g id="ytick_4">
     <g id="line2d_10">
      <g>
       <use style="stroke:#000000;stroke-width:0.8;" x="44.425" xlink:href="#m6ad52c4f8c" y="94.235668"/>
      </g>
     </g>
     <g id="text_11">
      <!-- 50 -->
      <g transform="translate(24.7 98.034887)scale(0.1 -0.1)">
       <use xlink:href="#DejaVuSans-53"/>
       <use x="63.623047" xlink:href="#DejaVuSans-48"/>
      </g>
     </g>
    </g>
    <g id="ytick_5">
     <g id="line2d_11">
      <g>
       <use style="stroke:#000000;stroke-width:0.8;" x="44.425" xlink:href="#m6ad52c4f8c" y="37.539142"/>
      </g>
     </g>
     <g id="text_12">
      <!-- 60 -->
      <g transform="translate(24.7 41.33836)scale(0.1 -0.1)">
       <use xlink:href="#DejaVuSans-54"/>
       <use x="63.623047" xlink:href="#DejaVuSans-48"/>
      </g>
     </g>
    </g>
    <g id="text_13">
     <!-- Predicted Mean Velocity (degrees/s) -->
     <defs>
      <path d="M 19.671875 64.796875 
L 19.671875 37.40625 
L 32.078125 37.40625 
Q 38.96875 37.40625 42.71875 40.96875 
Q 46.484375 44.53125 46.484375 51.125 
Q 46.484375 57.671875 42.71875 61.234375 
Q 38.96875 64.796875 32.078125 64.796875 
z
M 9.8125 72.90625 
L 32.078125 72.90625 
Q 44.34375 72.90625 50.609375 67.359375 
Q 56.890625 61.8125 56.890625 51.125 
Q 56.890625 40.328125 50.609375 34.8125 
Q 44.34375 29.296875 32.078125 29.296875 
L 19.671875 29.296875 
L 19.671875 0 
L 9.8125 0 
z
" id="DejaVuSans-80"/>
     </defs>
     <g transform="translate(18.620312 254.780469)rotate(-90)scale(0.1 -0.1)">
      <use xlink:href="#DejaVuSans-80"/>
      <use x="60.287109" xlink:href="#DejaVuSans-114"/>
      <use x="101.369141" xlink:href="#DejaVuSans-101"/>
      <use x="162.892578" xlink:href="#DejaVuSans-100"/>
      <use x="226.369141" xlink:href="#DejaVuSans-105"/>
      <use x="254.152344" xlink:href="#DejaVuSans-99"/>
      <use x="309.132812" xlink:href="#DejaVuSans-116"/>
      <use x="348.341797" xlink:href="#DejaVuSans-101"/>
      <use x="409.865234" xlink:href="#DejaVuSans-100"/>
      <use x="473.341797" xlink:href="#DejaVuSans-32"/>
      <use x="505.128906" xlink:href="#DejaVuSans-77"/>
      <use x="591.408203" xlink:href="#DejaVuSans-101"/>
      <use x="652.931641" xlink:href="#DejaVuSans-97"/>
      <use x="714.210938" xlink:href="#DejaVuSans-110"/>
      <use x="777.589844" xlink:href="#DejaVuSans-32"/>
      <use x="809.376953" xlink:href="#DejaVuSans-86"/>
      <use x="877.675781" xlink:href="#DejaVuSans-101"/>
      <use x="939.199219" xlink:href="#DejaVuSans-108"/>
      <use x="966.982422" xlink:href="#DejaVuSans-111"/>
      <use x="1028.164062" xlink:href="#DejaVuSans-99"/>
      <use x="1083.144531" xlink:href="#DejaVuSans-105"/>
      <use x="1110.927734" xlink:href="#DejaVuSans-116"/>
      <use x="1150.136719" xlink:href="#DejaVuSans-121"/>
      <use x="1209.316406" xlink:href="#DejaVuSans-32"/>
      <use x="1241.103516" xlink:href="#DejaVuSans-40"/>
      <use x="1280.117188" xlink:href="#DejaVuSans-100"/>
      <use x="1343.59375" xlink:href="#DejaVuSans-101"/>
      <use x="1405.117188" xlink:href="#DejaVuSans-103"/>
      <use x="1468.59375" xlink:href="#DejaVuSans-114"/>
      <use x="1509.675781" xlink:href="#DejaVuSans-101"/>
      <use x="1571.199219" xlink:href="#DejaVuSans-101"/>
      <use x="1632.722656" xlink:href="#DejaVuSans-115"/>
      <use x="1684.822266" xlink:href="#DejaVuSans-47"/>
      <use x="1718.513672" xlink:href="#DejaVuSans-115"/>
      <use x="1770.613281" xlink:href="#DejaVuSans-41"/>
     </g>
    </g>
   </g>
   <g id="line2d_12">
    <path clip-path="url(#p480c5642b9)" d="M 61.189663 296.151224 
L 63.929519 293.522528 
L 66.669374 290.893832 
L 69.409229 288.265135 
L 72.149085 285.636439 
L 74.88894 283.007743 
L 77.628795 280.379047 
L 80.36865 277.75035 
L 83.108506 275.121654 
L 85.848361 272.492958 
L 88.588216 269.864262 
L 91.328072 267.235565 
L 94.067927 264.606869 
L 96.807782 261.978173 
L 99.547637 259.349477 
L 102.287493 256.72078 
L 105.027348 254.092084 
L 107.767203 251.463388 
L 110.507059 248.834692 
L 113.246914 246.205995 
L 115.986769 243.577299 
L 118.726624 240.948603 
L 121.46648 238.319907 
L 124.206335 235.69121 
L 126.94619 233.062514 
L 129.686046 230.433818 
L 132.425901 227.805122 
L 135.165756 225.176426 
L 137.905611 222.547729 
L 140.645467 219.919033 
L 143.385322 217.290337 
L 146.125177 214.661641 
L 148.865033 212.032944 
L 151.604888 209.404248 
L 154.344743 206.775552 
L 157.084598 204.146856 
L 159.824454 201.518159 
L 162.564309 198.889463 
L 165.304164 196.260767 
L 168.04402 193.632071 
L 170.783875 191.003374 
L 173.52373 188.374678 
L 176.263585 185.745982 
L 179.003441 183.117286 
L 181.743296 180.488589 
L 184.483151 177.859893 
L 187.223007 175.231197 
L 189.962862 172.602501 
L 192.702717 169.973804 
L 195.442572 167.345108 
L 198.182428 164.716412 
L 200.922283 162.087716 
L 203.662138 159.459019 
L 206.401993 156.830323 
L 209.141849 154.201627 
L 211.881704 151.572931 
L 214.621559 148.944235 
L 217.361415 146.315538 
L 220.10127 143.686842 
L 222.841125 141.058146 
L 225.58098 138.42945 
L 228.320836 135.800753 
L 231.060691 133.172057 
L 233.800546 130.543361 
L 236.540402 127.914665 
L 239.280257 125.285968 
L 242.020112 122.657272 
L 244.759967 120.028576 
L 247.499823 117.39988 
L 250.239678 114.771183 
L 252.979533 112.142487 
L 255.719389 109.513791 
L 258.459244 106.885095 
L 261.199099 104.256398 
L 263.938954 101.627702 
L 266.67881 98.999006 
L 269.418665 96.37031 
L 272.15852 93.741613 
L 274.898376 91.112917 
L 277.638231 88.484221 
L 280.378086 85.855525 
L 283.117941 83.226828 
L 285.857797 80.598132 
L 288.597652 77.969436 
L 291.337507 75.34074 
L 294.077363 72.712044 
L 296.817218 70.083347 
L 299.557073 67.454651 
L 302.296928 64.825955 
L 305.036784 62.197259 
L 307.776639 59.568562 
L 310.516494 56.939866 
L 313.25635 54.31117 
L 315.996205 51.682474 
L 318.73606 49.053777 
L 321.475915 46.425081 
L 324.215771 43.796385 
L 326.955626 41.167689 
L 329.695481 38.538992 
L 332.435337 35.910296 
" style="fill:none;stroke:#1f77b4;stroke-linecap:square;stroke-width:2.25;"/>
   </g>
   <g id="line2d_13">
    <path clip-path="url(#p480c5642b9)" d="M 61.189663 303.839489 
L 332.435337 24.754261 
" style="fill:none;stroke:#ff0000;stroke-linecap:square;"/>
   </g>
   <g id="patch_3">
    <path d="M 44.425 317.79375 
L 44.425 10.8 
" style="fill:none;stroke:#000000;stroke-linecap:square;stroke-linejoin:miter;stroke-width:0.8;"/>
   </g>
   <g id="patch_4">
    <path d="M 44.425 317.79375 
L 349.2 317.79375 
" style="fill:none;stroke:#000000;stroke-linecap:square;stroke-linejoin:miter;stroke-width:0.8;"/>
   </g>
   <g id="text_14">
    <!-- Mean Velocity Prediction -->
    <g transform="translate(122.612187 4.8)scale(0.12 -0.12)">
     <use xlink:href="#DejaVuSans-77"/>
     <use x="86.279297" xlink:href="#DejaVuSans-101"/>
     <use x="147.802734" xlink:href="#DejaVuSans-97"/>
     <use x="209.082031" xlink:href="#DejaVuSans-110"/>
     <use x="272.460938" xlink:href="#DejaVuSans-32"/>
     <use x="304.248047" xlink:href="#DejaVuSans-86"/>
     <use x="372.546875" xlink:href="#DejaVuSans-101"/>
     <use x="434.070312" xlink:href="#DejaVuSans-108"/>
     <use x="461.853516" xlink:href="#DejaVuSans-111"/>
     <use x="523.035156" xlink:href="#DejaVuSans-99"/>
     <use x="578.015625" xlink:href="#DejaVuSans-105"/>
     <use x="605.798828" xlink:href="#DejaVuSans-116"/>
     <use x="645.007812" xlink:href="#DejaVuSans-121"/>
     <use x="704.1875" xlink:href="#DejaVuSans-32"/>
     <use x="735.974609" xlink:href="#DejaVuSans-80"/>
     <use x="796.261719" xlink:href="#DejaVuSans-114"/>
     <use x="837.34375" xlink:href="#DejaVuSans-101"/>
     <use x="898.867188" xlink:href="#DejaVuSans-100"/>
     <use x="962.34375" xlink:href="#DejaVuSans-105"/>
     <use x="990.126953" xlink:href="#DejaVuSans-99"/>
     <use x="1045.107422" xlink:href="#DejaVuSans-116"/>
     <use x="1084.316406" xlink:href="#DejaVuSans-105"/>
     <use x="1112.099609" xlink:href="#DejaVuSans-111"/>
     <use x="1173.28125" xlink:href="#DejaVuSans-110"/>
    </g>
   </g>
   <g id="legend_1">
    <g id="patch_5">
     <path d="M 51.425 48.15625 
L 189.471875 48.15625 
Q 191.471875 48.15625 191.471875 46.15625 
L 191.471875 17.8 
Q 191.471875 15.8 189.471875 15.8 
L 51.425 15.8 
Q 49.425 15.8 49.425 17.8 
L 49.425 46.15625 
Q 49.425 48.15625 51.425 48.15625 
z
" style="fill:#ffffff;opacity:0.8;stroke:#cccccc;stroke-linejoin:miter;"/>
    </g>
    <g id="line2d_14">
     <path d="M 53.425 23.898438 
L 73.425 23.898438 
" style="fill:none;stroke:#1f77b4;stroke-linecap:square;stroke-width:2.25;"/>
    </g>
    <g id="line2d_15"/>
    <g id="text_15">
     <!-- Predicted Correlation -->
     <defs>
      <path d="M 64.40625 67.28125 
L 64.40625 56.890625 
Q 59.421875 61.53125 53.78125 63.8125 
Q 48.140625 66.109375 41.796875 66.109375 
Q 29.296875 66.109375 22.65625 58.46875 
Q 16.015625 50.828125 16.015625 36.375 
Q 16.015625 21.96875 22.65625 14.328125 
Q 29.296875 6.6875 41.796875 6.6875 
Q 48.140625 6.6875 53.78125 8.984375 
Q 59.421875 11.28125 64.40625 15.921875 
L 64.40625 5.609375 
Q 59.234375 2.09375 53.4375 0.328125 
Q 47.65625 -1.421875 41.21875 -1.421875 
Q 24.65625 -1.421875 15.125 8.703125 
Q 5.609375 18.84375 5.609375 36.375 
Q 5.609375 53.953125 15.125 64.078125 
Q 24.65625 74.21875 41.21875 74.21875 
Q 47.75 74.21875 53.53125 72.484375 
Q 59.328125 70.75 64.40625 67.28125 
z
" id="DejaVuSans-67"/>
     </defs>
     <g transform="translate(81.425 27.398438)scale(0.1 -0.1)">
      <use xlink:href="#DejaVuSans-80"/>
      <use x="60.287109" xlink:href="#DejaVuSans-114"/>
      <use x="101.369141" xlink:href="#DejaVuSans-101"/>
      <use x="162.892578" xlink:href="#DejaVuSans-100"/>
      <use x="226.369141" xlink:href="#DejaVuSans-105"/>
      <use x="254.152344" xlink:href="#DejaVuSans-99"/>
      <use x="309.132812" xlink:href="#DejaVuSans-116"/>
      <use x="348.341797" xlink:href="#DejaVuSans-101"/>
      <use x="409.865234" xlink:href="#DejaVuSans-100"/>
      <use x="473.341797" xlink:href="#DejaVuSans-32"/>
      <use x="505.128906" xlink:href="#DejaVuSans-67"/>
      <use x="574.953125" xlink:href="#DejaVuSans-111"/>
      <use x="636.134766" xlink:href="#DejaVuSans-114"/>
      <use x="677.232422" xlink:href="#DejaVuSans-114"/>
      <use x="718.314453" xlink:href="#DejaVuSans-101"/>
      <use x="779.837891" xlink:href="#DejaVuSans-108"/>
      <use x="807.621094" xlink:href="#DejaVuSans-97"/>
      <use x="868.900391" xlink:href="#DejaVuSans-116"/>
      <use x="908.109375" xlink:href="#DejaVuSans-105"/>
      <use x="935.892578" xlink:href="#DejaVuSans-111"/>
      <use x="997.074219" xlink:href="#DejaVuSans-110"/>
     </g>
    </g>
    <g id="line2d_16">
     <path d="M 53.425 38.576563 
L 73.425 38.576563 
" style="fill:none;stroke:#ff0000;stroke-linecap:square;"/>
    </g>
    <g id="line2d_17"/>
    <g id="text_16">
     <!-- Real Correlation -->
     <defs>
      <path d="M 44.390625 34.1875 
Q 47.5625 33.109375 50.5625 29.59375 
Q 53.5625 26.078125 56.59375 19.921875 
L 66.609375 0 
L 56 0 
L 46.6875 18.703125 
Q 43.0625 26.03125 39.671875 28.421875 
Q 36.28125 30.8125 30.421875 30.8125 
L 19.671875 30.8125 
L 19.671875 0 
L 9.8125 0 
L 9.8125 72.90625 
L 32.078125 72.90625 
Q 44.578125 72.90625 50.734375 67.671875 
Q 56.890625 62.453125 56.890625 51.90625 
Q 56.890625 45.015625 53.6875 40.46875 
Q 50.484375 35.9375 44.390625 34.1875 
z
M 19.671875 64.796875 
L 19.671875 38.921875 
L 32.078125 38.921875 
Q 39.203125 38.921875 42.84375 42.21875 
Q 46.484375 45.515625 46.484375 51.90625 
Q 46.484375 58.296875 42.84375 61.546875 
Q 39.203125 64.796875 32.078125 64.796875 
z
" id="DejaVuSans-82"/>
     </defs>
     <g transform="translate(81.425 42.076563)scale(0.1 -0.1)">
      <use xlink:href="#DejaVuSans-82"/>
      <use x="69.419922" xlink:href="#DejaVuSans-101"/>
      <use x="130.943359" xlink:href="#DejaVuSans-97"/>
      <use x="192.222656" xlink:href="#DejaVuSans-108"/>
      <use x="220.005859" xlink:href="#DejaVuSans-32"/>
      <use x="251.792969" xlink:href="#DejaVuSans-67"/>
      <use x="321.617188" xlink:href="#DejaVuSans-111"/>
      <use x="382.798828" xlink:href="#DejaVuSans-114"/>
      <use x="423.896484" xlink:href="#DejaVuSans-114"/>
      <use x="464.978516" xlink:href="#DejaVuSans-101"/>
      <use x="526.501953" xlink:href="#DejaVuSans-108"/>
      <use x="554.285156" xlink:href="#DejaVuSans-97"/>
      <use x="615.564453" xlink:href="#DejaVuSans-116"/>
      <use x="654.773438" xlink:href="#DejaVuSans-105"/>
      <use x="682.556641" xlink:href="#DejaVuSans-111"/>
      <use x="743.738281" xlink:href="#DejaVuSans-110"/>
     </g>
    </g>
   </g>
  </g>
 </g>
 <defs>
  <clipPath id="p480c5642b9">
   <rect height="306.99375" width="304.775" x="44.425" y="10.8"/>
  </clipPath>
 </defs>
</svg>
