<?xml version="1.0" encoding="utf-8" standalone="no"?>
<!DOCTYPE svg PUBLIC "-//W3C//DTD SVG 1.1//EN"
  "http://www.w3.org/Graphics/SVG/1.1/DTD/svg11.dtd">
<!-- Created with matplotlib (https://matplotlib.org/) -->
<svg height="360pt" version="1.1" viewBox="0 0 360 360" width="360pt" xmlns="http://www.w3.org/2000/svg" xmlns:xlink="http://www.w3.org/1999/xlink">
 <defs>
  <style type="text/css">
*{stroke-linecap:butt;stroke-linejoin:round;}
  </style>
 </defs>
 <g id="figure_1">
  <g id="patch_1">
   <path d="M 0 360 
L 360 360 
L 360 0 
L 0 0 
z
" style="fill:#ffffff;"/>
  </g>
  <g id="axes_1">
   <g id="patch_2">
    <path d="M 44.55 317.79375 
L 349.2 317.79375 
L 349.2 10.8 
L 44.55 10.8 
z
" style="fill:#ffffff;"/>
   </g>
   <g id="PathCollection_1">
    <defs>
     <path d="M 0 3 
C 0.795609 3 1.55874 2.683901 2.12132 2.12132 
C 2.683901 1.55874 3 0.795609 3 0 
C 3 -0.795609 2.683901 -1.55874 2.12132 -2.12132 
C 1.55874 -2.683901 0.795609 -3 0 -3 
C -0.795609 -3 -1.55874 -2.683901 -2.12132 -2.12132 
C -2.683901 -1.55874 -3 -0.795609 -3 0 
C -3 0.795609 -2.683901 1.55874 -2.12132 2.12132 
C -1.55874 2.683901 -0.795609 3 0 3 
z
" id="m474ae54421" style="stroke:#1f77b4;stroke-opacity:0.8;"/>
    </defs>
    <g clip-path="url(#pddbe6b93ec)">
     <use style="fill:#1f77b4;fill-opacity:0.8;stroke:#1f77b4;stroke-opacity:0.8;" x="130.986845" xlink:href="#m474ae54421" y="221.44264"/>
     <use style="fill:#1f77b4;fill-opacity:0.8;stroke:#1f77b4;stroke-opacity:0.8;" x="180.793061" xlink:href="#m474ae54421" y="210.302458"/>
     <use style="fill:#1f77b4;fill-opacity:0.8;stroke:#1f77b4;stroke-opacity:0.8;" x="139.764535" xlink:href="#m474ae54421" y="216.367512"/>
     <use style="fill:#1f77b4;fill-opacity:0.8;stroke:#1f77b4;stroke-opacity:0.8;" x="152.443507" xlink:href="#m474ae54421" y="207.257529"/>
     <use style="fill:#1f77b4;fill-opacity:0.8;stroke:#1f77b4;stroke-opacity:0.8;" x="116.99403" xlink:href="#m474ae54421" y="269.235796"/>
     <use style="fill:#1f77b4;fill-opacity:0.8;stroke:#1f77b4;stroke-opacity:0.8;" x="103.857745" xlink:href="#m474ae54421" y="232.972548"/>
     <use style="fill:#1f77b4;fill-opacity:0.8;stroke:#1f77b4;stroke-opacity:0.8;" x="186.792757" xlink:href="#m474ae54421" y="194.179637"/>
     <use style="fill:#1f77b4;fill-opacity:0.8;stroke:#1f77b4;stroke-opacity:0.8;" x="126.347105" xlink:href="#m474ae54421" y="224.503447"/>
     <use style="fill:#1f77b4;fill-opacity:0.8;stroke:#1f77b4;stroke-opacity:0.8;" x="160.997144" xlink:href="#m474ae54421" y="214.266795"/>
     <use style="fill:#1f77b4;fill-opacity:0.8;stroke:#1f77b4;stroke-opacity:0.8;" x="224.23802" xlink:href="#m474ae54421" y="141.315954"/>
     <use style="fill:#1f77b4;fill-opacity:0.8;stroke:#1f77b4;stroke-opacity:0.8;" x="71.500274" xlink:href="#m474ae54421" y="280.377934"/>
     <use style="fill:#1f77b4;fill-opacity:0.8;stroke:#1f77b4;stroke-opacity:0.8;" x="159.781364" xlink:href="#m474ae54421" y="187.002656"/>
     <use style="fill:#1f77b4;fill-opacity:0.8;stroke:#1f77b4;stroke-opacity:0.8;" x="104.952651" xlink:href="#m474ae54421" y="239.044481"/>
     <use style="fill:#1f77b4;fill-opacity:0.8;stroke:#1f77b4;stroke-opacity:0.8;" x="237.579037" xlink:href="#m474ae54421" y="117.191823"/>
     <use style="fill:#1f77b4;fill-opacity:0.8;stroke:#1f77b4;stroke-opacity:0.8;" x="212.019067" xlink:href="#m474ae54421" y="140.692129"/>
     <use style="fill:#1f77b4;fill-opacity:0.8;stroke:#1f77b4;stroke-opacity:0.8;" x="166.827898" xlink:href="#m474ae54421" y="224.117988"/>
     <use style="fill:#1f77b4;fill-opacity:0.8;stroke:#1f77b4;stroke-opacity:0.8;" x="272.075065" xlink:href="#m474ae54421" y="137.632754"/>
     <use style="fill:#1f77b4;fill-opacity:0.8;stroke:#1f77b4;stroke-opacity:0.8;" x="173.65818" xlink:href="#m474ae54421" y="186.55785"/>
     <use style="fill:#1f77b4;fill-opacity:0.8;stroke:#1f77b4;stroke-opacity:0.8;" x="114.162068" xlink:href="#m474ae54421" y="283.953691"/>
     <use style="fill:#1f77b4;fill-opacity:0.8;stroke:#1f77b4;stroke-opacity:0.8;" x="158.408547" xlink:href="#m474ae54421" y="214.391029"/>
     <use style="fill:#1f77b4;fill-opacity:0.8;stroke:#1f77b4;stroke-opacity:0.8;" x="87.684093" xlink:href="#m474ae54421" y="274.948185"/>
     <use style="fill:#1f77b4;fill-opacity:0.8;stroke:#1f77b4;stroke-opacity:0.8;" x="70.370997" xlink:href="#m474ae54421" y="282.347377"/>
     <use style="fill:#1f77b4;fill-opacity:0.8;stroke:#1f77b4;stroke-opacity:0.8;" x="115.100663" xlink:href="#m474ae54421" y="214.724566"/>
     <use style="fill:#1f77b4;fill-opacity:0.8;stroke:#1f77b4;stroke-opacity:0.8;" x="131.819821" xlink:href="#m474ae54421" y="233.712647"/>
     <use style="fill:#1f77b4;fill-opacity:0.8;stroke:#1f77b4;stroke-opacity:0.8;" x="205.036047" xlink:href="#m474ae54421" y="165.313892"/>
     <use style="fill:#1f77b4;fill-opacity:0.8;stroke:#1f77b4;stroke-opacity:0.8;" x="129.83267" xlink:href="#m474ae54421" y="275.240513"/>
     <use style="fill:#1f77b4;fill-opacity:0.8;stroke:#1f77b4;stroke-opacity:0.8;" x="122.518604" xlink:href="#m474ae54421" y="231.888788"/>
     <use style="fill:#1f77b4;fill-opacity:0.8;stroke:#1f77b4;stroke-opacity:0.8;" x="86.223113" xlink:href="#m474ae54421" y="267.02888"/>
     <use style="fill:#1f77b4;fill-opacity:0.8;stroke:#1f77b4;stroke-opacity:0.8;" x="332.442234" xlink:href="#m474ae54421" y="126.602622"/>
     <use style="fill:#1f77b4;fill-opacity:0.8;stroke:#1f77b4;stroke-opacity:0.8;" x="125.792874" xlink:href="#m474ae54421" y="235.738332"/>
     <use style="fill:#1f77b4;fill-opacity:0.8;stroke:#1f77b4;stroke-opacity:0.8;" x="112.662552" xlink:href="#m474ae54421" y="265.924053"/>
     <use style="fill:#1f77b4;fill-opacity:0.8;stroke:#1f77b4;stroke-opacity:0.8;" x="85.307403" xlink:href="#m474ae54421" y="275.026576"/>
     <use style="fill:#1f77b4;fill-opacity:0.8;stroke:#1f77b4;stroke-opacity:0.8;" x="153.722996" xlink:href="#m474ae54421" y="220.616553"/>
     <use style="fill:#1f77b4;fill-opacity:0.8;stroke:#1f77b4;stroke-opacity:0.8;" x="168.274923" xlink:href="#m474ae54421" y="210.220143"/>
     <use style="fill:#1f77b4;fill-opacity:0.8;stroke:#1f77b4;stroke-opacity:0.8;" x="158.801574" xlink:href="#m474ae54421" y="133.697389"/>
     <use style="fill:#1f77b4;fill-opacity:0.8;stroke:#1f77b4;stroke-opacity:0.8;" x="189.608351" xlink:href="#m474ae54421" y="211.492843"/>
     <use style="fill:#1f77b4;fill-opacity:0.8;stroke:#1f77b4;stroke-opacity:0.8;" x="123.790888" xlink:href="#m474ae54421" y="250.860687"/>
     <use style="fill:#1f77b4;fill-opacity:0.8;stroke:#1f77b4;stroke-opacity:0.8;" x="225.685899" xlink:href="#m474ae54421" y="158.938826"/>
     <use style="fill:#1f77b4;fill-opacity:0.8;stroke:#1f77b4;stroke-opacity:0.8;" x="85.418477" xlink:href="#m474ae54421" y="259.087643"/>
     <use style="fill:#1f77b4;fill-opacity:0.8;stroke:#1f77b4;stroke-opacity:0.8;" x="121.408774" xlink:href="#m474ae54421" y="238.887443"/>
     <use style="fill:#1f77b4;fill-opacity:0.8;stroke:#1f77b4;stroke-opacity:0.8;" x="152.380378" xlink:href="#m474ae54421" y="249.766731"/>
     <use style="fill:#1f77b4;fill-opacity:0.8;stroke:#1f77b4;stroke-opacity:0.8;" x="159.296727" xlink:href="#m474ae54421" y="190.134231"/>
     <use style="fill:#1f77b4;fill-opacity:0.8;stroke:#1f77b4;stroke-opacity:0.8;" x="181.825038" xlink:href="#m474ae54421" y="185.455073"/>
     <use style="fill:#1f77b4;fill-opacity:0.8;stroke:#1f77b4;stroke-opacity:0.8;" x="86.220256" xlink:href="#m474ae54421" y="246.394496"/>
     <use style="fill:#1f77b4;fill-opacity:0.8;stroke:#1f77b4;stroke-opacity:0.8;" x="144.511007" xlink:href="#m474ae54421" y="240.660445"/>
     <use style="fill:#1f77b4;fill-opacity:0.8;stroke:#1f77b4;stroke-opacity:0.8;" x="141.40458" xlink:href="#m474ae54421" y="263.855343"/>
     <use style="fill:#1f77b4;fill-opacity:0.8;stroke:#1f77b4;stroke-opacity:0.8;" x="197.63684" xlink:href="#m474ae54421" y="215.704832"/>
     <use style="fill:#1f77b4;fill-opacity:0.8;stroke:#1f77b4;stroke-opacity:0.8;" x="97.912961" xlink:href="#m474ae54421" y="240.409844"/>
     <use style="fill:#1f77b4;fill-opacity:0.8;stroke:#1f77b4;stroke-opacity:0.8;" x="116.915231" xlink:href="#m474ae54421" y="203.283959"/>
     <use style="fill:#1f77b4;fill-opacity:0.8;stroke:#1f77b4;stroke-opacity:0.8;" x="127.163026" xlink:href="#m474ae54421" y="248.239825"/>
     <use style="fill:#1f77b4;fill-opacity:0.8;stroke:#1f77b4;stroke-opacity:0.8;" x="162.977711" xlink:href="#m474ae54421" y="203.893032"/>
     <use style="fill:#1f77b4;fill-opacity:0.8;stroke:#1f77b4;stroke-opacity:0.8;" x="107.459204" xlink:href="#m474ae54421" y="239.855118"/>
     <use style="fill:#1f77b4;fill-opacity:0.8;stroke:#1f77b4;stroke-opacity:0.8;" x="142.252619" xlink:href="#m474ae54421" y="223.195005"/>
     <use style="fill:#1f77b4;fill-opacity:0.8;stroke:#1f77b4;stroke-opacity:0.8;" x="137.877108" xlink:href="#m474ae54421" y="165.340601"/>
     <use style="fill:#1f77b4;fill-opacity:0.8;stroke:#1f77b4;stroke-opacity:0.8;" x="143.116353" xlink:href="#m474ae54421" y="204.06348"/>
     <use style="fill:#1f77b4;fill-opacity:0.8;stroke:#1f77b4;stroke-opacity:0.8;" x="86.053905" xlink:href="#m474ae54421" y="264.416006"/>
     <use style="fill:#1f77b4;fill-opacity:0.8;stroke:#1f77b4;stroke-opacity:0.8;" x="187.366562" xlink:href="#m474ae54421" y="178.690532"/>
     <use style="fill:#1f77b4;fill-opacity:0.8;stroke:#1f77b4;stroke-opacity:0.8;" x="135.115053" xlink:href="#m474ae54421" y="216.111361"/>
     <use style="fill:#1f77b4;fill-opacity:0.8;stroke:#1f77b4;stroke-opacity:0.8;" x="147.708494" xlink:href="#m474ae54421" y="199.250764"/>
     <use style="fill:#1f77b4;fill-opacity:0.8;stroke:#1f77b4;stroke-opacity:0.8;" x="85.935212" xlink:href="#m474ae54421" y="266.490031"/>
     <use style="fill:#1f77b4;fill-opacity:0.8;stroke:#1f77b4;stroke-opacity:0.8;" x="247.710699" xlink:href="#m474ae54421" y="161.977656"/>
     <use style="fill:#1f77b4;fill-opacity:0.8;stroke:#1f77b4;stroke-opacity:0.8;" x="160.105661" xlink:href="#m474ae54421" y="208.00396"/>
     <use style="fill:#1f77b4;fill-opacity:0.8;stroke:#1f77b4;stroke-opacity:0.8;" x="80.473111" xlink:href="#m474ae54421" y="273.083994"/>
     <use style="fill:#1f77b4;fill-opacity:0.8;stroke:#1f77b4;stroke-opacity:0.8;" x="92.94397" xlink:href="#m474ae54421" y="247.809055"/>
     <use style="fill:#1f77b4;fill-opacity:0.8;stroke:#1f77b4;stroke-opacity:0.8;" x="127.665431" xlink:href="#m474ae54421" y="196.197923"/>
     <use style="fill:#1f77b4;fill-opacity:0.8;stroke:#1f77b4;stroke-opacity:0.8;" x="116.995828" xlink:href="#m474ae54421" y="206.507744"/>
     <use style="fill:#1f77b4;fill-opacity:0.8;stroke:#1f77b4;stroke-opacity:0.8;" x="211.553521" xlink:href="#m474ae54421" y="156.844191"/>
     <use style="fill:#1f77b4;fill-opacity:0.8;stroke:#1f77b4;stroke-opacity:0.8;" x="186.094324" xlink:href="#m474ae54421" y="176.821091"/>
     <use style="fill:#1f77b4;fill-opacity:0.8;stroke:#1f77b4;stroke-opacity:0.8;" x="167.732473" xlink:href="#m474ae54421" y="216.968119"/>
     <use style="fill:#1f77b4;fill-opacity:0.8;stroke:#1f77b4;stroke-opacity:0.8;" x="115.648943" xlink:href="#m474ae54421" y="222.817095"/>
     <use style="fill:#1f77b4;fill-opacity:0.8;stroke:#1f77b4;stroke-opacity:0.8;" x="195.613375" xlink:href="#m474ae54421" y="203.904946"/>
     <use style="fill:#1f77b4;fill-opacity:0.8;stroke:#1f77b4;stroke-opacity:0.8;" x="119.378058" xlink:href="#m474ae54421" y="234.590113"/>
     <use style="fill:#1f77b4;fill-opacity:0.8;stroke:#1f77b4;stroke-opacity:0.8;" x="228.845229" xlink:href="#m474ae54421" y="165.619897"/>
     <use style="fill:#1f77b4;fill-opacity:0.8;stroke:#1f77b4;stroke-opacity:0.8;" x="180.162037" xlink:href="#m474ae54421" y="195.770479"/>
     <use style="fill:#1f77b4;fill-opacity:0.8;stroke:#1f77b4;stroke-opacity:0.8;" x="184.301071" xlink:href="#m474ae54421" y="143.043828"/>
     <use style="fill:#1f77b4;fill-opacity:0.8;stroke:#1f77b4;stroke-opacity:0.8;" x="151.678238" xlink:href="#m474ae54421" y="232.745607"/>
     <use style="fill:#1f77b4;fill-opacity:0.8;stroke:#1f77b4;stroke-opacity:0.8;" x="134.44518" xlink:href="#m474ae54421" y="245.969647"/>
     <use style="fill:#1f77b4;fill-opacity:0.8;stroke:#1f77b4;stroke-opacity:0.8;" x="135.788042" xlink:href="#m474ae54421" y="180.258902"/>
     <use style="fill:#1f77b4;fill-opacity:0.8;stroke:#1f77b4;stroke-opacity:0.8;" x="135.333731" xlink:href="#m474ae54421" y="194.640402"/>
     <use style="fill:#1f77b4;fill-opacity:0.8;stroke:#1f77b4;stroke-opacity:0.8;" x="164.983243" xlink:href="#m474ae54421" y="193.093936"/>
     <use style="fill:#1f77b4;fill-opacity:0.8;stroke:#1f77b4;stroke-opacity:0.8;" x="113.411352" xlink:href="#m474ae54421" y="235.01463"/>
     <use style="fill:#1f77b4;fill-opacity:0.8;stroke:#1f77b4;stroke-opacity:0.8;" x="120.36014" xlink:href="#m474ae54421" y="257.603621"/>
     <use style="fill:#1f77b4;fill-opacity:0.8;stroke:#1f77b4;stroke-opacity:0.8;" x="163.447393" xlink:href="#m474ae54421" y="213.87463"/>
     <use style="fill:#1f77b4;fill-opacity:0.8;stroke:#1f77b4;stroke-opacity:0.8;" x="259.660463" xlink:href="#m474ae54421" y="169.810937"/>
     <use style="fill:#1f77b4;fill-opacity:0.8;stroke:#1f77b4;stroke-opacity:0.8;" x="102.545419" xlink:href="#m474ae54421" y="255.380367"/>
     <use style="fill:#1f77b4;fill-opacity:0.8;stroke:#1f77b4;stroke-opacity:0.8;" x="208.72984" xlink:href="#m474ae54421" y="152.879653"/>
     <use style="fill:#1f77b4;fill-opacity:0.8;stroke:#1f77b4;stroke-opacity:0.8;" x="120.963699" xlink:href="#m474ae54421" y="250.155159"/>
     <use style="fill:#1f77b4;fill-opacity:0.8;stroke:#1f77b4;stroke-opacity:0.8;" x="208.179869" xlink:href="#m474ae54421" y="164.276045"/>
     <use style="fill:#1f77b4;fill-opacity:0.8;stroke:#1f77b4;stroke-opacity:0.8;" x="273.573631" xlink:href="#m474ae54421" y="153.394505"/>
     <use style="fill:#1f77b4;fill-opacity:0.8;stroke:#1f77b4;stroke-opacity:0.8;" x="183.597351" xlink:href="#m474ae54421" y="167.997573"/>
     <use style="fill:#1f77b4;fill-opacity:0.8;stroke:#1f77b4;stroke-opacity:0.8;" x="85.585642" xlink:href="#m474ae54421" y="279.79888"/>
     <use style="fill:#1f77b4;fill-opacity:0.8;stroke:#1f77b4;stroke-opacity:0.8;" x="123.411834" xlink:href="#m474ae54421" y="233.804429"/>
     <use style="fill:#1f77b4;fill-opacity:0.8;stroke:#1f77b4;stroke-opacity:0.8;" x="148.010827" xlink:href="#m474ae54421" y="199.118903"/>
     <use style="fill:#1f77b4;fill-opacity:0.8;stroke:#1f77b4;stroke-opacity:0.8;" x="174.963156" xlink:href="#m474ae54421" y="191.787662"/>
     <use style="fill:#1f77b4;fill-opacity:0.8;stroke:#1f77b4;stroke-opacity:0.8;" x="120.670381" xlink:href="#m474ae54421" y="209.986016"/>
     <use style="fill:#1f77b4;fill-opacity:0.8;stroke:#1f77b4;stroke-opacity:0.8;" x="212.882051" xlink:href="#m474ae54421" y="152.519267"/>
     <use style="fill:#1f77b4;fill-opacity:0.8;stroke:#1f77b4;stroke-opacity:0.8;" x="139.277862" xlink:href="#m474ae54421" y="210.499385"/>
     <use style="fill:#1f77b4;fill-opacity:0.8;stroke:#1f77b4;stroke-opacity:0.8;" x="179.317027" xlink:href="#m474ae54421" y="202.102781"/>
     <use style="fill:#1f77b4;fill-opacity:0.8;stroke:#1f77b4;stroke-opacity:0.8;" x="119.86562" xlink:href="#m474ae54421" y="245.414529"/>
     <use style="fill:#1f77b4;fill-opacity:0.8;stroke:#1f77b4;stroke-opacity:0.8;" x="135.977692" xlink:href="#m474ae54421" y="239.660612"/>
     <use style="fill:#1f77b4;fill-opacity:0.8;stroke:#1f77b4;stroke-opacity:0.8;" x="169.59026" xlink:href="#m474ae54421" y="212.222047"/>
     <use style="fill:#1f77b4;fill-opacity:0.8;stroke:#1f77b4;stroke-opacity:0.8;" x="109.069977" xlink:href="#m474ae54421" y="191.043613"/>
     <use style="fill:#1f77b4;fill-opacity:0.8;stroke:#1f77b4;stroke-opacity:0.8;" x="104.98815" xlink:href="#m474ae54421" y="219.053068"/>
     <use style="fill:#1f77b4;fill-opacity:0.8;stroke:#1f77b4;stroke-opacity:0.8;" x="188.624882" xlink:href="#m474ae54421" y="207.466323"/>
     <use style="fill:#1f77b4;fill-opacity:0.8;stroke:#1f77b4;stroke-opacity:0.8;" x="156.065678" xlink:href="#m474ae54421" y="208.148452"/>
     <use style="fill:#1f77b4;fill-opacity:0.8;stroke:#1f77b4;stroke-opacity:0.8;" x="271.891853" xlink:href="#m474ae54421" y="95.156864"/>
     <use style="fill:#1f77b4;fill-opacity:0.8;stroke:#1f77b4;stroke-opacity:0.8;" x="169.034325" xlink:href="#m474ae54421" y="190.137292"/>
     <use style="fill:#1f77b4;fill-opacity:0.8;stroke:#1f77b4;stroke-opacity:0.8;" x="250.324601" xlink:href="#m474ae54421" y="181.103655"/>
     <use style="fill:#1f77b4;fill-opacity:0.8;stroke:#1f77b4;stroke-opacity:0.8;" x="73.961246" xlink:href="#m474ae54421" y="260.773503"/>
     <use style="fill:#1f77b4;fill-opacity:0.8;stroke:#1f77b4;stroke-opacity:0.8;" x="194.795958" xlink:href="#m474ae54421" y="161.174047"/>
     <use style="fill:#1f77b4;fill-opacity:0.8;stroke:#1f77b4;stroke-opacity:0.8;" x="161.976034" xlink:href="#m474ae54421" y="193.529596"/>
     <use style="fill:#1f77b4;fill-opacity:0.8;stroke:#1f77b4;stroke-opacity:0.8;" x="240.780159" xlink:href="#m474ae54421" y="175.913651"/>
     <use style="fill:#1f77b4;fill-opacity:0.8;stroke:#1f77b4;stroke-opacity:0.8;" x="115.72782" xlink:href="#m474ae54421" y="212.896819"/>
     <use style="fill:#1f77b4;fill-opacity:0.8;stroke:#1f77b4;stroke-opacity:0.8;" x="96.434149" xlink:href="#m474ae54421" y="253.828678"/>
     <use style="fill:#1f77b4;fill-opacity:0.8;stroke:#1f77b4;stroke-opacity:0.8;" x="146.711933" xlink:href="#m474ae54421" y="265.336911"/>
     <use style="fill:#1f77b4;fill-opacity:0.8;stroke:#1f77b4;stroke-opacity:0.8;" x="111.469579" xlink:href="#m474ae54421" y="242.800362"/>
     <use style="fill:#1f77b4;fill-opacity:0.8;stroke:#1f77b4;stroke-opacity:0.8;" x="132.821738" xlink:href="#m474ae54421" y="229.966556"/>
     <use style="fill:#1f77b4;fill-opacity:0.8;stroke:#1f77b4;stroke-opacity:0.8;" x="134.392246" xlink:href="#m474ae54421" y="199.868699"/>
     <use style="fill:#1f77b4;fill-opacity:0.8;stroke:#1f77b4;stroke-opacity:0.8;" x="118.485529" xlink:href="#m474ae54421" y="271.286486"/>
     <use style="fill:#1f77b4;fill-opacity:0.8;stroke:#1f77b4;stroke-opacity:0.8;" x="110.474995" xlink:href="#m474ae54421" y="236.313219"/>
     <use style="fill:#1f77b4;fill-opacity:0.8;stroke:#1f77b4;stroke-opacity:0.8;" x="128.986754" xlink:href="#m474ae54421" y="218.89585"/>
     <use style="fill:#1f77b4;fill-opacity:0.8;stroke:#1f77b4;stroke-opacity:0.8;" x="126.792537" xlink:href="#m474ae54421" y="210.227901"/>
     <use style="fill:#1f77b4;fill-opacity:0.8;stroke:#1f77b4;stroke-opacity:0.8;" x="78.399451" xlink:href="#m474ae54421" y="276.712255"/>
     <use style="fill:#1f77b4;fill-opacity:0.8;stroke:#1f77b4;stroke-opacity:0.8;" x="231.538797" xlink:href="#m474ae54421" y="153.313494"/>
     <use style="fill:#1f77b4;fill-opacity:0.8;stroke:#1f77b4;stroke-opacity:0.8;" x="86.017334" xlink:href="#m474ae54421" y="274.947921"/>
     <use style="fill:#1f77b4;fill-opacity:0.8;stroke:#1f77b4;stroke-opacity:0.8;" x="124.806404" xlink:href="#m474ae54421" y="157.03921"/>
     <use style="fill:#1f77b4;fill-opacity:0.8;stroke:#1f77b4;stroke-opacity:0.8;" x="100.325074" xlink:href="#m474ae54421" y="226.169152"/>
     <use style="fill:#1f77b4;fill-opacity:0.8;stroke:#1f77b4;stroke-opacity:0.8;" x="229.522276" xlink:href="#m474ae54421" y="172.391284"/>
     <use style="fill:#1f77b4;fill-opacity:0.8;stroke:#1f77b4;stroke-opacity:0.8;" x="321.580549" xlink:href="#m474ae54421" y="121.777211"/>
     <use style="fill:#1f77b4;fill-opacity:0.8;stroke:#1f77b4;stroke-opacity:0.8;" x="130.498144" xlink:href="#m474ae54421" y="242.131186"/>
     <use style="fill:#1f77b4;fill-opacity:0.8;stroke:#1f77b4;stroke-opacity:0.8;" x="136.851167" xlink:href="#m474ae54421" y="226.929678"/>
     <use style="fill:#1f77b4;fill-opacity:0.8;stroke:#1f77b4;stroke-opacity:0.8;" x="74.151452" xlink:href="#m474ae54421" y="288.690818"/>
     <use style="fill:#1f77b4;fill-opacity:0.8;stroke:#1f77b4;stroke-opacity:0.8;" x="101.628558" xlink:href="#m474ae54421" y="265.48159"/>
     <use style="fill:#1f77b4;fill-opacity:0.8;stroke:#1f77b4;stroke-opacity:0.8;" x="186.391381" xlink:href="#m474ae54421" y="218.154511"/>
     <use style="fill:#1f77b4;fill-opacity:0.8;stroke:#1f77b4;stroke-opacity:0.8;" x="108.000603" xlink:href="#m474ae54421" y="244.594223"/>
     <use style="fill:#1f77b4;fill-opacity:0.8;stroke:#1f77b4;stroke-opacity:0.8;" x="147.234644" xlink:href="#m474ae54421" y="187.201887"/>
     <use style="fill:#1f77b4;fill-opacity:0.8;stroke:#1f77b4;stroke-opacity:0.8;" x="222.934996" xlink:href="#m474ae54421" y="143.828815"/>
     <use style="fill:#1f77b4;fill-opacity:0.8;stroke:#1f77b4;stroke-opacity:0.8;" x="119.17756" xlink:href="#m474ae54421" y="245.556332"/>
     <use style="fill:#1f77b4;fill-opacity:0.8;stroke:#1f77b4;stroke-opacity:0.8;" x="225.759792" xlink:href="#m474ae54421" y="177.888445"/>
     <use style="fill:#1f77b4;fill-opacity:0.8;stroke:#1f77b4;stroke-opacity:0.8;" x="167.217946" xlink:href="#m474ae54421" y="181.488134"/>
     <use style="fill:#1f77b4;fill-opacity:0.8;stroke:#1f77b4;stroke-opacity:0.8;" x="108.792605" xlink:href="#m474ae54421" y="257.299546"/>
     <use style="fill:#1f77b4;fill-opacity:0.8;stroke:#1f77b4;stroke-opacity:0.8;" x="204.78443" xlink:href="#m474ae54421" y="181.521508"/>
     <use style="fill:#1f77b4;fill-opacity:0.8;stroke:#1f77b4;stroke-opacity:0.8;" x="110.458462" xlink:href="#m474ae54421" y="185.64992"/>
     <use style="fill:#1f77b4;fill-opacity:0.8;stroke:#1f77b4;stroke-opacity:0.8;" x="217.49384" xlink:href="#m474ae54421" y="151.449476"/>
     <use style="fill:#1f77b4;fill-opacity:0.8;stroke:#1f77b4;stroke-opacity:0.8;" x="198.391013" xlink:href="#m474ae54421" y="139.093499"/>
     <use style="fill:#1f77b4;fill-opacity:0.8;stroke:#1f77b4;stroke-opacity:0.8;" x="125.418613" xlink:href="#m474ae54421" y="256.079801"/>
     <use style="fill:#1f77b4;fill-opacity:0.8;stroke:#1f77b4;stroke-opacity:0.8;" x="257.443059" xlink:href="#m474ae54421" y="153.557222"/>
     <use style="fill:#1f77b4;fill-opacity:0.8;stroke:#1f77b4;stroke-opacity:0.8;" x="181.406483" xlink:href="#m474ae54421" y="183.63473"/>
     <use style="fill:#1f77b4;fill-opacity:0.8;stroke:#1f77b4;stroke-opacity:0.8;" x="143.098715" xlink:href="#m474ae54421" y="211.213952"/>
     <use style="fill:#1f77b4;fill-opacity:0.8;stroke:#1f77b4;stroke-opacity:0.8;" x="61.307766" xlink:href="#m474ae54421" y="265.588727"/>
     <use style="fill:#1f77b4;fill-opacity:0.8;stroke:#1f77b4;stroke-opacity:0.8;" x="88.991918" xlink:href="#m474ae54421" y="268.524254"/>
     <use style="fill:#1f77b4;fill-opacity:0.8;stroke:#1f77b4;stroke-opacity:0.8;" x="82.870655" xlink:href="#m474ae54421" y="240.433634"/>
     <use style="fill:#1f77b4;fill-opacity:0.8;stroke:#1f77b4;stroke-opacity:0.8;" x="140.760692" xlink:href="#m474ae54421" y="196.787364"/>
     <use style="fill:#1f77b4;fill-opacity:0.8;stroke:#1f77b4;stroke-opacity:0.8;" x="179.933803" xlink:href="#m474ae54421" y="207.398154"/>
     <use style="fill:#1f77b4;fill-opacity:0.8;stroke:#1f77b4;stroke-opacity:0.8;" x="104.842786" xlink:href="#m474ae54421" y="262.790045"/>
     <use style="fill:#1f77b4;fill-opacity:0.8;stroke:#1f77b4;stroke-opacity:0.8;" x="124.378878" xlink:href="#m474ae54421" y="236.48412"/>
     <use style="fill:#1f77b4;fill-opacity:0.8;stroke:#1f77b4;stroke-opacity:0.8;" x="175.450208" xlink:href="#m474ae54421" y="212.529269"/>
     <use style="fill:#1f77b4;fill-opacity:0.8;stroke:#1f77b4;stroke-opacity:0.8;" x="141.4215" xlink:href="#m474ae54421" y="213.563174"/>
     <use style="fill:#1f77b4;fill-opacity:0.8;stroke:#1f77b4;stroke-opacity:0.8;" x="99.029233" xlink:href="#m474ae54421" y="264.300097"/>
     <use style="fill:#1f77b4;fill-opacity:0.8;stroke:#1f77b4;stroke-opacity:0.8;" x="193.439735" xlink:href="#m474ae54421" y="167.790685"/>
     <use style="fill:#1f77b4;fill-opacity:0.8;stroke:#1f77b4;stroke-opacity:0.8;" x="116.448788" xlink:href="#m474ae54421" y="241.017499"/>
     <use style="fill:#1f77b4;fill-opacity:0.8;stroke:#1f77b4;stroke-opacity:0.8;" x="150.993534" xlink:href="#m474ae54421" y="170.290683"/>
     <use style="fill:#1f77b4;fill-opacity:0.8;stroke:#1f77b4;stroke-opacity:0.8;" x="147.691972" xlink:href="#m474ae54421" y="205.476964"/>
     <use style="fill:#1f77b4;fill-opacity:0.8;stroke:#1f77b4;stroke-opacity:0.8;" x="118.093333" xlink:href="#m474ae54421" y="259.700625"/>
     <use style="fill:#1f77b4;fill-opacity:0.8;stroke:#1f77b4;stroke-opacity:0.8;" x="224.031238" xlink:href="#m474ae54421" y="102.195837"/>
     <use style="fill:#1f77b4;fill-opacity:0.8;stroke:#1f77b4;stroke-opacity:0.8;" x="128.077788" xlink:href="#m474ae54421" y="250.841641"/>
     <use style="fill:#1f77b4;fill-opacity:0.8;stroke:#1f77b4;stroke-opacity:0.8;" x="166.603745" xlink:href="#m474ae54421" y="218.788374"/>
     <use style="fill:#1f77b4;fill-opacity:0.8;stroke:#1f77b4;stroke-opacity:0.8;" x="117.912548" xlink:href="#m474ae54421" y="231.053456"/>
     <use style="fill:#1f77b4;fill-opacity:0.8;stroke:#1f77b4;stroke-opacity:0.8;" x="282.294642" xlink:href="#m474ae54421" y="166.252993"/>
     <use style="fill:#1f77b4;fill-opacity:0.8;stroke:#1f77b4;stroke-opacity:0.8;" x="139.402978" xlink:href="#m474ae54421" y="241.252754"/>
     <use style="fill:#1f77b4;fill-opacity:0.8;stroke:#1f77b4;stroke-opacity:0.8;" x="244.296827" xlink:href="#m474ae54421" y="130.148651"/>
     <use style="fill:#1f77b4;fill-opacity:0.8;stroke:#1f77b4;stroke-opacity:0.8;" x="98.587505" xlink:href="#m474ae54421" y="248.907309"/>
    </g>
   </g>
   <g id="PolyCollection_1">
    <path clip-path="url(#pddbe6b93ec)" d="M 61.307766 267.052083 
L 61.307766 279.849993 
L 64.046498 277.90301 
L 66.78523 275.898408 
L 69.523962 273.830944 
L 72.262694 271.76318 
L 75.001426 269.692013 
L 77.740158 267.682575 
L 80.47889 265.706121 
L 83.217622 263.729231 
L 85.956354 261.707472 
L 88.695086 259.751078 
L 91.433818 257.818357 
L 94.17255 255.842697 
L 96.911282 253.866175 
L 99.650014 251.868504 
L 102.388746 249.915778 
L 105.127478 247.998069 
L 107.86621 246.008588 
L 110.604942 243.99201 
L 113.343674 242.095294 
L 116.082406 240.107168 
L 118.821138 238.155603 
L 121.55987 236.213919 
L 124.298602 234.332651 
L 127.037334 232.414548 
L 129.776066 230.540183 
L 132.514798 228.661274 
L 135.25353 226.792159 
L 137.992262 224.887832 
L 140.730994 223.023521 
L 143.469726 221.082824 
L 146.208458 219.248659 
L 148.94719 217.412744 
L 151.685922 215.600375 
L 154.424654 213.731599 
L 157.163386 211.839085 
L 159.902118 210.021558 
L 162.64085 208.164912 
L 165.379582 206.336986 
L 168.118314 204.580274 
L 170.857046 202.855931 
L 173.595778 201.091142 
L 176.33451 199.350048 
L 179.073242 197.604751 
L 181.811974 195.862659 
L 184.550706 194.018576 
L 187.289438 192.287008 
L 190.02817 190.605137 
L 192.766902 188.860375 
L 195.505634 187.224823 
L 198.244366 185.532853 
L 200.983098 183.748888 
L 203.72183 181.989523 
L 206.460562 180.285268 
L 209.199294 178.613219 
L 211.938026 176.923784 
L 214.676758 175.207526 
L 217.41549 173.499795 
L 220.154222 171.774529 
L 222.892954 170.049263 
L 225.631686 168.463533 
L 228.370418 166.807246 
L 231.10915 165.082636 
L 233.847882 163.325638 
L 236.586614 161.633281 
L 239.325346 159.950166 
L 242.064078 158.235943 
L 244.80281 156.52285 
L 247.541542 154.809758 
L 250.280274 153.096665 
L 253.019006 151.38138 
L 255.757738 149.666068 
L 258.49647 147.950756 
L 261.235202 146.211275 
L 263.973934 144.52218 
L 266.712666 142.881384 
L 269.451398 141.229748 
L 272.19013 139.578112 
L 274.928862 137.926475 
L 277.667594 136.274839 
L 280.406326 134.622071 
L 283.145058 132.968003 
L 285.88379 131.315138 
L 288.622522 129.618873 
L 291.361254 127.918952 
L 294.099986 126.275769 
L 296.838718 124.632585 
L 299.57745 122.989402 
L 302.316182 121.34611 
L 305.054914 119.663923 
L 307.793646 117.932512 
L 310.532378 116.267278 
L 313.27111 114.636596 
L 316.009842 113.005914 
L 318.748574 111.375228 
L 321.487306 109.743954 
L 324.226038 108.11259 
L 326.96477 106.479974 
L 329.703502 104.803104 
L 332.442234 103.114487 
L 332.442234 76.589388 
L 332.442234 76.589388 
L 329.703502 78.647861 
L 326.96477 80.707151 
L 324.226038 82.755901 
L 321.487306 84.797083 
L 318.748574 86.838265 
L 316.009842 88.879447 
L 313.27111 90.920629 
L 310.532378 92.962024 
L 307.793646 94.965458 
L 305.054914 97.016156 
L 302.316182 99.066854 
L 299.57745 101.117552 
L 296.838718 103.167722 
L 294.099986 105.208904 
L 291.361254 107.249455 
L 288.622522 109.28972 
L 285.88379 111.296924 
L 283.145058 113.301896 
L 280.406326 115.341086 
L 277.667594 117.381506 
L 274.928862 119.431651 
L 272.19013 121.502026 
L 269.451398 123.571576 
L 266.712666 125.56623 
L 263.973934 127.579473 
L 261.235202 129.621986 
L 258.49647 131.659429 
L 255.757738 133.660558 
L 253.019006 135.631669 
L 250.280274 137.611981 
L 247.541542 139.596282 
L 244.80281 141.580583 
L 242.064078 143.586164 
L 239.325346 145.587978 
L 236.586614 147.575508 
L 233.847882 149.562218 
L 231.10915 151.548928 
L 228.370418 153.535638 
L 225.631686 155.522349 
L 222.892954 157.509059 
L 220.154222 159.495769 
L 217.41549 161.482479 
L 214.676758 163.46919 
L 211.938026 165.409449 
L 209.199294 167.391346 
L 206.460562 169.442828 
L 203.72183 171.424221 
L 200.983098 173.461398 
L 198.244366 175.426482 
L 195.505634 177.390748 
L 192.766902 179.364677 
L 190.02817 181.350934 
L 187.289438 183.325749 
L 184.550706 185.317279 
L 181.811974 187.215552 
L 179.073242 189.191396 
L 176.33451 191.194973 
L 173.595778 193.232082 
L 170.857046 195.221347 
L 168.118314 197.219547 
L 165.379582 199.155505 
L 162.64085 201.075675 
L 159.902118 202.921385 
L 157.163386 204.893907 
L 154.424654 206.815987 
L 151.685922 208.748156 
L 148.94719 210.634446 
L 146.208458 212.498561 
L 143.469726 214.433538 
L 140.730994 216.317472 
L 137.992262 218.204278 
L 135.25353 220.001694 
L 132.514798 221.662111 
L 129.776066 223.443543 
L 127.037334 225.356903 
L 124.298602 227.108899 
L 121.55987 228.758767 
L 118.821138 230.525427 
L 116.082406 232.325775 
L 113.343674 234.124588 
L 110.604942 235.923492 
L 107.86621 237.757642 
L 105.127478 239.481663 
L 102.388746 241.23617 
L 99.650014 242.922546 
L 96.911282 244.613621 
L 94.17255 246.395301 
L 91.433818 248.136674 
L 88.695086 249.920104 
L 85.956354 251.647535 
L 83.217622 253.339999 
L 80.47889 255.026734 
L 77.740158 256.73518 
L 75.001426 258.455166 
L 72.262694 260.19648 
L 69.523962 261.946999 
L 66.78523 263.615303 
L 64.046498 265.333693 
L 61.307766 267.052083 
z
" style="fill:#1f77b4;fill-opacity:0.15;"/>
   </g>
   <g id="matplotlib.axis_1">
    <g id="xtick_1">
     <g id="line2d_1">
      <defs>
       <path d="M 0 0 
L 0 3.5 
" id="m0bbbe77f0e" style="stroke:#000000;stroke-width:0.8;"/>
      </defs>
      <g>
       <use style="stroke:#000000;stroke-width:0.8;" x="89.51183" xlink:href="#m0bbbe77f0e" y="317.79375"/>
      </g>
     </g>
     <g id="text_1">
      <!-- 20 -->
      <defs>
       <path d="M 19.1875 8.296875 
L 53.609375 8.296875 
L 53.609375 0 
L 7.328125 0 
L 7.328125 8.296875 
Q 12.9375 14.109375 22.625 23.890625 
Q 32.328125 33.6875 34.8125 36.53125 
Q 39.546875 41.84375 41.421875 45.53125 
Q 43.3125 49.21875 43.3125 52.78125 
Q 43.3125 58.59375 39.234375 62.25 
Q 35.15625 65.921875 28.609375 65.921875 
Q 23.96875 65.921875 18.8125 64.3125 
Q 13.671875 62.703125 7.8125 59.421875 
L 7.8125 69.390625 
Q 13.765625 71.78125 18.9375 73 
Q 24.125 74.21875 28.421875 74.21875 
Q 39.75 74.21875 46.484375 68.546875 
Q 53.21875 62.890625 53.21875 53.421875 
Q 53.21875 48.921875 51.53125 44.890625 
Q 49.859375 40.875 45.40625 35.40625 
Q 44.1875 33.984375 37.640625 27.21875 
Q 31.109375 20.453125 19.1875 8.296875 
z
" id="DejaVuSans-50"/>
       <path d="M 31.78125 66.40625 
Q 24.171875 66.40625 20.328125 58.90625 
Q 16.5 51.421875 16.5 36.375 
Q 16.5 21.390625 20.328125 13.890625 
Q 24.171875 6.390625 31.78125 6.390625 
Q 39.453125 6.390625 43.28125 13.890625 
Q 47.125 21.390625 47.125 36.375 
Q 47.125 51.421875 43.28125 58.90625 
Q 39.453125 66.40625 31.78125 66.40625 
z
M 31.78125 74.21875 
Q 44.046875 74.21875 50.515625 64.515625 
Q 56.984375 54.828125 56.984375 36.375 
Q 56.984375 17.96875 50.515625 8.265625 
Q 44.046875 -1.421875 31.78125 -1.421875 
Q 19.53125 -1.421875 13.0625 8.265625 
Q 6.59375 17.96875 6.59375 36.375 
Q 6.59375 54.828125 13.0625 64.515625 
Q 19.53125 74.21875 31.78125 74.21875 
z
" id="DejaVuSans-48"/>
      </defs>
      <g transform="translate(83.14933 332.392187)scale(0.1 -0.1)">
       <use xlink:href="#DejaVuSans-50"/>
       <use x="63.623047" xlink:href="#DejaVuSans-48"/>
      </g>
     </g>
    </g>
    <g id="xtick_2">
     <g id="line2d_2">
      <g>
       <use style="stroke:#000000;stroke-width:0.8;" x="143.549437" xlink:href="#m0bbbe77f0e" y="317.79375"/>
      </g>
     </g>
     <g id="text_2">
      <!-- 30 -->
      <defs>
       <path d="M 40.578125 39.3125 
Q 47.65625 37.796875 51.625 33 
Q 55.609375 28.21875 55.609375 21.1875 
Q 55.609375 10.40625 48.1875 4.484375 
Q 40.765625 -1.421875 27.09375 -1.421875 
Q 22.515625 -1.421875 17.65625 -0.515625 
Q 12.796875 0.390625 7.625 2.203125 
L 7.625 11.71875 
Q 11.71875 9.328125 16.59375 8.109375 
Q 21.484375 6.890625 26.8125 6.890625 
Q 36.078125 6.890625 40.9375 10.546875 
Q 45.796875 14.203125 45.796875 21.1875 
Q 45.796875 27.640625 41.28125 31.265625 
Q 36.765625 34.90625 28.71875 34.90625 
L 20.21875 34.90625 
L 20.21875 43.015625 
L 29.109375 43.015625 
Q 36.375 43.015625 40.234375 45.921875 
Q 44.09375 48.828125 44.09375 54.296875 
Q 44.09375 59.90625 40.109375 62.90625 
Q 36.140625 65.921875 28.71875 65.921875 
Q 24.65625 65.921875 20.015625 65.03125 
Q 15.375 64.15625 9.8125 62.3125 
L 9.8125 71.09375 
Q 15.4375 72.65625 20.34375 73.4375 
Q 25.25 74.21875 29.59375 74.21875 
Q 40.828125 74.21875 47.359375 69.109375 
Q 53.90625 64.015625 53.90625 55.328125 
Q 53.90625 49.265625 50.4375 45.09375 
Q 46.96875 40.921875 40.578125 39.3125 
z
" id="DejaVuSans-51"/>
      </defs>
      <g transform="translate(137.186937 332.392187)scale(0.1 -0.1)">
       <use xlink:href="#DejaVuSans-51"/>
       <use x="63.623047" xlink:href="#DejaVuSans-48"/>
      </g>
     </g>
    </g>
    <g id="xtick_3">
     <g id="line2d_3">
      <g>
       <use style="stroke:#000000;stroke-width:0.8;" x="197.587043" xlink:href="#m0bbbe77f0e" y="317.79375"/>
      </g>
     </g>
     <g id="text_3">
      <!-- 40 -->
      <defs>
       <path d="M 37.796875 64.3125 
L 12.890625 25.390625 
L 37.796875 25.390625 
z
M 35.203125 72.90625 
L 47.609375 72.90625 
L 47.609375 25.390625 
L 58.015625 25.390625 
L 58.015625 17.1875 
L 47.609375 17.1875 
L 47.609375 0 
L 37.796875 0 
L 37.796875 17.1875 
L 4.890625 17.1875 
L 4.890625 26.703125 
z
" id="DejaVuSans-52"/>
      </defs>
      <g transform="translate(191.224543 332.392187)scale(0.1 -0.1)">
       <use xlink:href="#DejaVuSans-52"/>
       <use x="63.623047" xlink:href="#DejaVuSans-48"/>
      </g>
     </g>
    </g>
    <g id="xtick_4">
     <g id="line2d_4">
      <g>
       <use style="stroke:#000000;stroke-width:0.8;" x="251.62465" xlink:href="#m0bbbe77f0e" y="317.79375"/>
      </g>
     </g>
     <g id="text_4">
      <!-- 50 -->
      <defs>
       <path d="M 10.796875 72.90625 
L 49.515625 72.90625 
L 49.515625 64.59375 
L 19.828125 64.59375 
L 19.828125 46.734375 
Q 21.96875 47.46875 24.109375 47.828125 
Q 26.265625 48.1875 28.421875 48.1875 
Q 40.625 48.1875 47.75 41.5 
Q 54.890625 34.8125 54.890625 23.390625 
Q 54.890625 11.625 47.5625 5.09375 
Q 40.234375 -1.421875 26.90625 -1.421875 
Q 22.3125 -1.421875 17.546875 -0.640625 
Q 12.796875 0.140625 7.71875 1.703125 
L 7.71875 11.625 
Q 12.109375 9.234375 16.796875 8.0625 
Q 21.484375 6.890625 26.703125 6.890625 
Q 35.15625 6.890625 40.078125 11.328125 
Q 45.015625 15.765625 45.015625 23.390625 
Q 45.015625 31 40.078125 35.4375 
Q 35.15625 39.890625 26.703125 39.890625 
Q 22.75 39.890625 18.8125 39.015625 
Q 14.890625 38.140625 10.796875 36.28125 
z
" id="DejaVuSans-53"/>
      </defs>
      <g transform="translate(245.26215 332.392187)scale(0.1 -0.1)">
       <use xlink:href="#DejaVuSans-53"/>
       <use x="63.623047" xlink:href="#DejaVuSans-48"/>
      </g>
     </g>
    </g>
    <g id="xtick_5">
     <g id="line2d_5">
      <g>
       <use style="stroke:#000000;stroke-width:0.8;" x="305.662257" xlink:href="#m0bbbe77f0e" y="317.79375"/>
      </g>
     </g>
     <g id="text_5">
      <!-- 60 -->
      <defs>
       <path d="M 33.015625 40.375 
Q 26.375 40.375 22.484375 35.828125 
Q 18.609375 31.296875 18.609375 23.390625 
Q 18.609375 15.53125 22.484375 10.953125 
Q 26.375 6.390625 33.015625 6.390625 
Q 39.65625 6.390625 43.53125 10.953125 
Q 47.40625 15.53125 47.40625 23.390625 
Q 47.40625 31.296875 43.53125 35.828125 
Q 39.65625 40.375 33.015625 40.375 
z
M 52.59375 71.296875 
L 52.59375 62.3125 
Q 48.875 64.0625 45.09375 64.984375 
Q 41.3125 65.921875 37.59375 65.921875 
Q 27.828125 65.921875 22.671875 59.328125 
Q 17.53125 52.734375 16.796875 39.40625 
Q 19.671875 43.65625 24.015625 45.921875 
Q 28.375 48.1875 33.59375 48.1875 
Q 44.578125 48.1875 50.953125 41.515625 
Q 57.328125 34.859375 57.328125 23.390625 
Q 57.328125 12.15625 50.6875 5.359375 
Q 44.046875 -1.421875 33.015625 -1.421875 
Q 20.359375 -1.421875 13.671875 8.265625 
Q 6.984375 17.96875 6.984375 36.375 
Q 6.984375 53.65625 15.1875 63.9375 
Q 23.390625 74.21875 37.203125 74.21875 
Q 40.921875 74.21875 44.703125 73.484375 
Q 48.484375 72.75 52.59375 71.296875 
z
" id="DejaVuSans-54"/>
      </defs>
      <g transform="translate(299.299757 332.392187)scale(0.1 -0.1)">
       <use xlink:href="#DejaVuSans-54"/>
       <use x="63.623047" xlink:href="#DejaVuSans-48"/>
      </g>
     </g>
    </g>
    <g id="text_6">
     <!-- True Mean Velocity (degrees/s) -->
     <defs>
      <path d="M -0.296875 72.90625 
L 61.375 72.90625 
L 61.375 64.59375 
L 35.5 64.59375 
L 35.5 0 
L 25.59375 0 
L 25.59375 64.59375 
L -0.296875 64.59375 
z
" id="DejaVuSans-84"/>
      <path d="M 41.109375 46.296875 
Q 39.59375 47.171875 37.8125 47.578125 
Q 36.03125 48 33.890625 48 
Q 26.265625 48 22.1875 43.046875 
Q 18.109375 38.09375 18.109375 28.8125 
L 18.109375 0 
L 9.078125 0 
L 9.078125 54.6875 
L 18.109375 54.6875 
L 18.109375 46.1875 
Q 20.953125 51.171875 25.484375 53.578125 
Q 30.03125 56 36.53125 56 
Q 37.453125 56 38.578125 55.875 
Q 39.703125 55.765625 41.0625 55.515625 
z
" id="DejaVuSans-114"/>
      <path d="M 8.5 21.578125 
L 8.5 54.6875 
L 17.484375 54.6875 
L 17.484375 21.921875 
Q 17.484375 14.15625 20.5 10.265625 
Q 23.53125 6.390625 29.59375 6.390625 
Q 36.859375 6.390625 41.078125 11.03125 
Q 45.3125 15.671875 45.3125 23.6875 
L 45.3125 54.6875 
L 54.296875 54.6875 
L 54.296875 0 
L 45.3125 0 
L 45.3125 8.40625 
Q 42.046875 3.421875 37.71875 1 
Q 33.40625 -1.421875 27.6875 -1.421875 
Q 18.265625 -1.421875 13.375 4.4375 
Q 8.5 10.296875 8.5 21.578125 
z
M 31.109375 56 
z
" id="DejaVuSans-117"/>
      <path d="M 56.203125 29.59375 
L 56.203125 25.203125 
L 14.890625 25.203125 
Q 15.484375 15.921875 20.484375 11.0625 
Q 25.484375 6.203125 34.421875 6.203125 
Q 39.59375 6.203125 44.453125 7.46875 
Q 49.3125 8.734375 54.109375 11.28125 
L 54.109375 2.78125 
Q 49.265625 0.734375 44.1875 -0.34375 
Q 39.109375 -1.421875 33.890625 -1.421875 
Q 20.796875 -1.421875 13.15625 6.1875 
Q 5.515625 13.8125 5.515625 26.8125 
Q 5.515625 40.234375 12.765625 48.109375 
Q 20.015625 56 32.328125 56 
Q 43.359375 56 49.78125 48.890625 
Q 56.203125 41.796875 56.203125 29.59375 
z
M 47.21875 32.234375 
Q 47.125 39.59375 43.09375 43.984375 
Q 39.0625 48.390625 32.421875 48.390625 
Q 24.90625 48.390625 20.390625 44.140625 
Q 15.875 39.890625 15.1875 32.171875 
z
" id="DejaVuSans-101"/>
      <path id="DejaVuSans-32"/>
      <path d="M 9.8125 72.90625 
L 24.515625 72.90625 
L 43.109375 23.296875 
L 61.8125 72.90625 
L 76.515625 72.90625 
L 76.515625 0 
L 66.890625 0 
L 66.890625 64.015625 
L 48.09375 14.015625 
L 38.1875 14.015625 
L 19.390625 64.015625 
L 19.390625 0 
L 9.8125 0 
z
" id="DejaVuSans-77"/>
      <path d="M 34.28125 27.484375 
Q 23.390625 27.484375 19.1875 25 
Q 14.984375 22.515625 14.984375 16.5 
Q 14.984375 11.71875 18.140625 8.90625 
Q 21.296875 6.109375 26.703125 6.109375 
Q 34.1875 6.109375 38.703125 11.40625 
Q 43.21875 16.703125 43.21875 25.484375 
L 43.21875 27.484375 
z
M 52.203125 31.203125 
L 52.203125 0 
L 43.21875 0 
L 43.21875 8.296875 
Q 40.140625 3.328125 35.546875 0.953125 
Q 30.953125 -1.421875 24.3125 -1.421875 
Q 15.921875 -1.421875 10.953125 3.296875 
Q 6 8.015625 6 15.921875 
Q 6 25.140625 12.171875 29.828125 
Q 18.359375 34.515625 30.609375 34.515625 
L 43.21875 34.515625 
L 43.21875 35.40625 
Q 43.21875 41.609375 39.140625 45 
Q 35.0625 48.390625 27.6875 48.390625 
Q 23 48.390625 18.546875 47.265625 
Q 14.109375 46.140625 10.015625 43.890625 
L 10.015625 52.203125 
Q 14.9375 54.109375 19.578125 55.046875 
Q 24.21875 56 28.609375 56 
Q 40.484375 56 46.34375 49.84375 
Q 52.203125 43.703125 52.203125 31.203125 
z
" id="DejaVuSans-97"/>
      <path d="M 54.890625 33.015625 
L 54.890625 0 
L 45.90625 0 
L 45.90625 32.71875 
Q 45.90625 40.484375 42.875 44.328125 
Q 39.84375 48.1875 33.796875 48.1875 
Q 26.515625 48.1875 22.3125 43.546875 
Q 18.109375 38.921875 18.109375 30.90625 
L 18.109375 0 
L 9.078125 0 
L 9.078125 54.6875 
L 18.109375 54.6875 
L 18.109375 46.1875 
Q 21.34375 51.125 25.703125 53.5625 
Q 30.078125 56 35.796875 56 
Q 45.21875 56 50.046875 50.171875 
Q 54.890625 44.34375 54.890625 33.015625 
z
" id="DejaVuSans-110"/>
      <path d="M 28.609375 0 
L 0.78125 72.90625 
L 11.078125 72.90625 
L 34.1875 11.53125 
L 57.328125 72.90625 
L 67.578125 72.90625 
L 39.796875 0 
z
" id="DejaVuSans-86"/>
      <path d="M 9.421875 75.984375 
L 18.40625 75.984375 
L 18.40625 0 
L 9.421875 0 
z
" id="DejaVuSans-108"/>
      <path d="M 30.609375 48.390625 
Q 23.390625 48.390625 19.1875 42.75 
Q 14.984375 37.109375 14.984375 27.296875 
Q 14.984375 17.484375 19.15625 11.84375 
Q 23.34375 6.203125 30.609375 6.203125 
Q 37.796875 6.203125 41.984375 11.859375 
Q 46.1875 17.53125 46.1875 27.296875 
Q 46.1875 37.015625 41.984375 42.703125 
Q 37.796875 48.390625 30.609375 48.390625 
z
M 30.609375 56 
Q 42.328125 56 49.015625 48.375 
Q 55.71875 40.765625 55.71875 27.296875 
Q 55.71875 13.875 49.015625 6.21875 
Q 42.328125 -1.421875 30.609375 -1.421875 
Q 18.84375 -1.421875 12.171875 6.21875 
Q 5.515625 13.875 5.515625 27.296875 
Q 5.515625 40.765625 12.171875 48.375 
Q 18.84375 56 30.609375 56 
z
" id="DejaVuSans-111"/>
      <path d="M 48.78125 52.59375 
L 48.78125 44.1875 
Q 44.96875 46.296875 41.140625 47.34375 
Q 37.3125 48.390625 33.40625 48.390625 
Q 24.65625 48.390625 19.8125 42.84375 
Q 14.984375 37.3125 14.984375 27.296875 
Q 14.984375 17.28125 19.8125 11.734375 
Q 24.65625 6.203125 33.40625 6.203125 
Q 37.3125 6.203125 41.140625 7.25 
Q 44.96875 8.296875 48.78125 10.40625 
L 48.78125 2.09375 
Q 45.015625 0.34375 40.984375 -0.53125 
Q 36.96875 -1.421875 32.421875 -1.421875 
Q 20.0625 -1.421875 12.78125 6.34375 
Q 5.515625 14.109375 5.515625 27.296875 
Q 5.515625 40.671875 12.859375 48.328125 
Q 20.21875 56 33.015625 56 
Q 37.15625 56 41.109375 55.140625 
Q 45.0625 54.296875 48.78125 52.59375 
z
" id="DejaVuSans-99"/>
      <path d="M 9.421875 54.6875 
L 18.40625 54.6875 
L 18.40625 0 
L 9.421875 0 
z
M 9.421875 75.984375 
L 18.40625 75.984375 
L 18.40625 64.59375 
L 9.421875 64.59375 
z
" id="DejaVuSans-105"/>
      <path d="M 18.3125 70.21875 
L 18.3125 54.6875 
L 36.8125 54.6875 
L 36.8125 47.703125 
L 18.3125 47.703125 
L 18.3125 18.015625 
Q 18.3125 11.328125 20.140625 9.421875 
Q 21.96875 7.515625 27.59375 7.515625 
L 36.8125 7.515625 
L 36.8125 0 
L 27.59375 0 
Q 17.1875 0 13.234375 3.875 
Q 9.28125 7.765625 9.28125 18.015625 
L 9.28125 47.703125 
L 2.6875 47.703125 
L 2.6875 54.6875 
L 9.28125 54.6875 
L 9.28125 70.21875 
z
" id="DejaVuSans-116"/>
      <path d="M 32.171875 -5.078125 
Q 28.375 -14.84375 24.75 -17.8125 
Q 21.140625 -20.796875 15.09375 -20.796875 
L 7.90625 -20.796875 
L 7.90625 -13.28125 
L 13.1875 -13.28125 
Q 16.890625 -13.28125 18.9375 -11.515625 
Q 21 -9.765625 23.484375 -3.21875 
L 25.09375 0.875 
L 2.984375 54.6875 
L 12.5 54.6875 
L 29.59375 11.921875 
L 46.6875 54.6875 
L 56.203125 54.6875 
z
" id="DejaVuSans-121"/>
      <path d="M 31 75.875 
Q 24.46875 64.65625 21.28125 53.65625 
Q 18.109375 42.671875 18.109375 31.390625 
Q 18.109375 20.125 21.3125 9.0625 
Q 24.515625 -2 31 -13.1875 
L 23.1875 -13.1875 
Q 15.875 -1.703125 12.234375 9.375 
Q 8.59375 20.453125 8.59375 31.390625 
Q 8.59375 42.28125 12.203125 53.3125 
Q 15.828125 64.359375 23.1875 75.875 
z
" id="DejaVuSans-40"/>
      <path d="M 45.40625 46.390625 
L 45.40625 75.984375 
L 54.390625 75.984375 
L 54.390625 0 
L 45.40625 0 
L 45.40625 8.203125 
Q 42.578125 3.328125 38.25 0.953125 
Q 33.9375 -1.421875 27.875 -1.421875 
Q 17.96875 -1.421875 11.734375 6.484375 
Q 5.515625 14.40625 5.515625 27.296875 
Q 5.515625 40.1875 11.734375 48.09375 
Q 17.96875 56 27.875 56 
Q 33.9375 56 38.25 53.625 
Q 42.578125 51.265625 45.40625 46.390625 
z
M 14.796875 27.296875 
Q 14.796875 17.390625 18.875 11.75 
Q 22.953125 6.109375 30.078125 6.109375 
Q 37.203125 6.109375 41.296875 11.75 
Q 45.40625 17.390625 45.40625 27.296875 
Q 45.40625 37.203125 41.296875 42.84375 
Q 37.203125 48.484375 30.078125 48.484375 
Q 22.953125 48.484375 18.875 42.84375 
Q 14.796875 37.203125 14.796875 27.296875 
z
" id="DejaVuSans-100"/>
      <path d="M 45.40625 27.984375 
Q 45.40625 37.75 41.375 43.109375 
Q 37.359375 48.484375 30.078125 48.484375 
Q 22.859375 48.484375 18.828125 43.109375 
Q 14.796875 37.75 14.796875 27.984375 
Q 14.796875 18.265625 18.828125 12.890625 
Q 22.859375 7.515625 30.078125 7.515625 
Q 37.359375 7.515625 41.375 12.890625 
Q 45.40625 18.265625 45.40625 27.984375 
z
M 54.390625 6.78125 
Q 54.390625 -7.171875 48.1875 -13.984375 
Q 42 -20.796875 29.203125 -20.796875 
Q 24.46875 -20.796875 20.265625 -20.09375 
Q 16.0625 -19.390625 12.109375 -17.921875 
L 12.109375 -9.1875 
Q 16.0625 -11.328125 19.921875 -12.34375 
Q 23.78125 -13.375 27.78125 -13.375 
Q 36.625 -13.375 41.015625 -8.765625 
Q 45.40625 -4.15625 45.40625 5.171875 
L 45.40625 9.625 
Q 42.625 4.78125 38.28125 2.390625 
Q 33.9375 0 27.875 0 
Q 17.828125 0 11.671875 7.65625 
Q 5.515625 15.328125 5.515625 27.984375 
Q 5.515625 40.671875 11.671875 48.328125 
Q 17.828125 56 27.875 56 
Q 33.9375 56 38.28125 53.609375 
Q 42.625 51.21875 45.40625 46.390625 
L 45.40625 54.6875 
L 54.390625 54.6875 
z
" id="DejaVuSans-103"/>
      <path d="M 44.28125 53.078125 
L 44.28125 44.578125 
Q 40.484375 46.53125 36.375 47.5 
Q 32.28125 48.484375 27.875 48.484375 
Q 21.1875 48.484375 17.84375 46.4375 
Q 14.5 44.390625 14.5 40.28125 
Q 14.5 37.15625 16.890625 35.375 
Q 19.28125 33.59375 26.515625 31.984375 
L 29.59375 31.296875 
Q 39.15625 29.25 43.1875 25.515625 
Q 47.21875 21.78125 47.21875 15.09375 
Q 47.21875 7.46875 41.1875 3.015625 
Q 35.15625 -1.421875 24.609375 -1.421875 
Q 20.21875 -1.421875 15.453125 -0.5625 
Q 10.6875 0.296875 5.421875 2 
L 5.421875 11.28125 
Q 10.40625 8.6875 15.234375 7.390625 
Q 20.0625 6.109375 24.8125 6.109375 
Q 31.15625 6.109375 34.5625 8.28125 
Q 37.984375 10.453125 37.984375 14.40625 
Q 37.984375 18.0625 35.515625 20.015625 
Q 33.0625 21.96875 24.703125 23.78125 
L 21.578125 24.515625 
Q 13.234375 26.265625 9.515625 29.90625 
Q 5.8125 33.546875 5.8125 39.890625 
Q 5.8125 47.609375 11.28125 51.796875 
Q 16.75 56 26.8125 56 
Q 31.78125 56 36.171875 55.265625 
Q 40.578125 54.546875 44.28125 53.078125 
z
" id="DejaVuSans-115"/>
      <path d="M 25.390625 72.90625 
L 33.6875 72.90625 
L 8.296875 -9.28125 
L 0 -9.28125 
z
" id="DejaVuSans-47"/>
      <path d="M 8.015625 75.875 
L 15.828125 75.875 
Q 23.140625 64.359375 26.78125 53.3125 
Q 30.421875 42.28125 30.421875 31.390625 
Q 30.421875 20.453125 26.78125 9.375 
Q 23.140625 -1.703125 15.828125 -13.1875 
L 8.015625 -13.1875 
Q 14.5 -2 17.703125 9.0625 
Q 20.90625 20.125 20.90625 31.390625 
Q 20.90625 42.671875 17.703125 53.65625 
Q 14.5 64.65625 8.015625 75.875 
z
" id="DejaVuSans-41"/>
     </defs>
     <g transform="translate(118.715625 346.070312)scale(0.1 -0.1)">
      <use xlink:href="#DejaVuSans-84"/>
      <use x="60.865234" xlink:href="#DejaVuSans-114"/>
      <use x="101.978516" xlink:href="#DejaVuSans-117"/>
      <use x="165.357422" xlink:href="#DejaVuSans-101"/>
      <use x="226.880859" xlink:href="#DejaVuSans-32"/>
      <use x="258.667969" xlink:href="#DejaVuSans-77"/>
      <use x="344.947266" xlink:href="#DejaVuSans-101"/>
      <use x="406.470703" xlink:href="#DejaVuSans-97"/>
      <use x="467.75" xlink:href="#DejaVuSans-110"/>
      <use x="531.128906" xlink:href="#DejaVuSans-32"/>
      <use x="562.916016" xlink:href="#DejaVuSans-86"/>
      <use x="631.214844" xlink:href="#DejaVuSans-101"/>
      <use x="692.738281" xlink:href="#DejaVuSans-108"/>
      <use x="720.521484" xlink:href="#DejaVuSans-111"/>
      <use x="781.703125" xlink:href="#DejaVuSans-99"/>
      <use x="836.683594" xlink:href="#DejaVuSans-105"/>
      <use x="864.466797" xlink:href="#DejaVuSans-116"/>
      <use x="903.675781" xlink:href="#DejaVuSans-121"/>
      <use x="962.855469" xlink:href="#DejaVuSans-32"/>
      <use x="994.642578" xlink:href="#DejaVuSans-40"/>
      <use x="1033.65625" xlink:href="#DejaVuSans-100"/>
      <use x="1097.132812" xlink:href="#DejaVuSans-101"/>
      <use x="1158.65625" xlink:href="#DejaVuSans-103"/>
      <use x="1222.132812" xlink:href="#DejaVuSans-114"/>
      <use x="1263.214844" xlink:href="#DejaVuSans-101"/>
      <use x="1324.738281" xlink:href="#DejaVuSans-101"/>
      <use x="1386.261719" xlink:href="#DejaVuSans-115"/>
      <use x="1438.361328" xlink:href="#DejaVuSans-47"/>
      <use x="1472.052734" xlink:href="#DejaVuSans-115"/>
      <use x="1524.152344" xlink:href="#DejaVuSans-41"/>
     </g>
    </g>
   </g>
   <g id="matplotlib.axis_2">
    <g id="ytick_1">
     <g id="line2d_6">
      <defs>
       <path d="M 0 0 
L -3.5 0 
" id="m2a97e33209" style="stroke:#000000;stroke-width:0.8;"/>
      </defs>
      <g>
       <use style="stroke:#000000;stroke-width:0.8;" x="44.55" xlink:href="#m2a97e33209" y="274.808368"/>
      </g>
     </g>
     <g id="text_7">
      <!-- 20 -->
      <g transform="translate(24.825 278.607586)scale(0.1 -0.1)">
       <use xlink:href="#DejaVuSans-50"/>
       <use x="63.623047" xlink:href="#DejaVuSans-48"/>
      </g>
     </g>
    </g>
    <g id="ytick_2">
     <g id="line2d_7">
      <g>
       <use style="stroke:#000000;stroke-width:0.8;" x="44.55" xlink:href="#m2a97e33209" y="219.18616"/>
      </g>
     </g>
     <g id="text_8">
      <!-- 30 -->
      <g transform="translate(24.825 222.985378)scale(0.1 -0.1)">
       <use xlink:href="#DejaVuSans-51"/>
       <use x="63.623047" xlink:href="#DejaVuSans-48"/>
      </g>
     </g>
    </g>
    <g id="ytick_3">
     <g id="line2d_8">
      <g>
       <use style="stroke:#000000;stroke-width:0.8;" x="44.55" xlink:href="#m2a97e33209" y="163.563952"/>
      </g>
     </g>
     <g id="text_9">
      <!-- 40 -->
      <g transform="translate(24.825 167.363171)scale(0.1 -0.1)">
       <use xlink:href="#DejaVuSans-52"/>
       <use x="63.623047" xlink:href="#DejaVuSans-48"/>
      </g>
     </g>
    </g>
    <g id="ytick_4">
     <g id="line2d_9">
      <g>
       <use style="stroke:#000000;stroke-width:0.8;" x="44.55" xlink:href="#m2a97e33209" y="107.941744"/>
      </g>
     </g>
     <g id="text_10">
      <!-- 50 -->
      <g transform="translate(24.825 111.740963)scale(0.1 -0.1)">
       <use xlink:href="#DejaVuSans-53"/>
       <use x="63.623047" xlink:href="#DejaVuSans-48"/>
      </g>
     </g>
    </g>
    <g id="ytick_5">
     <g id="line2d_10">
      <g>
       <use style="stroke:#000000;stroke-width:0.8;" x="44.55" xlink:href="#m2a97e33209" y="52.319536"/>
      </g>
     </g>
     <g id="text_11">
      <!-- 60 -->
      <g transform="translate(24.825 56.118755)scale(0.1 -0.1)">
       <use xlink:href="#DejaVuSans-54"/>
       <use x="63.623047" xlink:href="#DejaVuSans-48"/>
      </g>
     </g>
    </g>
    <g id="text_12">
     <!-- Predicted Mean Velocity (degrees/s) -->
     <defs>
      <path d="M 19.671875 64.796875 
L 19.671875 37.40625 
L 32.078125 37.40625 
Q 38.96875 37.40625 42.71875 40.96875 
Q 46.484375 44.53125 46.484375 51.125 
Q 46.484375 57.671875 42.71875 61.234375 
Q 38.96875 64.796875 32.078125 64.796875 
z
M 9.8125 72.90625 
L 32.078125 72.90625 
Q 44.34375 72.90625 50.609375 67.359375 
Q 56.890625 61.8125 56.890625 51.125 
Q 56.890625 40.328125 50.609375 34.8125 
Q 44.34375 29.296875 32.078125 29.296875 
L 19.671875 29.296875 
L 19.671875 0 
L 9.8125 0 
z
" id="DejaVuSans-80"/>
     </defs>
     <g transform="translate(18.745313 254.780469)rotate(-90)scale(0.1 -0.1)">
      <use xlink:href="#DejaVuSans-80"/>
      <use x="60.287109" xlink:href="#DejaVuSans-114"/>
      <use x="101.369141" xlink:href="#DejaVuSans-101"/>
      <use x="162.892578" xlink:href="#DejaVuSans-100"/>
      <use x="226.369141" xlink:href="#DejaVuSans-105"/>
      <use x="254.152344" xlink:href="#DejaVuSans-99"/>
      <use x="309.132812" xlink:href="#DejaVuSans-116"/>
      <use x="348.341797" xlink:href="#DejaVuSans-101"/>
      <use x="409.865234" xlink:href="#DejaVuSans-100"/>
      <use x="473.341797" xlink:href="#DejaVuSans-32"/>
      <use x="505.128906" xlink:href="#DejaVuSans-77"/>
      <use x="591.408203" xlink:href="#DejaVuSans-101"/>
      <use x="652.931641" xlink:href="#DejaVuSans-97"/>
      <use x="714.210938" xlink:href="#DejaVuSans-110"/>
      <use x="777.589844" xlink:href="#DejaVuSans-32"/>
      <use x="809.376953" xlink:href="#DejaVuSans-86"/>
      <use x="877.675781" xlink:href="#DejaVuSans-101"/>
      <use x="939.199219" xlink:href="#DejaVuSans-108"/>
      <use x="966.982422" xlink:href="#DejaVuSans-111"/>
      <use x="1028.164062" xlink:href="#DejaVuSans-99"/>
      <use x="1083.144531" xlink:href="#DejaVuSans-105"/>
      <use x="1110.927734" xlink:href="#DejaVuSans-116"/>
      <use x="1150.136719" xlink:href="#DejaVuSans-121"/>
      <use x="1209.316406" xlink:href="#DejaVuSans-32"/>
      <use x="1241.103516" xlink:href="#DejaVuSans-40"/>
      <use x="1280.117188" xlink:href="#DejaVuSans-100"/>
      <use x="1343.59375" xlink:href="#DejaVuSans-101"/>
      <use x="1405.117188" xlink:href="#DejaVuSans-103"/>
      <use x="1468.59375" xlink:href="#DejaVuSans-114"/>
      <use x="1509.675781" xlink:href="#DejaVuSans-101"/>
      <use x="1571.199219" xlink:href="#DejaVuSans-101"/>
      <use x="1632.722656" xlink:href="#DejaVuSans-115"/>
      <use x="1684.822266" xlink:href="#DejaVuSans-47"/>
      <use x="1718.513672" xlink:href="#DejaVuSans-115"/>
      <use x="1770.613281" xlink:href="#DejaVuSans-41"/>
     </g>
    </g>
   </g>
   <g id="line2d_11">
    <path clip-path="url(#pddbe6b93ec)" d="M 61.307766 273.433235 
L 64.046498 271.580995 
L 66.78523 269.728756 
L 69.523962 267.876517 
L 72.262694 266.024278 
L 75.001426 264.172039 
L 77.740158 262.3198 
L 80.47889 260.46756 
L 83.217622 258.615321 
L 85.956354 256.763082 
L 88.695086 254.910843 
L 91.433818 253.058604 
L 94.17255 251.206365 
L 96.911282 249.354125 
L 99.650014 247.501886 
L 102.388746 245.649647 
L 105.127478 243.797408 
L 107.86621 241.945169 
L 110.604942 240.09293 
L 113.343674 238.24069 
L 116.082406 236.388451 
L 118.821138 234.536212 
L 121.55987 232.683973 
L 124.298602 230.831734 
L 127.037334 228.979495 
L 129.776066 227.127255 
L 132.514798 225.275016 
L 135.25353 223.422777 
L 137.992262 221.570538 
L 140.730994 219.718299 
L 143.469726 217.86606 
L 146.208458 216.01382 
L 148.94719 214.161581 
L 151.685922 212.309342 
L 154.424654 210.457103 
L 157.163386 208.604864 
L 159.902118 206.752625 
L 162.64085 204.900385 
L 165.379582 203.048146 
L 168.118314 201.195907 
L 170.857046 199.343668 
L 173.595778 197.491429 
L 176.33451 195.63919 
L 179.073242 193.78695 
L 181.811974 191.934711 
L 184.550706 190.082472 
L 187.289438 188.230233 
L 190.02817 186.377994 
L 192.766902 184.525755 
L 195.505634 182.673515 
L 198.244366 180.821276 
L 200.983098 178.969037 
L 203.72183 177.116798 
L 206.460562 175.264559 
L 209.199294 173.41232 
L 211.938026 171.56008 
L 214.676758 169.707841 
L 217.41549 167.855602 
L 220.154222 166.003363 
L 222.892954 164.151124 
L 225.631686 162.298885 
L 228.370418 160.446645 
L 231.10915 158.594406 
L 233.847882 156.742167 
L 236.586614 154.889928 
L 239.325346 153.037689 
L 242.064078 151.18545 
L 244.80281 149.33321 
L 247.541542 147.480971 
L 250.280274 145.628732 
L 253.019006 143.776493 
L 255.757738 141.924254 
L 258.49647 140.072015 
L 261.235202 138.219775 
L 263.973934 136.367536 
L 266.712666 134.515297 
L 269.451398 132.663058 
L 272.19013 130.810819 
L 274.928862 128.95858 
L 277.667594 127.106341 
L 280.406326 125.254101 
L 283.145058 123.401862 
L 285.88379 121.549623 
L 288.622522 119.697384 
L 291.361254 117.845145 
L 294.099986 115.992906 
L 296.838718 114.140666 
L 299.57745 112.288427 
L 302.316182 110.436188 
L 305.054914 108.583949 
L 307.793646 106.73171 
L 310.532378 104.879471 
L 313.27111 103.027231 
L 316.009842 101.174992 
L 318.748574 99.322753 
L 321.487306 97.470514 
L 324.226038 95.618275 
L 326.96477 93.766036 
L 329.703502 91.913796 
L 332.442234 90.061557 
" style="fill:none;stroke:#1f77b4;stroke-linecap:square;stroke-width:2.25;"/>
   </g>
   <g id="line2d_12">
    <path clip-path="url(#pddbe6b93ec)" d="M 61.307766 303.839489 
L 332.442234 24.754261 
" style="fill:none;stroke:#ff0000;stroke-linecap:square;"/>
   </g>
   <g id="patch_3">
    <path d="M 44.55 317.79375 
L 44.55 10.8 
" style="fill:none;stroke:#000000;stroke-linecap:square;stroke-linejoin:miter;stroke-width:0.8;"/>
   </g>
   <g id="patch_4">
    <path d="M 44.55 317.79375 
L 349.2 317.79375 
" style="fill:none;stroke:#000000;stroke-linecap:square;stroke-linejoin:miter;stroke-width:0.8;"/>
   </g>
   <g id="text_13">
    <!-- Mean Velocity Prediction -->
    <g transform="translate(122.674688 4.8)scale(0.12 -0.12)">
     <use xlink:href="#DejaVuSans-77"/>
     <use x="86.279297" xlink:href="#DejaVuSans-101"/>
     <use x="147.802734" xlink:href="#DejaVuSans-97"/>
     <use x="209.082031" xlink:href="#DejaVuSans-110"/>
     <use x="272.460938" xlink:href="#DejaVuSans-32"/>
     <use x="304.248047" xlink:href="#DejaVuSans-86"/>
     <use x="372.546875" xlink:href="#DejaVuSans-101"/>
     <use x="434.070312" xlink:href="#DejaVuSans-108"/>
     <use x="461.853516" xlink:href="#DejaVuSans-111"/>
     <use x="523.035156" xlink:href="#DejaVuSans-99"/>
     <use x="578.015625" xlink:href="#DejaVuSans-105"/>
     <use x="605.798828" xlink:href="#DejaVuSans-116"/>
     <use x="645.007812" xlink:href="#DejaVuSans-121"/>
     <use x="704.1875" xlink:href="#DejaVuSans-32"/>
     <use x="735.974609" xlink:href="#DejaVuSans-80"/>
     <use x="796.261719" xlink:href="#DejaVuSans-114"/>
     <use x="837.34375" xlink:href="#DejaVuSans-101"/>
     <use x="898.867188" xlink:href="#DejaVuSans-100"/>
     <use x="962.34375" xlink:href="#DejaVuSans-105"/>
     <use x="990.126953" xlink:href="#DejaVuSans-99"/>
     <use x="1045.107422" xlink:href="#DejaVuSans-116"/>
     <use x="1084.316406" xlink:href="#DejaVuSans-105"/>
     <use x="1112.099609" xlink:href="#DejaVuSans-111"/>
     <use x="1173.28125" xlink:href="#DejaVuSans-110"/>
    </g>
   </g>
   <g id="legend_1">
    <g id="patch_5">
     <path d="M 51.55 48.15625 
L 189.596875 48.15625 
Q 191.596875 48.15625 191.596875 46.15625 
L 191.596875 17.8 
Q 191.596875 15.8 189.596875 15.8 
L 51.55 15.8 
Q 49.55 15.8 49.55 17.8 
L 49.55 46.15625 
Q 49.55 48.15625 51.55 48.15625 
z
" style="fill:#ffffff;opacity:0.8;stroke:#cccccc;stroke-linejoin:miter;"/>
    </g>
    <g id="line2d_13">
     <path d="M 53.55 23.898438 
L 73.55 23.898438 
" style="fill:none;stroke:#1f77b4;stroke-linecap:square;stroke-width:2.25;"/>
    </g>
    <g id="line2d_14"/>
    <g id="text_14">
     <!-- Predicted Correlation -->
     <defs>
      <path d="M 64.40625 67.28125 
L 64.40625 56.890625 
Q 59.421875 61.53125 53.78125 63.8125 
Q 48.140625 66.109375 41.796875 66.109375 
Q 29.296875 66.109375 22.65625 58.46875 
Q 16.015625 50.828125 16.015625 36.375 
Q 16.015625 21.96875 22.65625 14.328125 
Q 29.296875 6.6875 41.796875 6.6875 
Q 48.140625 6.6875 53.78125 8.984375 
Q 59.421875 11.28125 64.40625 15.921875 
L 64.40625 5.609375 
Q 59.234375 2.09375 53.4375 0.328125 
Q 47.65625 -1.421875 41.21875 -1.421875 
Q 24.65625 -1.421875 15.125 8.703125 
Q 5.609375 18.84375 5.609375 36.375 
Q 5.609375 53.953125 15.125 64.078125 
Q 24.65625 74.21875 41.21875 74.21875 
Q 47.75 74.21875 53.53125 72.484375 
Q 59.328125 70.75 64.40625 67.28125 
z
" id="DejaVuSans-67"/>
     </defs>
     <g transform="translate(81.55 27.398438)scale(0.1 -0.1)">
      <use xlink:href="#DejaVuSans-80"/>
      <use x="60.287109" xlink:href="#DejaVuSans-114"/>
      <use x="101.369141" xlink:href="#DejaVuSans-101"/>
      <use x="162.892578" xlink:href="#DejaVuSans-100"/>
      <use x="226.369141" xlink:href="#DejaVuSans-105"/>
      <use x="254.152344" xlink:href="#DejaVuSans-99"/>
      <use x="309.132812" xlink:href="#DejaVuSans-116"/>
      <use x="348.341797" xlink:href="#DejaVuSans-101"/>
      <use x="409.865234" xlink:href="#DejaVuSans-100"/>
      <use x="473.341797" xlink:href="#DejaVuSans-32"/>
      <use x="505.128906" xlink:href="#DejaVuSans-67"/>
      <use x="574.953125" xlink:href="#DejaVuSans-111"/>
      <use x="636.134766" xlink:href="#DejaVuSans-114"/>
      <use x="677.232422" xlink:href="#DejaVuSans-114"/>
      <use x="718.314453" xlink:href="#DejaVuSans-101"/>
      <use x="779.837891" xlink:href="#DejaVuSans-108"/>
      <use x="807.621094" xlink:href="#DejaVuSans-97"/>
      <use x="868.900391" xlink:href="#DejaVuSans-116"/>
      <use x="908.109375" xlink:href="#DejaVuSans-105"/>
      <use x="935.892578" xlink:href="#DejaVuSans-111"/>
      <use x="997.074219" xlink:href="#DejaVuSans-110"/>
     </g>
    </g>
    <g id="line2d_15">
     <path d="M 53.55 38.576563 
L 73.55 38.576563 
" style="fill:none;stroke:#ff0000;stroke-linecap:square;"/>
    </g>
    <g id="line2d_16"/>
    <g id="text_15">
     <!-- Real Correlation -->
     <defs>
      <path d="M 44.390625 34.1875 
Q 47.5625 33.109375 50.5625 29.59375 
Q 53.5625 26.078125 56.59375 19.921875 
L 66.609375 0 
L 56 0 
L 46.6875 18.703125 
Q 43.0625 26.03125 39.671875 28.421875 
Q 36.28125 30.8125 30.421875 30.8125 
L 19.671875 30.8125 
L 19.671875 0 
L 9.8125 0 
L 9.8125 72.90625 
L 32.078125 72.90625 
Q 44.578125 72.90625 50.734375 67.671875 
Q 56.890625 62.453125 56.890625 51.90625 
Q 56.890625 45.015625 53.6875 40.46875 
Q 50.484375 35.9375 44.390625 34.1875 
z
M 19.671875 64.796875 
L 19.671875 38.921875 
L 32.078125 38.921875 
Q 39.203125 38.921875 42.84375 42.21875 
Q 46.484375 45.515625 46.484375 51.90625 
Q 46.484375 58.296875 42.84375 61.546875 
Q 39.203125 64.796875 32.078125 64.796875 
z
" id="DejaVuSans-82"/>
     </defs>
     <g transform="translate(81.55 42.076563)scale(0.1 -0.1)">
      <use xlink:href="#DejaVuSans-82"/>
      <use x="69.419922" xlink:href="#DejaVuSans-101"/>
      <use x="130.943359" xlink:href="#DejaVuSans-97"/>
      <use x="192.222656" xlink:href="#DejaVuSans-108"/>
      <use x="220.005859" xlink:href="#DejaVuSans-32"/>
      <use x="251.792969" xlink:href="#DejaVuSans-67"/>
      <use x="321.617188" xlink:href="#DejaVuSans-111"/>
      <use x="382.798828" xlink:href="#DejaVuSans-114"/>
      <use x="423.896484" xlink:href="#DejaVuSans-114"/>
      <use x="464.978516" xlink:href="#DejaVuSans-101"/>
      <use x="526.501953" xlink:href="#DejaVuSans-108"/>
      <use x="554.285156" xlink:href="#DejaVuSans-97"/>
      <use x="615.564453" xlink:href="#DejaVuSans-116"/>
      <use x="654.773438" xlink:href="#DejaVuSans-105"/>
      <use x="682.556641" xlink:href="#DejaVuSans-111"/>
      <use x="743.738281" xlink:href="#DejaVuSans-110"/>
     </g>
    </g>
   </g>
  </g>
 </g>
 <defs>
  <clipPath id="pddbe6b93ec">
   <rect height="306.99375" width="304.65" x="44.55" y="10.8"/>
  </clipPath>
 </defs>
</svg>
