<?xml version="1.0" encoding="utf-8" standalone="no"?>
<!DOCTYPE svg PUBLIC "-//W3C//DTD SVG 1.1//EN"
  "http://www.w3.org/Graphics/SVG/1.1/DTD/svg11.dtd">
<!-- Created with matplotlib (https://matplotlib.org/) -->
<svg height="360pt" version="1.1" viewBox="0 0 360 360" width="360pt" xmlns="http://www.w3.org/2000/svg" xmlns:xlink="http://www.w3.org/1999/xlink">
 <defs>
  <style type="text/css">
*{stroke-linecap:butt;stroke-linejoin:round;}
  </style>
 </defs>
 <g id="figure_1">
  <g id="patch_1">
   <path d="M 0 360 
L 360 360 
L 360 0 
L 0 0 
z
" style="fill:#ffffff;"/>
  </g>
  <g id="axes_1">
   <g id="patch_2">
    <path d="M 47.8 317.79375 
L 349.2 317.79375 
L 349.2 10.8 
L 47.8 10.8 
z
" style="fill:#ffffff;"/>
   </g>
   <g id="PathCollection_1">
    <defs>
     <path d="M 0 3 
C 0.795609 3 1.55874 2.683901 2.12132 2.12132 
C 2.683901 1.55874 3 0.795609 3 0 
C 3 -0.795609 2.683901 -1.55874 2.12132 -2.12132 
C 1.55874 -2.683901 0.795609 -3 0 -3 
C -0.795609 -3 -1.55874 -2.683901 -2.12132 -2.12132 
C -2.683901 -1.55874 -3 -0.795609 -3 0 
C -3 0.795609 -2.683901 1.55874 -2.12132 2.12132 
C -1.55874 2.683901 -0.795609 3 0 3 
z
" id="m71ebacc896" style="stroke:#1f77b4;stroke-opacity:0.8;"/>
    </defs>
    <g clip-path="url(#pd42af47d6b)">
     <use style="fill:#1f77b4;fill-opacity:0.8;stroke:#1f77b4;stroke-opacity:0.8;" x="207.513158" xlink:href="#m71ebacc896" y="205.129898"/>
     <use style="fill:#1f77b4;fill-opacity:0.8;stroke:#1f77b4;stroke-opacity:0.8;" x="241.763158" xlink:href="#m71ebacc896" y="211.159292"/>
     <use style="fill:#1f77b4;fill-opacity:0.8;stroke:#1f77b4;stroke-opacity:0.8;" x="122.789474" xlink:href="#m71ebacc896" y="236.508662"/>
     <use style="fill:#1f77b4;fill-opacity:0.8;stroke:#1f77b4;stroke-opacity:0.8;" x="104.763158" xlink:href="#m71ebacc896" y="214.7996"/>
     <use style="fill:#1f77b4;fill-opacity:0.8;stroke:#1f77b4;stroke-opacity:0.8;" x="113.776316" xlink:href="#m71ebacc896" y="234.599156"/>
     <use style="fill:#1f77b4;fill-opacity:0.8;stroke:#1f77b4;stroke-opacity:0.8;" x="104.763158" xlink:href="#m71ebacc896" y="267.133525"/>
     <use style="fill:#1f77b4;fill-opacity:0.8;stroke:#1f77b4;stroke-opacity:0.8;" x="128.197368" xlink:href="#m71ebacc896" y="212.143159"/>
     <use style="fill:#1f77b4;fill-opacity:0.8;stroke:#1f77b4;stroke-opacity:0.8;" x="236.355263" xlink:href="#m71ebacc896" y="173.46222"/>
     <use style="fill:#1f77b4;fill-opacity:0.8;stroke:#1f77b4;stroke-opacity:0.8;" x="153.434211" xlink:href="#m71ebacc896" y="232.171026"/>
     <use style="fill:#1f77b4;fill-opacity:0.8;stroke:#1f77b4;stroke-opacity:0.8;" x="187.684211" xlink:href="#m71ebacc896" y="181.099828"/>
     <use style="fill:#1f77b4;fill-opacity:0.8;stroke:#1f77b4;stroke-opacity:0.8;" x="110.171053" xlink:href="#m71ebacc896" y="261.853633"/>
     <use style="fill:#1f77b4;fill-opacity:0.8;stroke:#1f77b4;stroke-opacity:0.8;" x="151.631579" xlink:href="#m71ebacc896" y="201.090121"/>
     <use style="fill:#1f77b4;fill-opacity:0.8;stroke:#1f77b4;stroke-opacity:0.8;" x="137.210526" xlink:href="#m71ebacc896" y="220.26176"/>
     <use style="fill:#1f77b4;fill-opacity:0.8;stroke:#1f77b4;stroke-opacity:0.8;" x="139.013158" xlink:href="#m71ebacc896" y="197.733113"/>
     <use style="fill:#1f77b4;fill-opacity:0.8;stroke:#1f77b4;stroke-opacity:0.8;" x="276.013158" xlink:href="#m71ebacc896" y="172.775903"/>
     <use style="fill:#1f77b4;fill-opacity:0.8;stroke:#1f77b4;stroke-opacity:0.8;" x="137.210526" xlink:href="#m71ebacc896" y="227.743968"/>
     <use style="fill:#1f77b4;fill-opacity:0.8;stroke:#1f77b4;stroke-opacity:0.8;" x="142.618421" xlink:href="#m71ebacc896" y="202.230096"/>
     <use style="fill:#1f77b4;fill-opacity:0.8;stroke:#1f77b4;stroke-opacity:0.8;" x="153.434211" xlink:href="#m71ebacc896" y="145.202359"/>
     <use style="fill:#1f77b4;fill-opacity:0.8;stroke:#1f77b4;stroke-opacity:0.8;" x="173.263158" xlink:href="#m71ebacc896" y="146.808947"/>
     <use style="fill:#1f77b4;fill-opacity:0.8;stroke:#1f77b4;stroke-opacity:0.8;" x="139.013158" xlink:href="#m71ebacc896" y="218.471292"/>
     <use style="fill:#1f77b4;fill-opacity:0.8;stroke:#1f77b4;stroke-opacity:0.8;" x="139.013158" xlink:href="#m71ebacc896" y="201.50866"/>
     <use style="fill:#1f77b4;fill-opacity:0.8;stroke:#1f77b4;stroke-opacity:0.8;" x="106.565789" xlink:href="#m71ebacc896" y="209.708999"/>
     <use style="fill:#1f77b4;fill-opacity:0.8;stroke:#1f77b4;stroke-opacity:0.8;" x="106.565789" xlink:href="#m71ebacc896" y="276.726938"/>
     <use style="fill:#1f77b4;fill-opacity:0.8;stroke:#1f77b4;stroke-opacity:0.8;" x="139.013158" xlink:href="#m71ebacc896" y="236.001703"/>
     <use style="fill:#1f77b4;fill-opacity:0.8;stroke:#1f77b4;stroke-opacity:0.8;" x="149.828947" xlink:href="#m71ebacc896" y="215.519085"/>
     <use style="fill:#1f77b4;fill-opacity:0.8;stroke:#1f77b4;stroke-opacity:0.8;" x="120.986842" xlink:href="#m71ebacc896" y="247.700751"/>
     <use style="fill:#1f77b4;fill-opacity:0.8;stroke:#1f77b4;stroke-opacity:0.8;" x="101.157895" xlink:href="#m71ebacc896" y="257.48955"/>
     <use style="fill:#1f77b4;fill-opacity:0.8;stroke:#1f77b4;stroke-opacity:0.8;" x="225.539474" xlink:href="#m71ebacc896" y="223.067865"/>
     <use style="fill:#1f77b4;fill-opacity:0.8;stroke:#1f77b4;stroke-opacity:0.8;" x="101.157895" xlink:href="#m71ebacc896" y="221.650415"/>
     <use style="fill:#1f77b4;fill-opacity:0.8;stroke:#1f77b4;stroke-opacity:0.8;" x="162.447368" xlink:href="#m71ebacc896" y="213.450911"/>
     <use style="fill:#1f77b4;fill-opacity:0.8;stroke:#1f77b4;stroke-opacity:0.8;" x="115.578947" xlink:href="#m71ebacc896" y="244.131596"/>
     <use style="fill:#1f77b4;fill-opacity:0.8;stroke:#1f77b4;stroke-opacity:0.8;" x="236.355263" xlink:href="#m71ebacc896" y="165.675449"/>
     <use style="fill:#1f77b4;fill-opacity:0.8;stroke:#1f77b4;stroke-opacity:0.8;" x="166.052632" xlink:href="#m71ebacc896" y="209.614011"/>
     <use style="fill:#1f77b4;fill-opacity:0.8;stroke:#1f77b4;stroke-opacity:0.8;" x="178.671053" xlink:href="#m71ebacc896" y="194.985463"/>
     <use style="fill:#1f77b4;fill-opacity:0.8;stroke:#1f77b4;stroke-opacity:0.8;" x="301.25" xlink:href="#m71ebacc896" y="158.846663"/>
     <use style="fill:#1f77b4;fill-opacity:0.8;stroke:#1f77b4;stroke-opacity:0.8;" x="187.684211" xlink:href="#m71ebacc896" y="200.939689"/>
     <use style="fill:#1f77b4;fill-opacity:0.8;stroke:#1f77b4;stroke-opacity:0.8;" x="131.802632" xlink:href="#m71ebacc896" y="220.995671"/>
     <use style="fill:#1f77b4;fill-opacity:0.8;stroke:#1f77b4;stroke-opacity:0.8;" x="117.381579" xlink:href="#m71ebacc896" y="218.072382"/>
     <use style="fill:#1f77b4;fill-opacity:0.8;stroke:#1f77b4;stroke-opacity:0.8;" x="227.342105" xlink:href="#m71ebacc896" y="191.80402"/>
     <use style="fill:#1f77b4;fill-opacity:0.8;stroke:#1f77b4;stroke-opacity:0.8;" x="122.789474" xlink:href="#m71ebacc896" y="216.710613"/>
     <use style="fill:#1f77b4;fill-opacity:0.8;stroke:#1f77b4;stroke-opacity:0.8;" x="124.592105" xlink:href="#m71ebacc896" y="231.410252"/>
     <use style="fill:#1f77b4;fill-opacity:0.8;stroke:#1f77b4;stroke-opacity:0.8;" x="153.434211" xlink:href="#m71ebacc896" y="206.764755"/>
     <use style="fill:#1f77b4;fill-opacity:0.8;stroke:#1f77b4;stroke-opacity:0.8;" x="137.210526" xlink:href="#m71ebacc896" y="200.917801"/>
     <use style="fill:#1f77b4;fill-opacity:0.8;stroke:#1f77b4;stroke-opacity:0.8;" x="250.776316" xlink:href="#m71ebacc896" y="162.390077"/>
     <use style="fill:#1f77b4;fill-opacity:0.8;stroke:#1f77b4;stroke-opacity:0.8;" x="115.578947" xlink:href="#m71ebacc896" y="245.869001"/>
    </g>
   </g>
   <g id="PolyCollection_1">
    <path clip-path="url(#pd42af47d6b)" d="M 101.157895 225.096202 
L 101.157895 243.348091 
L 103.179027 242.28811 
L 105.200159 241.396207 
L 107.221292 240.53409 
L 109.242424 239.52721 
L 111.263557 238.514834 
L 113.284689 237.520723 
L 115.305821 236.470555 
L 117.326954 235.557824 
L 119.348086 234.59887 
L 121.369219 233.749088 
L 123.390351 232.885246 
L 125.411483 231.839424 
L 127.432616 230.862151 
L 129.453748 229.920152 
L 131.47488 229.000421 
L 133.496013 228.102849 
L 135.517145 227.199802 
L 137.538278 226.279936 
L 139.55941 225.400357 
L 141.580542 224.540899 
L 143.601675 223.822323 
L 145.622807 223.081061 
L 147.643939 222.120994 
L 149.665072 221.158392 
L 151.686204 220.275082 
L 153.707337 219.433827 
L 155.728469 218.668034 
L 157.749601 217.97565 
L 159.770734 217.187067 
L 161.791866 216.426577 
L 163.812998 215.577834 
L 165.834131 214.779225 
L 167.855263 214.060586 
L 169.876396 213.339149 
L 171.897528 212.517201 
L 173.91866 211.670996 
L 175.939793 210.823035 
L 177.960925 209.973358 
L 179.982057 209.371844 
L 182.00319 208.517812 
L 184.024322 207.65503 
L 186.045455 206.841594 
L 188.066587 206.149842 
L 190.087719 205.464659 
L 192.108852 204.632519 
L 194.129984 203.847031 
L 196.151116 203.120377 
L 198.172249 202.402245 
L 200.193381 201.69821 
L 202.214514 200.981086 
L 204.235646 200.315733 
L 206.256778 199.528436 
L 208.277911 198.768317 
L 210.299043 198.139762 
L 212.320175 197.361113 
L 214.341308 196.618656 
L 216.36244 195.935995 
L 218.383573 195.244644 
L 220.404705 194.473248 
L 222.425837 193.776625 
L 224.44697 193.080001 
L 226.468102 192.422872 
L 228.489234 191.809444 
L 230.510367 191.172897 
L 232.531499 190.506691 
L 234.552632 189.80133 
L 236.573764 189.082142 
L 238.594896 188.343489 
L 240.616029 187.667033 
L 242.637161 186.984954 
L 244.658293 186.317038 
L 246.679426 185.742339 
L 248.700558 185.099817 
L 250.721691 184.377366 
L 252.742823 183.761601 
L 254.763955 183.077475 
L 256.785088 182.447451 
L 258.80622 181.730512 
L 260.827352 181.018754 
L 262.848485 180.368103 
L 264.869617 179.666036 
L 266.89075 179.040416 
L 268.911882 178.414796 
L 270.933014 177.821028 
L 272.954147 177.219241 
L 274.975279 176.58617 
L 276.996411 175.926064 
L 279.017544 175.286697 
L 281.038676 174.64221 
L 283.059809 173.958766 
L 285.080941 173.35796 
L 287.102073 172.784218 
L 289.123206 172.15534 
L 291.144338 171.534505 
L 293.16547 170.912607 
L 295.186603 170.289761 
L 297.207735 169.702677 
L 299.228868 169.115593 
L 301.25 168.482059 
L 301.25 131.720828 
L 301.25 131.720828 
L 299.228868 132.757084 
L 297.207735 133.79334 
L 295.186603 134.829596 
L 293.16547 135.865851 
L 291.144338 136.902107 
L 289.123206 137.938363 
L 287.102073 138.974618 
L 285.080941 140.012743 
L 283.059809 141.050892 
L 281.038676 142.089041 
L 279.017544 143.12719 
L 276.996411 144.16534 
L 274.975279 145.216331 
L 272.954147 146.31749 
L 270.933014 147.418801 
L 268.911882 148.522202 
L 266.89075 149.625603 
L 264.869617 150.729004 
L 262.848485 151.832404 
L 260.827352 152.911527 
L 258.80622 154.00574 
L 256.785088 155.005993 
L 254.763955 156.115046 
L 252.742823 157.227948 
L 250.721691 158.323263 
L 248.700558 159.336652 
L 246.679426 160.35004 
L 244.658293 161.373525 
L 242.637161 162.475341 
L 240.616029 163.577157 
L 238.594896 164.678973 
L 236.573764 165.752812 
L 234.552632 166.743063 
L 232.531499 167.733315 
L 230.510367 168.726146 
L 228.489234 169.719463 
L 226.468102 170.808584 
L 224.44697 171.923596 
L 222.425837 172.951755 
L 220.404705 173.979915 
L 218.383573 175.015634 
L 216.36244 176.126099 
L 214.341308 177.252732 
L 212.320175 178.348984 
L 210.299043 179.416373 
L 208.277911 180.451211 
L 206.256778 181.522172 
L 204.235646 182.607373 
L 202.214514 183.711572 
L 200.193381 184.771465 
L 198.172249 185.855475 
L 196.151116 186.836644 
L 194.129984 187.834612 
L 192.108852 188.71994 
L 190.087719 189.667476 
L 188.066587 190.781605 
L 186.045455 191.753805 
L 184.024322 192.627235 
L 182.00319 193.488002 
L 179.982057 194.550984 
L 177.960925 195.429793 
L 175.939793 196.450058 
L 173.91866 197.394452 
L 171.897528 198.324778 
L 169.876396 199.099535 
L 167.855263 200.099525 
L 165.834131 200.906244 
L 163.812998 201.803457 
L 161.791866 202.663046 
L 159.770734 203.541883 
L 157.749601 204.406055 
L 155.728469 205.364295 
L 153.707337 206.359808 
L 151.686204 207.210651 
L 149.665072 207.862193 
L 147.643939 208.710579 
L 145.622807 209.526949 
L 143.601675 210.253463 
L 141.580542 211.017685 
L 139.55941 211.927675 
L 137.538278 212.58478 
L 135.517145 213.25824 
L 133.496013 213.951299 
L 131.47488 214.702762 
L 129.453748 215.326789 
L 127.432616 216.226131 
L 125.411483 216.986216 
L 123.390351 217.707841 
L 121.369219 218.386442 
L 119.348086 219.055279 
L 117.326954 219.726449 
L 115.305821 220.456665 
L 113.284689 221.123852 
L 111.263557 221.75896 
L 109.242424 222.379732 
L 107.221292 223.000682 
L 105.200159 223.669914 
L 103.179027 224.383058 
L 101.157895 225.096202 
z
" style="fill:#1f77b4;fill-opacity:0.15;"/>
   </g>
   <g id="matplotlib.axis_1">
    <g id="xtick_1">
     <g id="line2d_1">
      <defs>
       <path d="M 0 0 
L 0 3.5 
" id="m7a3e18c29c" style="stroke:#000000;stroke-width:0.8;"/>
      </defs>
      <g>
       <use style="stroke:#000000;stroke-width:0.8;" x="68.710526" xlink:href="#m7a3e18c29c" y="317.79375"/>
      </g>
     </g>
     <g id="text_1">
      <!-- 0.6 -->
      <defs>
       <path d="M 31.78125 66.40625 
Q 24.171875 66.40625 20.328125 58.90625 
Q 16.5 51.421875 16.5 36.375 
Q 16.5 21.390625 20.328125 13.890625 
Q 24.171875 6.390625 31.78125 6.390625 
Q 39.453125 6.390625 43.28125 13.890625 
Q 47.125 21.390625 47.125 36.375 
Q 47.125 51.421875 43.28125 58.90625 
Q 39.453125 66.40625 31.78125 66.40625 
z
M 31.78125 74.21875 
Q 44.046875 74.21875 50.515625 64.515625 
Q 56.984375 54.828125 56.984375 36.375 
Q 56.984375 17.96875 50.515625 8.265625 
Q 44.046875 -1.421875 31.78125 -1.421875 
Q 19.53125 -1.421875 13.0625 8.265625 
Q 6.59375 17.96875 6.59375 36.375 
Q 6.59375 54.828125 13.0625 64.515625 
Q 19.53125 74.21875 31.78125 74.21875 
z
" id="DejaVuSans-48"/>
       <path d="M 10.6875 12.40625 
L 21 12.40625 
L 21 0 
L 10.6875 0 
z
" id="DejaVuSans-46"/>
       <path d="M 33.015625 40.375 
Q 26.375 40.375 22.484375 35.828125 
Q 18.609375 31.296875 18.609375 23.390625 
Q 18.609375 15.53125 22.484375 10.953125 
Q 26.375 6.390625 33.015625 6.390625 
Q 39.65625 6.390625 43.53125 10.953125 
Q 47.40625 15.53125 47.40625 23.390625 
Q 47.40625 31.296875 43.53125 35.828125 
Q 39.65625 40.375 33.015625 40.375 
z
M 52.59375 71.296875 
L 52.59375 62.3125 
Q 48.875 64.0625 45.09375 64.984375 
Q 41.3125 65.921875 37.59375 65.921875 
Q 27.828125 65.921875 22.671875 59.328125 
Q 17.53125 52.734375 16.796875 39.40625 
Q 19.671875 43.65625 24.015625 45.921875 
Q 28.375 48.1875 33.59375 48.1875 
Q 44.578125 48.1875 50.953125 41.515625 
Q 57.328125 34.859375 57.328125 23.390625 
Q 57.328125 12.15625 50.6875 5.359375 
Q 44.046875 -1.421875 33.015625 -1.421875 
Q 20.359375 -1.421875 13.671875 8.265625 
Q 6.984375 17.96875 6.984375 36.375 
Q 6.984375 53.65625 15.1875 63.9375 
Q 23.390625 74.21875 37.203125 74.21875 
Q 40.921875 74.21875 44.703125 73.484375 
Q 48.484375 72.75 52.59375 71.296875 
z
" id="DejaVuSans-54"/>
      </defs>
      <g transform="translate(60.758964 332.392187)scale(0.1 -0.1)">
       <use xlink:href="#DejaVuSans-48"/>
       <use x="63.623047" xlink:href="#DejaVuSans-46"/>
       <use x="95.410156" xlink:href="#DejaVuSans-54"/>
      </g>
     </g>
    </g>
    <g id="xtick_2">
     <g id="line2d_2">
      <g>
       <use style="stroke:#000000;stroke-width:0.8;" x="104.763158" xlink:href="#m7a3e18c29c" y="317.79375"/>
      </g>
     </g>
     <g id="text_2">
      <!-- 0.8 -->
      <defs>
       <path d="M 31.78125 34.625 
Q 24.75 34.625 20.71875 30.859375 
Q 16.703125 27.09375 16.703125 20.515625 
Q 16.703125 13.921875 20.71875 10.15625 
Q 24.75 6.390625 31.78125 6.390625 
Q 38.8125 6.390625 42.859375 10.171875 
Q 46.921875 13.96875 46.921875 20.515625 
Q 46.921875 27.09375 42.890625 30.859375 
Q 38.875 34.625 31.78125 34.625 
z
M 21.921875 38.8125 
Q 15.578125 40.375 12.03125 44.71875 
Q 8.5 49.078125 8.5 55.328125 
Q 8.5 64.0625 14.71875 69.140625 
Q 20.953125 74.21875 31.78125 74.21875 
Q 42.671875 74.21875 48.875 69.140625 
Q 55.078125 64.0625 55.078125 55.328125 
Q 55.078125 49.078125 51.53125 44.71875 
Q 48 40.375 41.703125 38.8125 
Q 48.828125 37.15625 52.796875 32.3125 
Q 56.78125 27.484375 56.78125 20.515625 
Q 56.78125 9.90625 50.3125 4.234375 
Q 43.84375 -1.421875 31.78125 -1.421875 
Q 19.734375 -1.421875 13.25 4.234375 
Q 6.78125 9.90625 6.78125 20.515625 
Q 6.78125 27.484375 10.78125 32.3125 
Q 14.796875 37.15625 21.921875 38.8125 
z
M 18.3125 54.390625 
Q 18.3125 48.734375 21.84375 45.5625 
Q 25.390625 42.390625 31.78125 42.390625 
Q 38.140625 42.390625 41.71875 45.5625 
Q 45.3125 48.734375 45.3125 54.390625 
Q 45.3125 60.0625 41.71875 63.234375 
Q 38.140625 66.40625 31.78125 66.40625 
Q 25.390625 66.40625 21.84375 63.234375 
Q 18.3125 60.0625 18.3125 54.390625 
z
" id="DejaVuSans-56"/>
      </defs>
      <g transform="translate(96.811595 332.392187)scale(0.1 -0.1)">
       <use xlink:href="#DejaVuSans-48"/>
       <use x="63.623047" xlink:href="#DejaVuSans-46"/>
       <use x="95.410156" xlink:href="#DejaVuSans-56"/>
      </g>
     </g>
    </g>
    <g id="xtick_3">
     <g id="line2d_3">
      <g>
       <use style="stroke:#000000;stroke-width:0.8;" x="140.815789" xlink:href="#m7a3e18c29c" y="317.79375"/>
      </g>
     </g>
     <g id="text_3">
      <!-- 1.0 -->
      <defs>
       <path d="M 12.40625 8.296875 
L 28.515625 8.296875 
L 28.515625 63.921875 
L 10.984375 60.40625 
L 10.984375 69.390625 
L 28.421875 72.90625 
L 38.28125 72.90625 
L 38.28125 8.296875 
L 54.390625 8.296875 
L 54.390625 0 
L 12.40625 0 
z
" id="DejaVuSans-49"/>
      </defs>
      <g transform="translate(132.864227 332.392187)scale(0.1 -0.1)">
       <use xlink:href="#DejaVuSans-49"/>
       <use x="63.623047" xlink:href="#DejaVuSans-46"/>
       <use x="95.410156" xlink:href="#DejaVuSans-48"/>
      </g>
     </g>
    </g>
    <g id="xtick_4">
     <g id="line2d_4">
      <g>
       <use style="stroke:#000000;stroke-width:0.8;" x="176.868421" xlink:href="#m7a3e18c29c" y="317.79375"/>
      </g>
     </g>
     <g id="text_4">
      <!-- 1.2 -->
      <defs>
       <path d="M 19.1875 8.296875 
L 53.609375 8.296875 
L 53.609375 0 
L 7.328125 0 
L 7.328125 8.296875 
Q 12.9375 14.109375 22.625 23.890625 
Q 32.328125 33.6875 34.8125 36.53125 
Q 39.546875 41.84375 41.421875 45.53125 
Q 43.3125 49.21875 43.3125 52.78125 
Q 43.3125 58.59375 39.234375 62.25 
Q 35.15625 65.921875 28.609375 65.921875 
Q 23.96875 65.921875 18.8125 64.3125 
Q 13.671875 62.703125 7.8125 59.421875 
L 7.8125 69.390625 
Q 13.765625 71.78125 18.9375 73 
Q 24.125 74.21875 28.421875 74.21875 
Q 39.75 74.21875 46.484375 68.546875 
Q 53.21875 62.890625 53.21875 53.421875 
Q 53.21875 48.921875 51.53125 44.890625 
Q 49.859375 40.875 45.40625 35.40625 
Q 44.1875 33.984375 37.640625 27.21875 
Q 31.109375 20.453125 19.1875 8.296875 
z
" id="DejaVuSans-50"/>
      </defs>
      <g transform="translate(168.916859 332.392187)scale(0.1 -0.1)">
       <use xlink:href="#DejaVuSans-49"/>
       <use x="63.623047" xlink:href="#DejaVuSans-46"/>
       <use x="95.410156" xlink:href="#DejaVuSans-50"/>
      </g>
     </g>
    </g>
    <g id="xtick_5">
     <g id="line2d_5">
      <g>
       <use style="stroke:#000000;stroke-width:0.8;" x="212.921053" xlink:href="#m7a3e18c29c" y="317.79375"/>
      </g>
     </g>
     <g id="text_5">
      <!-- 1.4 -->
      <defs>
       <path d="M 37.796875 64.3125 
L 12.890625 25.390625 
L 37.796875 25.390625 
z
M 35.203125 72.90625 
L 47.609375 72.90625 
L 47.609375 25.390625 
L 58.015625 25.390625 
L 58.015625 17.1875 
L 47.609375 17.1875 
L 47.609375 0 
L 37.796875 0 
L 37.796875 17.1875 
L 4.890625 17.1875 
L 4.890625 26.703125 
z
" id="DejaVuSans-52"/>
      </defs>
      <g transform="translate(204.96949 332.392187)scale(0.1 -0.1)">
       <use xlink:href="#DejaVuSans-49"/>
       <use x="63.623047" xlink:href="#DejaVuSans-46"/>
       <use x="95.410156" xlink:href="#DejaVuSans-52"/>
      </g>
     </g>
    </g>
    <g id="xtick_6">
     <g id="line2d_6">
      <g>
       <use style="stroke:#000000;stroke-width:0.8;" x="248.973684" xlink:href="#m7a3e18c29c" y="317.79375"/>
      </g>
     </g>
     <g id="text_6">
      <!-- 1.6 -->
      <g transform="translate(241.022122 332.392187)scale(0.1 -0.1)">
       <use xlink:href="#DejaVuSans-49"/>
       <use x="63.623047" xlink:href="#DejaVuSans-46"/>
       <use x="95.410156" xlink:href="#DejaVuSans-54"/>
      </g>
     </g>
    </g>
    <g id="xtick_7">
     <g id="line2d_7">
      <g>
       <use style="stroke:#000000;stroke-width:0.8;" x="285.026316" xlink:href="#m7a3e18c29c" y="317.79375"/>
      </g>
     </g>
     <g id="text_7">
      <!-- 1.8 -->
      <g transform="translate(277.074753 332.392187)scale(0.1 -0.1)">
       <use xlink:href="#DejaVuSans-49"/>
       <use x="63.623047" xlink:href="#DejaVuSans-46"/>
       <use x="95.410156" xlink:href="#DejaVuSans-56"/>
      </g>
     </g>
    </g>
    <g id="xtick_8">
     <g id="line2d_8">
      <g>
       <use style="stroke:#000000;stroke-width:0.8;" x="321.078947" xlink:href="#m7a3e18c29c" y="317.79375"/>
      </g>
     </g>
     <g id="text_8">
      <!-- 2.0 -->
      <g transform="translate(313.127385 332.392187)scale(0.1 -0.1)">
       <use xlink:href="#DejaVuSans-50"/>
       <use x="63.623047" xlink:href="#DejaVuSans-46"/>
       <use x="95.410156" xlink:href="#DejaVuSans-48"/>
      </g>
     </g>
    </g>
    <g id="text_9">
     <!-- True Trajectory Duration (s) -->
     <defs>
      <path d="M -0.296875 72.90625 
L 61.375 72.90625 
L 61.375 64.59375 
L 35.5 64.59375 
L 35.5 0 
L 25.59375 0 
L 25.59375 64.59375 
L -0.296875 64.59375 
z
" id="DejaVuSans-84"/>
      <path d="M 41.109375 46.296875 
Q 39.59375 47.171875 37.8125 47.578125 
Q 36.03125 48 33.890625 48 
Q 26.265625 48 22.1875 43.046875 
Q 18.109375 38.09375 18.109375 28.8125 
L 18.109375 0 
L 9.078125 0 
L 9.078125 54.6875 
L 18.109375 54.6875 
L 18.109375 46.1875 
Q 20.953125 51.171875 25.484375 53.578125 
Q 30.03125 56 36.53125 56 
Q 37.453125 56 38.578125 55.875 
Q 39.703125 55.765625 41.0625 55.515625 
z
" id="DejaVuSans-114"/>
      <path d="M 8.5 21.578125 
L 8.5 54.6875 
L 17.484375 54.6875 
L 17.484375 21.921875 
Q 17.484375 14.15625 20.5 10.265625 
Q 23.53125 6.390625 29.59375 6.390625 
Q 36.859375 6.390625 41.078125 11.03125 
Q 45.3125 15.671875 45.3125 23.6875 
L 45.3125 54.6875 
L 54.296875 54.6875 
L 54.296875 0 
L 45.3125 0 
L 45.3125 8.40625 
Q 42.046875 3.421875 37.71875 1 
Q 33.40625 -1.421875 27.6875 -1.421875 
Q 18.265625 -1.421875 13.375 4.4375 
Q 8.5 10.296875 8.5 21.578125 
z
M 31.109375 56 
z
" id="DejaVuSans-117"/>
      <path d="M 56.203125 29.59375 
L 56.203125 25.203125 
L 14.890625 25.203125 
Q 15.484375 15.921875 20.484375 11.0625 
Q 25.484375 6.203125 34.421875 6.203125 
Q 39.59375 6.203125 44.453125 7.46875 
Q 49.3125 8.734375 54.109375 11.28125 
L 54.109375 2.78125 
Q 49.265625 0.734375 44.1875 -0.34375 
Q 39.109375 -1.421875 33.890625 -1.421875 
Q 20.796875 -1.421875 13.15625 6.1875 
Q 5.515625 13.8125 5.515625 26.8125 
Q 5.515625 40.234375 12.765625 48.109375 
Q 20.015625 56 32.328125 56 
Q 43.359375 56 49.78125 48.890625 
Q 56.203125 41.796875 56.203125 29.59375 
z
M 47.21875 32.234375 
Q 47.125 39.59375 43.09375 43.984375 
Q 39.0625 48.390625 32.421875 48.390625 
Q 24.90625 48.390625 20.390625 44.140625 
Q 15.875 39.890625 15.1875 32.171875 
z
" id="DejaVuSans-101"/>
      <path id="DejaVuSans-32"/>
      <path d="M 34.28125 27.484375 
Q 23.390625 27.484375 19.1875 25 
Q 14.984375 22.515625 14.984375 16.5 
Q 14.984375 11.71875 18.140625 8.90625 
Q 21.296875 6.109375 26.703125 6.109375 
Q 34.1875 6.109375 38.703125 11.40625 
Q 43.21875 16.703125 43.21875 25.484375 
L 43.21875 27.484375 
z
M 52.203125 31.203125 
L 52.203125 0 
L 43.21875 0 
L 43.21875 8.296875 
Q 40.140625 3.328125 35.546875 0.953125 
Q 30.953125 -1.421875 24.3125 -1.421875 
Q 15.921875 -1.421875 10.953125 3.296875 
Q 6 8.015625 6 15.921875 
Q 6 25.140625 12.171875 29.828125 
Q 18.359375 34.515625 30.609375 34.515625 
L 43.21875 34.515625 
L 43.21875 35.40625 
Q 43.21875 41.609375 39.140625 45 
Q 35.0625 48.390625 27.6875 48.390625 
Q 23 48.390625 18.546875 47.265625 
Q 14.109375 46.140625 10.015625 43.890625 
L 10.015625 52.203125 
Q 14.9375 54.109375 19.578125 55.046875 
Q 24.21875 56 28.609375 56 
Q 40.484375 56 46.34375 49.84375 
Q 52.203125 43.703125 52.203125 31.203125 
z
" id="DejaVuSans-97"/>
      <path d="M 9.421875 54.6875 
L 18.40625 54.6875 
L 18.40625 -0.984375 
Q 18.40625 -11.421875 14.421875 -16.109375 
Q 10.453125 -20.796875 1.609375 -20.796875 
L -1.8125 -20.796875 
L -1.8125 -13.1875 
L 0.59375 -13.1875 
Q 5.71875 -13.1875 7.5625 -10.8125 
Q 9.421875 -8.453125 9.421875 -0.984375 
z
M 9.421875 75.984375 
L 18.40625 75.984375 
L 18.40625 64.59375 
L 9.421875 64.59375 
z
" id="DejaVuSans-106"/>
      <path d="M 48.78125 52.59375 
L 48.78125 44.1875 
Q 44.96875 46.296875 41.140625 47.34375 
Q 37.3125 48.390625 33.40625 48.390625 
Q 24.65625 48.390625 19.8125 42.84375 
Q 14.984375 37.3125 14.984375 27.296875 
Q 14.984375 17.28125 19.8125 11.734375 
Q 24.65625 6.203125 33.40625 6.203125 
Q 37.3125 6.203125 41.140625 7.25 
Q 44.96875 8.296875 48.78125 10.40625 
L 48.78125 2.09375 
Q 45.015625 0.34375 40.984375 -0.53125 
Q 36.96875 -1.421875 32.421875 -1.421875 
Q 20.0625 -1.421875 12.78125 6.34375 
Q 5.515625 14.109375 5.515625 27.296875 
Q 5.515625 40.671875 12.859375 48.328125 
Q 20.21875 56 33.015625 56 
Q 37.15625 56 41.109375 55.140625 
Q 45.0625 54.296875 48.78125 52.59375 
z
" id="DejaVuSans-99"/>
      <path d="M 18.3125 70.21875 
L 18.3125 54.6875 
L 36.8125 54.6875 
L 36.8125 47.703125 
L 18.3125 47.703125 
L 18.3125 18.015625 
Q 18.3125 11.328125 20.140625 9.421875 
Q 21.96875 7.515625 27.59375 7.515625 
L 36.8125 7.515625 
L 36.8125 0 
L 27.59375 0 
Q 17.1875 0 13.234375 3.875 
Q 9.28125 7.765625 9.28125 18.015625 
L 9.28125 47.703125 
L 2.6875 47.703125 
L 2.6875 54.6875 
L 9.28125 54.6875 
L 9.28125 70.21875 
z
" id="DejaVuSans-116"/>
      <path d="M 30.609375 48.390625 
Q 23.390625 48.390625 19.1875 42.75 
Q 14.984375 37.109375 14.984375 27.296875 
Q 14.984375 17.484375 19.15625 11.84375 
Q 23.34375 6.203125 30.609375 6.203125 
Q 37.796875 6.203125 41.984375 11.859375 
Q 46.1875 17.53125 46.1875 27.296875 
Q 46.1875 37.015625 41.984375 42.703125 
Q 37.796875 48.390625 30.609375 48.390625 
z
M 30.609375 56 
Q 42.328125 56 49.015625 48.375 
Q 55.71875 40.765625 55.71875 27.296875 
Q 55.71875 13.875 49.015625 6.21875 
Q 42.328125 -1.421875 30.609375 -1.421875 
Q 18.84375 -1.421875 12.171875 6.21875 
Q 5.515625 13.875 5.515625 27.296875 
Q 5.515625 40.765625 12.171875 48.375 
Q 18.84375 56 30.609375 56 
z
" id="DejaVuSans-111"/>
      <path d="M 32.171875 -5.078125 
Q 28.375 -14.84375 24.75 -17.8125 
Q 21.140625 -20.796875 15.09375 -20.796875 
L 7.90625 -20.796875 
L 7.90625 -13.28125 
L 13.1875 -13.28125 
Q 16.890625 -13.28125 18.9375 -11.515625 
Q 21 -9.765625 23.484375 -3.21875 
L 25.09375 0.875 
L 2.984375 54.6875 
L 12.5 54.6875 
L 29.59375 11.921875 
L 46.6875 54.6875 
L 56.203125 54.6875 
z
" id="DejaVuSans-121"/>
      <path d="M 19.671875 64.796875 
L 19.671875 8.109375 
L 31.59375 8.109375 
Q 46.6875 8.109375 53.6875 14.9375 
Q 60.6875 21.78125 60.6875 36.53125 
Q 60.6875 51.171875 53.6875 57.984375 
Q 46.6875 64.796875 31.59375 64.796875 
z
M 9.8125 72.90625 
L 30.078125 72.90625 
Q 51.265625 72.90625 61.171875 64.09375 
Q 71.09375 55.28125 71.09375 36.53125 
Q 71.09375 17.671875 61.125 8.828125 
Q 51.171875 0 30.078125 0 
L 9.8125 0 
z
" id="DejaVuSans-68"/>
      <path d="M 9.421875 54.6875 
L 18.40625 54.6875 
L 18.40625 0 
L 9.421875 0 
z
M 9.421875 75.984375 
L 18.40625 75.984375 
L 18.40625 64.59375 
L 9.421875 64.59375 
z
" id="DejaVuSans-105"/>
      <path d="M 54.890625 33.015625 
L 54.890625 0 
L 45.90625 0 
L 45.90625 32.71875 
Q 45.90625 40.484375 42.875 44.328125 
Q 39.84375 48.1875 33.796875 48.1875 
Q 26.515625 48.1875 22.3125 43.546875 
Q 18.109375 38.921875 18.109375 30.90625 
L 18.109375 0 
L 9.078125 0 
L 9.078125 54.6875 
L 18.109375 54.6875 
L 18.109375 46.1875 
Q 21.34375 51.125 25.703125 53.5625 
Q 30.078125 56 35.796875 56 
Q 45.21875 56 50.046875 50.171875 
Q 54.890625 44.34375 54.890625 33.015625 
z
" id="DejaVuSans-110"/>
      <path d="M 31 75.875 
Q 24.46875 64.65625 21.28125 53.65625 
Q 18.109375 42.671875 18.109375 31.390625 
Q 18.109375 20.125 21.3125 9.0625 
Q 24.515625 -2 31 -13.1875 
L 23.1875 -13.1875 
Q 15.875 -1.703125 12.234375 9.375 
Q 8.59375 20.453125 8.59375 31.390625 
Q 8.59375 42.28125 12.203125 53.3125 
Q 15.828125 64.359375 23.1875 75.875 
z
" id="DejaVuSans-40"/>
      <path d="M 44.28125 53.078125 
L 44.28125 44.578125 
Q 40.484375 46.53125 36.375 47.5 
Q 32.28125 48.484375 27.875 48.484375 
Q 21.1875 48.484375 17.84375 46.4375 
Q 14.5 44.390625 14.5 40.28125 
Q 14.5 37.15625 16.890625 35.375 
Q 19.28125 33.59375 26.515625 31.984375 
L 29.59375 31.296875 
Q 39.15625 29.25 43.1875 25.515625 
Q 47.21875 21.78125 47.21875 15.09375 
Q 47.21875 7.46875 41.1875 3.015625 
Q 35.15625 -1.421875 24.609375 -1.421875 
Q 20.21875 -1.421875 15.453125 -0.5625 
Q 10.6875 0.296875 5.421875 2 
L 5.421875 11.28125 
Q 10.40625 8.6875 15.234375 7.390625 
Q 20.0625 6.109375 24.8125 6.109375 
Q 31.15625 6.109375 34.5625 8.28125 
Q 37.984375 10.453125 37.984375 14.40625 
Q 37.984375 18.0625 35.515625 20.015625 
Q 33.0625 21.96875 24.703125 23.78125 
L 21.578125 24.515625 
Q 13.234375 26.265625 9.515625 29.90625 
Q 5.8125 33.546875 5.8125 39.890625 
Q 5.8125 47.609375 11.28125 51.796875 
Q 16.75 56 26.8125 56 
Q 31.78125 56 36.171875 55.265625 
Q 40.578125 54.546875 44.28125 53.078125 
z
" id="DejaVuSans-115"/>
      <path d="M 8.015625 75.875 
L 15.828125 75.875 
Q 23.140625 64.359375 26.78125 53.3125 
Q 30.421875 42.28125 30.421875 31.390625 
Q 30.421875 20.453125 26.78125 9.375 
Q 23.140625 -1.703125 15.828125 -13.1875 
L 8.015625 -13.1875 
Q 14.5 -2 17.703125 9.0625 
Q 20.90625 20.125 20.90625 31.390625 
Q 20.90625 42.671875 17.703125 53.65625 
Q 14.5 64.65625 8.015625 75.875 
z
" id="DejaVuSans-41"/>
     </defs>
     <g transform="translate(130.208594 346.070312)scale(0.1 -0.1)">
      <use xlink:href="#DejaVuSans-84"/>
      <use x="46.333984" xlink:href="#DejaVuSans-114"/>
      <use x="87.447266" xlink:href="#DejaVuSans-117"/>
      <use x="150.826172" xlink:href="#DejaVuSans-101"/>
      <use x="212.349609" xlink:href="#DejaVuSans-32"/>
      <use x="244.136719" xlink:href="#DejaVuSans-84"/>
      <use x="290.470703" xlink:href="#DejaVuSans-114"/>
      <use x="331.583984" xlink:href="#DejaVuSans-97"/>
      <use x="392.863281" xlink:href="#DejaVuSans-106"/>
      <use x="420.646484" xlink:href="#DejaVuSans-101"/>
      <use x="482.169922" xlink:href="#DejaVuSans-99"/>
      <use x="537.150391" xlink:href="#DejaVuSans-116"/>
      <use x="576.359375" xlink:href="#DejaVuSans-111"/>
      <use x="637.541016" xlink:href="#DejaVuSans-114"/>
      <use x="678.654297" xlink:href="#DejaVuSans-121"/>
      <use x="737.833984" xlink:href="#DejaVuSans-32"/>
      <use x="769.621094" xlink:href="#DejaVuSans-68"/>
      <use x="846.623047" xlink:href="#DejaVuSans-117"/>
      <use x="910.001953" xlink:href="#DejaVuSans-114"/>
      <use x="951.115234" xlink:href="#DejaVuSans-97"/>
      <use x="1012.394531" xlink:href="#DejaVuSans-116"/>
      <use x="1051.603516" xlink:href="#DejaVuSans-105"/>
      <use x="1079.386719" xlink:href="#DejaVuSans-111"/>
      <use x="1140.568359" xlink:href="#DejaVuSans-110"/>
      <use x="1203.947266" xlink:href="#DejaVuSans-32"/>
      <use x="1235.734375" xlink:href="#DejaVuSans-40"/>
      <use x="1274.748047" xlink:href="#DejaVuSans-115"/>
      <use x="1326.847656" xlink:href="#DejaVuSans-41"/>
     </g>
    </g>
   </g>
   <g id="matplotlib.axis_2">
    <g id="ytick_1">
     <g id="line2d_9">
      <defs>
       <path d="M 0 0 
L -3.5 0 
" id="meaeb101301" style="stroke:#000000;stroke-width:0.8;"/>
      </defs>
      <g>
       <use style="stroke:#000000;stroke-width:0.8;" x="47.8" xlink:href="#meaeb101301" y="296.495141"/>
      </g>
     </g>
     <g id="text_10">
      <!-- 0.6 -->
      <g transform="translate(24.896875 300.294359)scale(0.1 -0.1)">
       <use xlink:href="#DejaVuSans-48"/>
       <use x="63.623047" xlink:href="#DejaVuSans-46"/>
       <use x="95.410156" xlink:href="#DejaVuSans-54"/>
      </g>
     </g>
    </g>
    <g id="ytick_2">
     <g id="line2d_10">
      <g>
       <use style="stroke:#000000;stroke-width:0.8;" x="47.8" xlink:href="#meaeb101301" y="259.7734"/>
      </g>
     </g>
     <g id="text_11">
      <!-- 0.8 -->
      <g transform="translate(24.896875 263.572619)scale(0.1 -0.1)">
       <use xlink:href="#DejaVuSans-48"/>
       <use x="63.623047" xlink:href="#DejaVuSans-46"/>
       <use x="95.410156" xlink:href="#DejaVuSans-56"/>
      </g>
     </g>
    </g>
    <g id="ytick_3">
     <g id="line2d_11">
      <g>
       <use style="stroke:#000000;stroke-width:0.8;" x="47.8" xlink:href="#meaeb101301" y="223.05166"/>
      </g>
     </g>
     <g id="text_12">
      <!-- 1.0 -->
      <g transform="translate(24.896875 226.850878)scale(0.1 -0.1)">
       <use xlink:href="#DejaVuSans-49"/>
       <use x="63.623047" xlink:href="#DejaVuSans-46"/>
       <use x="95.410156" xlink:href="#DejaVuSans-48"/>
      </g>
     </g>
    </g>
    <g id="ytick_4">
     <g id="line2d_12">
      <g>
       <use style="stroke:#000000;stroke-width:0.8;" x="47.8" xlink:href="#meaeb101301" y="186.329919"/>
      </g>
     </g>
     <g id="text_13">
      <!-- 1.2 -->
      <g transform="translate(24.896875 190.129138)scale(0.1 -0.1)">
       <use xlink:href="#DejaVuSans-49"/>
       <use x="63.623047" xlink:href="#DejaVuSans-46"/>
       <use x="95.410156" xlink:href="#DejaVuSans-50"/>
      </g>
     </g>
    </g>
    <g id="ytick_5">
     <g id="line2d_13">
      <g>
       <use style="stroke:#000000;stroke-width:0.8;" x="47.8" xlink:href="#meaeb101301" y="149.608179"/>
      </g>
     </g>
     <g id="text_14">
      <!-- 1.4 -->
      <g transform="translate(24.896875 153.407398)scale(0.1 -0.1)">
       <use xlink:href="#DejaVuSans-49"/>
       <use x="63.623047" xlink:href="#DejaVuSans-46"/>
       <use x="95.410156" xlink:href="#DejaVuSans-52"/>
      </g>
     </g>
    </g>
    <g id="ytick_6">
     <g id="line2d_14">
      <g>
       <use style="stroke:#000000;stroke-width:0.8;" x="47.8" xlink:href="#meaeb101301" y="112.886438"/>
      </g>
     </g>
     <g id="text_15">
      <!-- 1.6 -->
      <g transform="translate(24.896875 116.685657)scale(0.1 -0.1)">
       <use xlink:href="#DejaVuSans-49"/>
       <use x="63.623047" xlink:href="#DejaVuSans-46"/>
       <use x="95.410156" xlink:href="#DejaVuSans-54"/>
      </g>
     </g>
    </g>
    <g id="ytick_7">
     <g id="line2d_15">
      <g>
       <use style="stroke:#000000;stroke-width:0.8;" x="47.8" xlink:href="#meaeb101301" y="76.164698"/>
      </g>
     </g>
     <g id="text_16">
      <!-- 1.8 -->
      <g transform="translate(24.896875 79.963917)scale(0.1 -0.1)">
       <use xlink:href="#DejaVuSans-49"/>
       <use x="63.623047" xlink:href="#DejaVuSans-46"/>
       <use x="95.410156" xlink:href="#DejaVuSans-56"/>
      </g>
     </g>
    </g>
    <g id="ytick_8">
     <g id="line2d_16">
      <g>
       <use style="stroke:#000000;stroke-width:0.8;" x="47.8" xlink:href="#meaeb101301" y="39.442958"/>
      </g>
     </g>
     <g id="text_17">
      <!-- 2.0 -->
      <g transform="translate(24.896875 43.242176)scale(0.1 -0.1)">
       <use xlink:href="#DejaVuSans-50"/>
       <use x="63.623047" xlink:href="#DejaVuSans-46"/>
       <use x="95.410156" xlink:href="#DejaVuSans-48"/>
      </g>
     </g>
    </g>
    <g id="text_18">
     <!-- Predicted Trajectory Duration (s) -->
     <defs>
      <path d="M 19.671875 64.796875 
L 19.671875 37.40625 
L 32.078125 37.40625 
Q 38.96875 37.40625 42.71875 40.96875 
Q 46.484375 44.53125 46.484375 51.125 
Q 46.484375 57.671875 42.71875 61.234375 
Q 38.96875 64.796875 32.078125 64.796875 
z
M 9.8125 72.90625 
L 32.078125 72.90625 
Q 44.34375 72.90625 50.609375 67.359375 
Q 56.890625 61.8125 56.890625 51.125 
Q 56.890625 40.328125 50.609375 34.8125 
Q 44.34375 29.296875 32.078125 29.296875 
L 19.671875 29.296875 
L 19.671875 0 
L 9.8125 0 
z
" id="DejaVuSans-80"/>
      <path d="M 45.40625 46.390625 
L 45.40625 75.984375 
L 54.390625 75.984375 
L 54.390625 0 
L 45.40625 0 
L 45.40625 8.203125 
Q 42.578125 3.328125 38.25 0.953125 
Q 33.9375 -1.421875 27.875 -1.421875 
Q 17.96875 -1.421875 11.734375 6.484375 
Q 5.515625 14.40625 5.515625 27.296875 
Q 5.515625 40.1875 11.734375 48.09375 
Q 17.96875 56 27.875 56 
Q 33.9375 56 38.25 53.625 
Q 42.578125 51.265625 45.40625 46.390625 
z
M 14.796875 27.296875 
Q 14.796875 17.390625 18.875 11.75 
Q 22.953125 6.109375 30.078125 6.109375 
Q 37.203125 6.109375 41.296875 11.75 
Q 45.40625 17.390625 45.40625 27.296875 
Q 45.40625 37.203125 41.296875 42.84375 
Q 37.203125 48.484375 30.078125 48.484375 
Q 22.953125 48.484375 18.875 42.84375 
Q 14.796875 37.203125 14.796875 27.296875 
z
" id="DejaVuSans-100"/>
     </defs>
     <g transform="translate(18.817188 245.441406)rotate(-90)scale(0.1 -0.1)">
      <use xlink:href="#DejaVuSans-80"/>
      <use x="58.552734" xlink:href="#DejaVuSans-114"/>
      <use x="97.416016" xlink:href="#DejaVuSans-101"/>
      <use x="158.939453" xlink:href="#DejaVuSans-100"/>
      <use x="222.416016" xlink:href="#DejaVuSans-105"/>
      <use x="250.199219" xlink:href="#DejaVuSans-99"/>
      <use x="305.179688" xlink:href="#DejaVuSans-116"/>
      <use x="344.388672" xlink:href="#DejaVuSans-101"/>
      <use x="405.912109" xlink:href="#DejaVuSans-100"/>
      <use x="469.388672" xlink:href="#DejaVuSans-32"/>
      <use x="501.175781" xlink:href="#DejaVuSans-84"/>
      <use x="547.509766" xlink:href="#DejaVuSans-114"/>
      <use x="588.623047" xlink:href="#DejaVuSans-97"/>
      <use x="649.902344" xlink:href="#DejaVuSans-106"/>
      <use x="677.685547" xlink:href="#DejaVuSans-101"/>
      <use x="739.208984" xlink:href="#DejaVuSans-99"/>
      <use x="794.189453" xlink:href="#DejaVuSans-116"/>
      <use x="833.398438" xlink:href="#DejaVuSans-111"/>
      <use x="894.580078" xlink:href="#DejaVuSans-114"/>
      <use x="935.693359" xlink:href="#DejaVuSans-121"/>
      <use x="994.873047" xlink:href="#DejaVuSans-32"/>
      <use x="1026.660156" xlink:href="#DejaVuSans-68"/>
      <use x="1103.662109" xlink:href="#DejaVuSans-117"/>
      <use x="1167.041016" xlink:href="#DejaVuSans-114"/>
      <use x="1208.154297" xlink:href="#DejaVuSans-97"/>
      <use x="1269.433594" xlink:href="#DejaVuSans-116"/>
      <use x="1308.642578" xlink:href="#DejaVuSans-105"/>
      <use x="1336.425781" xlink:href="#DejaVuSans-111"/>
      <use x="1397.607422" xlink:href="#DejaVuSans-110"/>
      <use x="1460.986328" xlink:href="#DejaVuSans-32"/>
      <use x="1492.773438" xlink:href="#DejaVuSans-40"/>
      <use x="1531.787109" xlink:href="#DejaVuSans-115"/>
      <use x="1583.886719" xlink:href="#DejaVuSans-41"/>
     </g>
    </g>
   </g>
   <g id="line2d_17">
    <path clip-path="url(#pd42af47d6b)" d="M 101.157895 234.791478 
L 103.179027 233.966734 
L 105.200159 233.14199 
L 107.221292 232.317246 
L 109.242424 231.492502 
L 111.263557 230.667758 
L 113.284689 229.843014 
L 115.305821 229.01827 
L 117.326954 228.193526 
L 119.348086 227.368782 
L 121.369219 226.544038 
L 123.390351 225.719294 
L 125.411483 224.89455 
L 127.432616 224.069806 
L 129.453748 223.245062 
L 131.47488 222.420318 
L 133.496013 221.595574 
L 135.517145 220.77083 
L 137.538278 219.946086 
L 139.55941 219.121342 
L 141.580542 218.296598 
L 143.601675 217.471854 
L 145.622807 216.64711 
L 147.643939 215.822366 
L 149.665072 214.997622 
L 151.686204 214.172878 
L 153.707337 213.348134 
L 155.728469 212.52339 
L 157.749601 211.698646 
L 159.770734 210.873902 
L 161.791866 210.049158 
L 163.812998 209.224414 
L 165.834131 208.39967 
L 167.855263 207.574927 
L 169.876396 206.750183 
L 171.897528 205.925439 
L 173.91866 205.100695 
L 175.939793 204.275951 
L 177.960925 203.451207 
L 179.982057 202.626463 
L 182.00319 201.801719 
L 184.024322 200.976975 
L 186.045455 200.152231 
L 188.066587 199.327487 
L 190.087719 198.502743 
L 192.108852 197.677999 
L 194.129984 196.853255 
L 196.151116 196.028511 
L 198.172249 195.203767 
L 200.193381 194.379023 
L 202.214514 193.554279 
L 204.235646 192.729535 
L 206.256778 191.904791 
L 208.277911 191.080047 
L 210.299043 190.255303 
L 212.320175 189.430559 
L 214.341308 188.605815 
L 216.36244 187.781071 
L 218.383573 186.956327 
L 220.404705 186.131583 
L 222.425837 185.306839 
L 224.44697 184.482095 
L 226.468102 183.657351 
L 228.489234 182.832607 
L 230.510367 182.007863 
L 232.531499 181.183119 
L 234.552632 180.358375 
L 236.573764 179.533631 
L 238.594896 178.708887 
L 240.616029 177.884143 
L 242.637161 177.059399 
L 244.658293 176.234655 
L 246.679426 175.409911 
L 248.700558 174.585167 
L 250.721691 173.760423 
L 252.742823 172.93568 
L 254.763955 172.110936 
L 256.785088 171.286192 
L 258.80622 170.461448 
L 260.827352 169.636704 
L 262.848485 168.81196 
L 264.869617 167.987216 
L 266.89075 167.162472 
L 268.911882 166.337728 
L 270.933014 165.512984 
L 272.954147 164.68824 
L 274.975279 163.863496 
L 276.996411 163.038752 
L 279.017544 162.214008 
L 281.038676 161.389264 
L 283.059809 160.56452 
L 285.080941 159.739776 
L 287.102073 158.915032 
L 289.123206 158.090288 
L 291.144338 157.265544 
L 293.16547 156.4408 
L 295.186603 155.616056 
L 297.207735 154.791312 
L 299.228868 153.966568 
L 301.25 153.141824 
" style="fill:none;stroke:#1f77b4;stroke-linecap:square;stroke-width:2.25;"/>
   </g>
   <g id="line2d_18">
    <path clip-path="url(#pd42af47d6b)" d="M 61.5 303.839489 
L 335.5 24.754261 
" style="fill:none;stroke:#ff0000;stroke-linecap:square;"/>
   </g>
   <g id="patch_3">
    <path d="M 47.8 317.79375 
L 47.8 10.8 
" style="fill:none;stroke:#000000;stroke-linecap:square;stroke-linejoin:miter;stroke-width:0.8;"/>
   </g>
   <g id="patch_4">
    <path d="M 47.8 317.79375 
L 349.2 317.79375 
" style="fill:none;stroke:#000000;stroke-linecap:square;stroke-linejoin:miter;stroke-width:0.8;"/>
   </g>
   <g id="text_19">
    <!-- Duration Prediction -->
    <g transform="translate(140.730312 4.8)scale(0.12 -0.12)">
     <use xlink:href="#DejaVuSans-68"/>
     <use x="77.001953" xlink:href="#DejaVuSans-117"/>
     <use x="140.380859" xlink:href="#DejaVuSans-114"/>
     <use x="181.494141" xlink:href="#DejaVuSans-97"/>
     <use x="242.773438" xlink:href="#DejaVuSans-116"/>
     <use x="281.982422" xlink:href="#DejaVuSans-105"/>
     <use x="309.765625" xlink:href="#DejaVuSans-111"/>
     <use x="370.947266" xlink:href="#DejaVuSans-110"/>
     <use x="434.326172" xlink:href="#DejaVuSans-32"/>
     <use x="466.113281" xlink:href="#DejaVuSans-80"/>
     <use x="524.666016" xlink:href="#DejaVuSans-114"/>
     <use x="563.529297" xlink:href="#DejaVuSans-101"/>
     <use x="625.052734" xlink:href="#DejaVuSans-100"/>
     <use x="688.529297" xlink:href="#DejaVuSans-105"/>
     <use x="716.3125" xlink:href="#DejaVuSans-99"/>
     <use x="771.292969" xlink:href="#DejaVuSans-116"/>
     <use x="810.501953" xlink:href="#DejaVuSans-105"/>
     <use x="838.285156" xlink:href="#DejaVuSans-111"/>
     <use x="899.466797" xlink:href="#DejaVuSans-110"/>
    </g>
   </g>
   <g id="legend_1">
    <g id="patch_5">
     <path d="M 54.8 48.15625 
L 192.05625 48.15625 
Q 194.05625 48.15625 194.05625 46.15625 
L 194.05625 17.8 
Q 194.05625 15.8 192.05625 15.8 
L 54.8 15.8 
Q 52.8 15.8 52.8 17.8 
L 52.8 46.15625 
Q 52.8 48.15625 54.8 48.15625 
z
" style="fill:#ffffff;opacity:0.8;stroke:#cccccc;stroke-linejoin:miter;"/>
    </g>
    <g id="line2d_19">
     <path d="M 56.8 23.898438 
L 76.8 23.898438 
" style="fill:none;stroke:#1f77b4;stroke-linecap:square;stroke-width:2.25;"/>
    </g>
    <g id="line2d_20"/>
    <g id="text_20">
     <!-- Predicted Correlation -->
     <defs>
      <path d="M 64.40625 67.28125 
L 64.40625 56.890625 
Q 59.421875 61.53125 53.78125 63.8125 
Q 48.140625 66.109375 41.796875 66.109375 
Q 29.296875 66.109375 22.65625 58.46875 
Q 16.015625 50.828125 16.015625 36.375 
Q 16.015625 21.96875 22.65625 14.328125 
Q 29.296875 6.6875 41.796875 6.6875 
Q 48.140625 6.6875 53.78125 8.984375 
Q 59.421875 11.28125 64.40625 15.921875 
L 64.40625 5.609375 
Q 59.234375 2.09375 53.4375 0.328125 
Q 47.65625 -1.421875 41.21875 -1.421875 
Q 24.65625 -1.421875 15.125 8.703125 
Q 5.609375 18.84375 5.609375 36.375 
Q 5.609375 53.953125 15.125 64.078125 
Q 24.65625 74.21875 41.21875 74.21875 
Q 47.75 74.21875 53.53125 72.484375 
Q 59.328125 70.75 64.40625 67.28125 
z
" id="DejaVuSans-67"/>
      <path d="M 9.421875 75.984375 
L 18.40625 75.984375 
L 18.40625 0 
L 9.421875 0 
z
" id="DejaVuSans-108"/>
     </defs>
     <g transform="translate(84.8 27.398438)scale(0.1 -0.1)">
      <use xlink:href="#DejaVuSans-80"/>
      <use x="58.552734" xlink:href="#DejaVuSans-114"/>
      <use x="97.416016" xlink:href="#DejaVuSans-101"/>
      <use x="158.939453" xlink:href="#DejaVuSans-100"/>
      <use x="222.416016" xlink:href="#DejaVuSans-105"/>
      <use x="250.199219" xlink:href="#DejaVuSans-99"/>
      <use x="305.179688" xlink:href="#DejaVuSans-116"/>
      <use x="344.388672" xlink:href="#DejaVuSans-101"/>
      <use x="405.912109" xlink:href="#DejaVuSans-100"/>
      <use x="469.388672" xlink:href="#DejaVuSans-32"/>
      <use x="501.175781" xlink:href="#DejaVuSans-67"/>
      <use x="571" xlink:href="#DejaVuSans-111"/>
      <use x="632.181641" xlink:href="#DejaVuSans-114"/>
      <use x="671.544922" xlink:href="#DejaVuSans-114"/>
      <use x="710.408203" xlink:href="#DejaVuSans-101"/>
      <use x="771.931641" xlink:href="#DejaVuSans-108"/>
      <use x="799.714844" xlink:href="#DejaVuSans-97"/>
      <use x="860.994141" xlink:href="#DejaVuSans-116"/>
      <use x="900.203125" xlink:href="#DejaVuSans-105"/>
      <use x="927.986328" xlink:href="#DejaVuSans-111"/>
      <use x="989.167969" xlink:href="#DejaVuSans-110"/>
     </g>
    </g>
    <g id="line2d_21">
     <path d="M 56.8 38.576563 
L 76.8 38.576563 
" style="fill:none;stroke:#ff0000;stroke-linecap:square;"/>
    </g>
    <g id="line2d_22"/>
    <g id="text_21">
     <!-- Real Correlation -->
     <defs>
      <path d="M 44.390625 34.1875 
Q 47.5625 33.109375 50.5625 29.59375 
Q 53.5625 26.078125 56.59375 19.921875 
L 66.609375 0 
L 56 0 
L 46.6875 18.703125 
Q 43.0625 26.03125 39.671875 28.421875 
Q 36.28125 30.8125 30.421875 30.8125 
L 19.671875 30.8125 
L 19.671875 0 
L 9.8125 0 
L 9.8125 72.90625 
L 32.078125 72.90625 
Q 44.578125 72.90625 50.734375 67.671875 
Q 56.890625 62.453125 56.890625 51.90625 
Q 56.890625 45.015625 53.6875 40.46875 
Q 50.484375 35.9375 44.390625 34.1875 
z
M 19.671875 64.796875 
L 19.671875 38.921875 
L 32.078125 38.921875 
Q 39.203125 38.921875 42.84375 42.21875 
Q 46.484375 45.515625 46.484375 51.90625 
Q 46.484375 58.296875 42.84375 61.546875 
Q 39.203125 64.796875 32.078125 64.796875 
z
" id="DejaVuSans-82"/>
     </defs>
     <g transform="translate(84.8 42.076563)scale(0.1 -0.1)">
      <use xlink:href="#DejaVuSans-82"/>
      <use x="64.982422" xlink:href="#DejaVuSans-101"/>
      <use x="126.505859" xlink:href="#DejaVuSans-97"/>
      <use x="187.785156" xlink:href="#DejaVuSans-108"/>
      <use x="215.568359" xlink:href="#DejaVuSans-32"/>
      <use x="247.355469" xlink:href="#DejaVuSans-67"/>
      <use x="317.179688" xlink:href="#DejaVuSans-111"/>
      <use x="378.361328" xlink:href="#DejaVuSans-114"/>
      <use x="417.724609" xlink:href="#DejaVuSans-114"/>
      <use x="456.587891" xlink:href="#DejaVuSans-101"/>
      <use x="518.111328" xlink:href="#DejaVuSans-108"/>
      <use x="545.894531" xlink:href="#DejaVuSans-97"/>
      <use x="607.173828" xlink:href="#DejaVuSans-116"/>
      <use x="646.382812" xlink:href="#DejaVuSans-105"/>
      <use x="674.166016" xlink:href="#DejaVuSans-111"/>
      <use x="735.347656" xlink:href="#DejaVuSans-110"/>
     </g>
    </g>
   </g>
  </g>
 </g>
 <defs>
  <clipPath id="pd42af47d6b">
   <rect height="306.99375" width="301.4" x="47.8" y="10.8"/>
  </clipPath>
 </defs>
</svg>
