<?xml version="1.0" encoding="utf-8" standalone="no"?>
<!DOCTYPE svg PUBLIC "-//W3C//DTD SVG 1.1//EN"
  "http://www.w3.org/Graphics/SVG/1.1/DTD/svg11.dtd">
<!-- Created with matplotlib (https://matplotlib.org/) -->
<svg height="360pt" version="1.1" viewBox="0 0 360 360" width="360pt" xmlns="http://www.w3.org/2000/svg" xmlns:xlink="http://www.w3.org/1999/xlink">
 <defs>
  <style type="text/css">
*{stroke-linecap:butt;stroke-linejoin:round;}
  </style>
 </defs>
 <g id="figure_1">
  <g id="patch_1">
   <path d="M 0 360 
L 360 360 
L 360 0 
L 0 0 
z
" style="fill:#ffffff;"/>
  </g>
  <g id="axes_1">
   <g id="patch_2">
    <path d="M 44.55 317.79375 
L 349.2 317.79375 
L 349.2 10.8 
L 44.55 10.8 
z
" style="fill:#ffffff;"/>
   </g>
   <g id="PathCollection_1">
    <defs>
     <path d="M 0 3 
C 0.795609 3 1.55874 2.683901 2.12132 2.12132 
C 2.683901 1.55874 3 0.795609 3 0 
C 3 -0.795609 2.683901 -1.55874 2.12132 -2.12132 
C 1.55874 -2.683901 0.795609 -3 0 -3 
C -0.795609 -3 -1.55874 -2.683901 -2.12132 -2.12132 
C -2.683901 -1.55874 -3 -0.795609 -3 0 
C -3 0.795609 -2.683901 1.55874 -2.12132 2.12132 
C -1.55874 2.683901 -0.795609 3 0 3 
z
" id="mcf72efb839" style="stroke:#1f77b4;stroke-opacity:0.8;"/>
    </defs>
    <g clip-path="url(#p95aa02f963)">
     <use style="fill:#1f77b4;fill-opacity:0.8;stroke:#1f77b4;stroke-opacity:0.8;" x="185.213577" xlink:href="#mcf72efb839" y="222.561418"/>
     <use style="fill:#1f77b4;fill-opacity:0.8;stroke:#1f77b4;stroke-opacity:0.8;" x="123.454205" xlink:href="#mcf72efb839" y="207.755046"/>
     <use style="fill:#1f77b4;fill-opacity:0.8;stroke:#1f77b4;stroke-opacity:0.8;" x="270.021941" xlink:href="#mcf72efb839" y="118.783956"/>
     <use style="fill:#1f77b4;fill-opacity:0.8;stroke:#1f77b4;stroke-opacity:0.8;" x="81.397366" xlink:href="#mcf72efb839" y="230.062028"/>
     <use style="fill:#1f77b4;fill-opacity:0.8;stroke:#1f77b4;stroke-opacity:0.8;" x="174.153224" xlink:href="#mcf72efb839" y="165.332395"/>
     <use style="fill:#1f77b4;fill-opacity:0.8;stroke:#1f77b4;stroke-opacity:0.8;" x="247.947736" xlink:href="#mcf72efb839" y="129.13961"/>
     <use style="fill:#1f77b4;fill-opacity:0.8;stroke:#1f77b4;stroke-opacity:0.8;" x="115.245524" xlink:href="#mcf72efb839" y="185.081094"/>
     <use style="fill:#1f77b4;fill-opacity:0.8;stroke:#1f77b4;stroke-opacity:0.8;" x="109.434428" xlink:href="#mcf72efb839" y="292.65838"/>
     <use style="fill:#1f77b4;fill-opacity:0.8;stroke:#1f77b4;stroke-opacity:0.8;" x="209.678151" xlink:href="#mcf72efb839" y="179.532103"/>
     <use style="fill:#1f77b4;fill-opacity:0.8;stroke:#1f77b4;stroke-opacity:0.8;" x="137.644541" xlink:href="#mcf72efb839" y="185.971161"/>
     <use style="fill:#1f77b4;fill-opacity:0.8;stroke:#1f77b4;stroke-opacity:0.8;" x="248.906014" xlink:href="#mcf72efb839" y="152.233691"/>
     <use style="fill:#1f77b4;fill-opacity:0.8;stroke:#1f77b4;stroke-opacity:0.8;" x="110.579882" xlink:href="#mcf72efb839" y="230.320774"/>
     <use style="fill:#1f77b4;fill-opacity:0.8;stroke:#1f77b4;stroke-opacity:0.8;" x="96.722548" xlink:href="#mcf72efb839" y="237.216312"/>
     <use style="fill:#1f77b4;fill-opacity:0.8;stroke:#1f77b4;stroke-opacity:0.8;" x="76.317393" xlink:href="#mcf72efb839" y="238.147138"/>
     <use style="fill:#1f77b4;fill-opacity:0.8;stroke:#1f77b4;stroke-opacity:0.8;" x="56.178662" xlink:href="#mcf72efb839" y="210.926973"/>
     <use style="fill:#1f77b4;fill-opacity:0.8;stroke:#1f77b4;stroke-opacity:0.8;" x="154.659414" xlink:href="#mcf72efb839" y="201.602253"/>
     <use style="fill:#1f77b4;fill-opacity:0.8;stroke:#1f77b4;stroke-opacity:0.8;" x="91.495574" xlink:href="#mcf72efb839" y="242.020976"/>
     <use style="fill:#1f77b4;fill-opacity:0.8;stroke:#1f77b4;stroke-opacity:0.8;" x="171.151691" xlink:href="#mcf72efb839" y="180.465973"/>
     <use style="fill:#1f77b4;fill-opacity:0.8;stroke:#1f77b4;stroke-opacity:0.8;" x="44.55" xlink:href="#mcf72efb839" y="263.528471"/>
     <use style="fill:#1f77b4;fill-opacity:0.8;stroke:#1f77b4;stroke-opacity:0.8;" x="177.811575" xlink:href="#mcf72efb839" y="201.072014"/>
     <use style="fill:#1f77b4;fill-opacity:0.8;stroke:#1f77b4;stroke-opacity:0.8;" x="94.777438" xlink:href="#mcf72efb839" y="254.752285"/>
     <use style="fill:#1f77b4;fill-opacity:0.8;stroke:#1f77b4;stroke-opacity:0.8;" x="89.703655" xlink:href="#mcf72efb839" y="225.076814"/>
     <use style="fill:#1f77b4;fill-opacity:0.8;stroke:#1f77b4;stroke-opacity:0.8;" x="349.2" xlink:href="#mcf72efb839" y="180.358118"/>
     <use style="fill:#1f77b4;fill-opacity:0.8;stroke:#1f77b4;stroke-opacity:0.8;" x="252.722515" xlink:href="#mcf72efb839" y="150.019689"/>
     <use style="fill:#1f77b4;fill-opacity:0.8;stroke:#1f77b4;stroke-opacity:0.8;" x="238.012159" xlink:href="#mcf72efb839" y="158.727912"/>
     <use style="fill:#1f77b4;fill-opacity:0.8;stroke:#1f77b4;stroke-opacity:0.8;" x="220.968667" xlink:href="#mcf72efb839" y="163.987005"/>
     <use style="fill:#1f77b4;fill-opacity:0.8;stroke:#1f77b4;stroke-opacity:0.8;" x="244.913973" xlink:href="#mcf72efb839" y="130.96184"/>
     <use style="fill:#1f77b4;fill-opacity:0.8;stroke:#1f77b4;stroke-opacity:0.8;" x="146.936876" xlink:href="#mcf72efb839" y="259.894288"/>
     <use style="fill:#1f77b4;fill-opacity:0.8;stroke:#1f77b4;stroke-opacity:0.8;" x="102.784017" xlink:href="#mcf72efb839" y="171.6917"/>
     <use style="fill:#1f77b4;fill-opacity:0.8;stroke:#1f77b4;stroke-opacity:0.8;" x="213.845318" xlink:href="#mcf72efb839" y="188.911763"/>
     <use style="fill:#1f77b4;fill-opacity:0.8;stroke:#1f77b4;stroke-opacity:0.8;" x="158.242725" xlink:href="#mcf72efb839" y="177.724507"/>
     <use style="fill:#1f77b4;fill-opacity:0.8;stroke:#1f77b4;stroke-opacity:0.8;" x="120.528309" xlink:href="#mcf72efb839" y="228.329215"/>
     <use style="fill:#1f77b4;fill-opacity:0.8;stroke:#1f77b4;stroke-opacity:0.8;" x="205.212388" xlink:href="#mcf72efb839" y="203.738381"/>
     <use style="fill:#1f77b4;fill-opacity:0.8;stroke:#1f77b4;stroke-opacity:0.8;" x="71.012158" xlink:href="#mcf72efb839" y="232.07873"/>
     <use style="fill:#1f77b4;fill-opacity:0.8;stroke:#1f77b4;stroke-opacity:0.8;" x="83.844196" xlink:href="#mcf72efb839" y="256.66151"/>
     <use style="fill:#1f77b4;fill-opacity:0.8;stroke:#1f77b4;stroke-opacity:0.8;" x="122.834905" xlink:href="#mcf72efb839" y="242.907758"/>
     <use style="fill:#1f77b4;fill-opacity:0.8;stroke:#1f77b4;stroke-opacity:0.8;" x="119.747166" xlink:href="#mcf72efb839" y="239.418546"/>
     <use style="fill:#1f77b4;fill-opacity:0.8;stroke:#1f77b4;stroke-opacity:0.8;" x="106.553492" xlink:href="#mcf72efb839" y="199.560341"/>
     <use style="fill:#1f77b4;fill-opacity:0.8;stroke:#1f77b4;stroke-opacity:0.8;" x="144.302598" xlink:href="#mcf72efb839" y="223.926099"/>
     <use style="fill:#1f77b4;fill-opacity:0.8;stroke:#1f77b4;stroke-opacity:0.8;" x="142.933555" xlink:href="#mcf72efb839" y="165.489006"/>
     <use style="fill:#1f77b4;fill-opacity:0.8;stroke:#1f77b4;stroke-opacity:0.8;" x="189.447257" xlink:href="#mcf72efb839" y="197.930963"/>
     <use style="fill:#1f77b4;fill-opacity:0.8;stroke:#1f77b4;stroke-opacity:0.8;" x="196.360143" xlink:href="#mcf72efb839" y="182.618946"/>
     <use style="fill:#1f77b4;fill-opacity:0.8;stroke:#1f77b4;stroke-opacity:0.8;" x="121.128439" xlink:href="#mcf72efb839" y="200.466915"/>
     <use style="fill:#1f77b4;fill-opacity:0.8;stroke:#1f77b4;stroke-opacity:0.8;" x="115.444051" xlink:href="#mcf72efb839" y="202.737488"/>
     <use style="fill:#1f77b4;fill-opacity:0.8;stroke:#1f77b4;stroke-opacity:0.8;" x="176.965248" xlink:href="#mcf72efb839" y="181.604385"/>
    </g>
   </g>
   <g id="PolyCollection_1">
    <path clip-path="url(#p95aa02f963)" d="M 44.55 231.533153 
L 44.55 266.093672 
L 47.627273 264.458028 
L 50.704545 262.812783 
L 53.781818 261.075322 
L 56.859091 259.337633 
L 59.936364 257.59745 
L 63.013636 255.857267 
L 66.090909 254.196679 
L 69.168182 252.53005 
L 72.245455 250.873663 
L 75.322727 249.137274 
L 78.4 247.400909 
L 81.477273 245.709966 
L 84.554545 244.008945 
L 87.631818 242.212073 
L 90.709091 240.532807 
L 93.786364 238.972483 
L 96.863636 237.147529 
L 99.940909 235.44049 
L 103.018182 234.043722 
L 106.095455 232.38486 
L 109.172727 230.842395 
L 112.25 229.335358 
L 115.327273 227.627215 
L 118.404545 226.174585 
L 121.481818 224.557558 
L 124.559091 222.913551 
L 127.636364 221.268025 
L 130.713636 219.933545 
L 133.790909 218.404917 
L 136.868182 216.860846 
L 139.945455 215.427298 
L 143.022727 213.96982 
L 146.1 212.648026 
L 149.177273 211.22328 
L 152.254545 209.950604 
L 155.331818 208.828332 
L 158.409091 207.678516 
L 161.486364 206.514289 
L 164.563636 205.400791 
L 167.640909 204.184858 
L 170.718182 203.020142 
L 173.795455 201.927366 
L 176.872727 200.787618 
L 179.95 199.603401 
L 183.027273 198.594339 
L 186.104545 197.616898 
L 189.181818 196.623866 
L 192.259091 195.545636 
L 195.336364 194.561758 
L 198.413636 193.500627 
L 201.490909 192.513663 
L 204.568182 191.480353 
L 207.645455 190.446945 
L 210.722727 189.401736 
L 213.8 188.378577 
L 216.877273 187.342626 
L 219.954545 186.306794 
L 223.031818 185.270962 
L 226.109091 184.242391 
L 229.186364 183.378135 
L 232.263636 182.371731 
L 235.340909 181.28074 
L 238.418182 180.205433 
L 241.495455 179.25427 
L 244.572727 178.306453 
L 247.65 177.358636 
L 250.727273 176.40562 
L 253.804545 175.44212 
L 256.881818 174.531503 
L 259.959091 173.675904 
L 263.036364 172.817367 
L 266.113636 171.956998 
L 269.190909 170.986246 
L 272.268182 170.058526 
L 275.345455 169.073381 
L 278.422727 168.051866 
L 281.5 167.144128 
L 284.577273 166.302087 
L 287.654545 165.463986 
L 290.731818 164.623839 
L 293.809091 163.597489 
L 296.886364 162.50253 
L 299.963636 161.534688 
L 303.040909 160.68175 
L 306.118182 159.828813 
L 309.195455 158.975875 
L 312.272727 158.031525 
L 315.35 157.086087 
L 318.427273 156.139857 
L 321.504545 155.27381 
L 324.581818 154.481539 
L 327.659091 153.573078 
L 330.736364 152.697424 
L 333.813636 151.897728 
L 336.890909 151.043601 
L 339.968182 150.057571 
L 343.045455 149.193196 
L 346.122727 148.347456 
L 349.2 147.507853 
L 349.2 88.559683 
L 349.2 88.559683 
L 346.122727 90.193837 
L 343.045455 91.820136 
L 339.968182 93.479023 
L 336.890909 95.226317 
L 333.813636 96.8644 
L 330.736364 98.502513 
L 327.659091 100.157161 
L 324.581818 102.04352 
L 321.504545 103.776578 
L 318.427273 105.465108 
L 315.35 107.186163 
L 312.272727 108.955716 
L 309.195455 110.617983 
L 306.118182 112.437004 
L 303.040909 114.267128 
L 299.963636 116.005798 
L 296.886364 117.670574 
L 293.809091 119.447693 
L 290.731818 121.310653 
L 287.654545 123.12691 
L 284.577273 124.89961 
L 281.5 126.587567 
L 278.422727 128.355392 
L 275.345455 130.098452 
L 272.268182 131.830466 
L 269.190909 133.560998 
L 266.113636 135.291939 
L 263.036364 137.021269 
L 259.959091 138.861084 
L 256.881818 140.568946 
L 253.804545 142.266038 
L 250.727273 144.022502 
L 247.65 145.726714 
L 244.572727 147.406531 
L 241.495455 149.151378 
L 238.418182 150.850795 
L 235.340909 152.479642 
L 232.263636 154.228505 
L 229.186364 155.956549 
L 226.109091 157.617337 
L 223.031818 159.236134 
L 219.954545 160.790082 
L 216.877273 162.545344 
L 213.8 164.267058 
L 210.722727 165.78697 
L 207.645455 167.536911 
L 204.568182 169.126119 
L 201.490909 170.630748 
L 198.413636 172.271681 
L 195.336364 173.942347 
L 192.259091 175.626098 
L 189.181818 177.271313 
L 186.104545 178.802878 
L 183.027273 180.205891 
L 179.95 181.685441 
L 176.872727 183.213086 
L 173.795455 184.726514 
L 170.718182 186.168847 
L 167.640909 187.751574 
L 164.563636 189.165759 
L 161.486364 190.668795 
L 158.409091 192.022091 
L 155.331818 193.387634 
L 152.254545 194.637664 
L 149.177273 196.091108 
L 146.1 197.537517 
L 143.022727 198.802366 
L 139.945455 200.154333 
L 136.868182 201.351578 
L 133.790909 202.578907 
L 130.713636 203.97272 
L 127.636364 205.048089 
L 124.559091 206.074368 
L 121.481818 207.14613 
L 118.404545 208.325291 
L 115.327273 209.284339 
L 112.25 210.317894 
L 109.172727 211.434024 
L 106.095455 212.325731 
L 103.018182 213.440859 
L 99.940909 214.621912 
L 96.863636 215.720274 
L 93.786364 216.790011 
L 90.709091 217.832717 
L 87.631818 218.747602 
L 84.554545 219.75375 
L 81.477273 220.759898 
L 78.4 221.768921 
L 75.322727 222.783448 
L 72.245455 223.715291 
L 69.168182 224.562815 
L 66.090909 225.410338 
L 63.013636 226.390715 
L 59.936364 227.48048 
L 56.859091 228.261839 
L 53.781818 229.039717 
L 50.704545 229.893824 
L 47.627273 230.695009 
L 44.55 231.533153 
z
" style="fill:#1f77b4;fill-opacity:0.15;"/>
   </g>
   <g id="matplotlib.axis_1">
    <g id="xtick_1">
     <g id="line2d_1">
      <defs>
       <path d="M 0 0 
L 0 3.5 
" id="m3de29a6f47" style="stroke:#000000;stroke-width:0.8;"/>
      </defs>
      <g>
       <use style="stroke:#000000;stroke-width:0.8;" x="81.033565" xlink:href="#m3de29a6f47" y="317.79375"/>
      </g>
     </g>
     <g id="text_1">
      <!-- 20 -->
      <defs>
       <path d="M 19.1875 8.296875 
L 53.609375 8.296875 
L 53.609375 0 
L 7.328125 0 
L 7.328125 8.296875 
Q 12.9375 14.109375 22.625 23.890625 
Q 32.328125 33.6875 34.8125 36.53125 
Q 39.546875 41.84375 41.421875 45.53125 
Q 43.3125 49.21875 43.3125 52.78125 
Q 43.3125 58.59375 39.234375 62.25 
Q 35.15625 65.921875 28.609375 65.921875 
Q 23.96875 65.921875 18.8125 64.3125 
Q 13.671875 62.703125 7.8125 59.421875 
L 7.8125 69.390625 
Q 13.765625 71.78125 18.9375 73 
Q 24.125 74.21875 28.421875 74.21875 
Q 39.75 74.21875 46.484375 68.546875 
Q 53.21875 62.890625 53.21875 53.421875 
Q 53.21875 48.921875 51.53125 44.890625 
Q 49.859375 40.875 45.40625 35.40625 
Q 44.1875 33.984375 37.640625 27.21875 
Q 31.109375 20.453125 19.1875 8.296875 
z
" id="DejaVuSans-50"/>
       <path d="M 31.78125 66.40625 
Q 24.171875 66.40625 20.328125 58.90625 
Q 16.5 51.421875 16.5 36.375 
Q 16.5 21.390625 20.328125 13.890625 
Q 24.171875 6.390625 31.78125 6.390625 
Q 39.453125 6.390625 43.28125 13.890625 
Q 47.125 21.390625 47.125 36.375 
Q 47.125 51.421875 43.28125 58.90625 
Q 39.453125 66.40625 31.78125 66.40625 
z
M 31.78125 74.21875 
Q 44.046875 74.21875 50.515625 64.515625 
Q 56.984375 54.828125 56.984375 36.375 
Q 56.984375 17.96875 50.515625 8.265625 
Q 44.046875 -1.421875 31.78125 -1.421875 
Q 19.53125 -1.421875 13.0625 8.265625 
Q 6.59375 17.96875 6.59375 36.375 
Q 6.59375 54.828125 13.0625 64.515625 
Q 19.53125 74.21875 31.78125 74.21875 
z
" id="DejaVuSans-48"/>
      </defs>
      <g transform="translate(74.671065 332.392187)scale(0.1 -0.1)">
       <use xlink:href="#DejaVuSans-50"/>
       <use x="63.623047" xlink:href="#DejaVuSans-48"/>
      </g>
     </g>
    </g>
    <g id="xtick_2">
     <g id="line2d_2">
      <g>
       <use style="stroke:#000000;stroke-width:0.8;" x="143.293194" xlink:href="#m3de29a6f47" y="317.79375"/>
      </g>
     </g>
     <g id="text_2">
      <!-- 30 -->
      <defs>
       <path d="M 40.578125 39.3125 
Q 47.65625 37.796875 51.625 33 
Q 55.609375 28.21875 55.609375 21.1875 
Q 55.609375 10.40625 48.1875 4.484375 
Q 40.765625 -1.421875 27.09375 -1.421875 
Q 22.515625 -1.421875 17.65625 -0.515625 
Q 12.796875 0.390625 7.625 2.203125 
L 7.625 11.71875 
Q 11.71875 9.328125 16.59375 8.109375 
Q 21.484375 6.890625 26.8125 6.890625 
Q 36.078125 6.890625 40.9375 10.546875 
Q 45.796875 14.203125 45.796875 21.1875 
Q 45.796875 27.640625 41.28125 31.265625 
Q 36.765625 34.90625 28.71875 34.90625 
L 20.21875 34.90625 
L 20.21875 43.015625 
L 29.109375 43.015625 
Q 36.375 43.015625 40.234375 45.921875 
Q 44.09375 48.828125 44.09375 54.296875 
Q 44.09375 59.90625 40.109375 62.90625 
Q 36.140625 65.921875 28.71875 65.921875 
Q 24.65625 65.921875 20.015625 65.03125 
Q 15.375 64.15625 9.8125 62.3125 
L 9.8125 71.09375 
Q 15.4375 72.65625 20.34375 73.4375 
Q 25.25 74.21875 29.59375 74.21875 
Q 40.828125 74.21875 47.359375 69.109375 
Q 53.90625 64.015625 53.90625 55.328125 
Q 53.90625 49.265625 50.4375 45.09375 
Q 46.96875 40.921875 40.578125 39.3125 
z
" id="DejaVuSans-51"/>
      </defs>
      <g transform="translate(136.930694 332.392187)scale(0.1 -0.1)">
       <use xlink:href="#DejaVuSans-51"/>
       <use x="63.623047" xlink:href="#DejaVuSans-48"/>
      </g>
     </g>
    </g>
    <g id="xtick_3">
     <g id="line2d_3">
      <g>
       <use style="stroke:#000000;stroke-width:0.8;" x="205.552823" xlink:href="#m3de29a6f47" y="317.79375"/>
      </g>
     </g>
     <g id="text_3">
      <!-- 40 -->
      <defs>
       <path d="M 37.796875 64.3125 
L 12.890625 25.390625 
L 37.796875 25.390625 
z
M 35.203125 72.90625 
L 47.609375 72.90625 
L 47.609375 25.390625 
L 58.015625 25.390625 
L 58.015625 17.1875 
L 47.609375 17.1875 
L 47.609375 0 
L 37.796875 0 
L 37.796875 17.1875 
L 4.890625 17.1875 
L 4.890625 26.703125 
z
" id="DejaVuSans-52"/>
      </defs>
      <g transform="translate(199.190323 332.392187)scale(0.1 -0.1)">
       <use xlink:href="#DejaVuSans-52"/>
       <use x="63.623047" xlink:href="#DejaVuSans-48"/>
      </g>
     </g>
    </g>
    <g id="xtick_4">
     <g id="line2d_4">
      <g>
       <use style="stroke:#000000;stroke-width:0.8;" x="267.812451" xlink:href="#m3de29a6f47" y="317.79375"/>
      </g>
     </g>
     <g id="text_4">
      <!-- 50 -->
      <defs>
       <path d="M 10.796875 72.90625 
L 49.515625 72.90625 
L 49.515625 64.59375 
L 19.828125 64.59375 
L 19.828125 46.734375 
Q 21.96875 47.46875 24.109375 47.828125 
Q 26.265625 48.1875 28.421875 48.1875 
Q 40.625 48.1875 47.75 41.5 
Q 54.890625 34.8125 54.890625 23.390625 
Q 54.890625 11.625 47.5625 5.09375 
Q 40.234375 -1.421875 26.90625 -1.421875 
Q 22.3125 -1.421875 17.546875 -0.640625 
Q 12.796875 0.140625 7.71875 1.703125 
L 7.71875 11.625 
Q 12.109375 9.234375 16.796875 8.0625 
Q 21.484375 6.890625 26.703125 6.890625 
Q 35.15625 6.890625 40.078125 11.328125 
Q 45.015625 15.765625 45.015625 23.390625 
Q 45.015625 31 40.078125 35.4375 
Q 35.15625 39.890625 26.703125 39.890625 
Q 22.75 39.890625 18.8125 39.015625 
Q 14.890625 38.140625 10.796875 36.28125 
z
" id="DejaVuSans-53"/>
      </defs>
      <g transform="translate(261.449951 332.392187)scale(0.1 -0.1)">
       <use xlink:href="#DejaVuSans-53"/>
       <use x="63.623047" xlink:href="#DejaVuSans-48"/>
      </g>
     </g>
    </g>
    <g id="xtick_5">
     <g id="line2d_5">
      <g>
       <use style="stroke:#000000;stroke-width:0.8;" x="330.07208" xlink:href="#m3de29a6f47" y="317.79375"/>
      </g>
     </g>
     <g id="text_5">
      <!-- 60 -->
      <defs>
       <path d="M 33.015625 40.375 
Q 26.375 40.375 22.484375 35.828125 
Q 18.609375 31.296875 18.609375 23.390625 
Q 18.609375 15.53125 22.484375 10.953125 
Q 26.375 6.390625 33.015625 6.390625 
Q 39.65625 6.390625 43.53125 10.953125 
Q 47.40625 15.53125 47.40625 23.390625 
Q 47.40625 31.296875 43.53125 35.828125 
Q 39.65625 40.375 33.015625 40.375 
z
M 52.59375 71.296875 
L 52.59375 62.3125 
Q 48.875 64.0625 45.09375 64.984375 
Q 41.3125 65.921875 37.59375 65.921875 
Q 27.828125 65.921875 22.671875 59.328125 
Q 17.53125 52.734375 16.796875 39.40625 
Q 19.671875 43.65625 24.015625 45.921875 
Q 28.375 48.1875 33.59375 48.1875 
Q 44.578125 48.1875 50.953125 41.515625 
Q 57.328125 34.859375 57.328125 23.390625 
Q 57.328125 12.15625 50.6875 5.359375 
Q 44.046875 -1.421875 33.015625 -1.421875 
Q 20.359375 -1.421875 13.671875 8.265625 
Q 6.984375 17.96875 6.984375 36.375 
Q 6.984375 53.65625 15.1875 63.9375 
Q 23.390625 74.21875 37.203125 74.21875 
Q 40.921875 74.21875 44.703125 73.484375 
Q 48.484375 72.75 52.59375 71.296875 
z
" id="DejaVuSans-54"/>
      </defs>
      <g transform="translate(323.70958 332.392187)scale(0.1 -0.1)">
       <use xlink:href="#DejaVuSans-54"/>
       <use x="63.623047" xlink:href="#DejaVuSans-48"/>
      </g>
     </g>
    </g>
    <g id="text_6">
     <!-- True Mean Velocity (degrees/s) -->
     <defs>
      <path d="M -0.296875 72.90625 
L 61.375 72.90625 
L 61.375 64.59375 
L 35.5 64.59375 
L 35.5 0 
L 25.59375 0 
L 25.59375 64.59375 
L -0.296875 64.59375 
z
" id="DejaVuSans-84"/>
      <path d="M 41.109375 46.296875 
Q 39.59375 47.171875 37.8125 47.578125 
Q 36.03125 48 33.890625 48 
Q 26.265625 48 22.1875 43.046875 
Q 18.109375 38.09375 18.109375 28.8125 
L 18.109375 0 
L 9.078125 0 
L 9.078125 54.6875 
L 18.109375 54.6875 
L 18.109375 46.1875 
Q 20.953125 51.171875 25.484375 53.578125 
Q 30.03125 56 36.53125 56 
Q 37.453125 56 38.578125 55.875 
Q 39.703125 55.765625 41.0625 55.515625 
z
" id="DejaVuSans-114"/>
      <path d="M 8.5 21.578125 
L 8.5 54.6875 
L 17.484375 54.6875 
L 17.484375 21.921875 
Q 17.484375 14.15625 20.5 10.265625 
Q 23.53125 6.390625 29.59375 6.390625 
Q 36.859375 6.390625 41.078125 11.03125 
Q 45.3125 15.671875 45.3125 23.6875 
L 45.3125 54.6875 
L 54.296875 54.6875 
L 54.296875 0 
L 45.3125 0 
L 45.3125 8.40625 
Q 42.046875 3.421875 37.71875 1 
Q 33.40625 -1.421875 27.6875 -1.421875 
Q 18.265625 -1.421875 13.375 4.4375 
Q 8.5 10.296875 8.5 21.578125 
z
M 31.109375 56 
z
" id="DejaVuSans-117"/>
      <path d="M 56.203125 29.59375 
L 56.203125 25.203125 
L 14.890625 25.203125 
Q 15.484375 15.921875 20.484375 11.0625 
Q 25.484375 6.203125 34.421875 6.203125 
Q 39.59375 6.203125 44.453125 7.46875 
Q 49.3125 8.734375 54.109375 11.28125 
L 54.109375 2.78125 
Q 49.265625 0.734375 44.1875 -0.34375 
Q 39.109375 -1.421875 33.890625 -1.421875 
Q 20.796875 -1.421875 13.15625 6.1875 
Q 5.515625 13.8125 5.515625 26.8125 
Q 5.515625 40.234375 12.765625 48.109375 
Q 20.015625 56 32.328125 56 
Q 43.359375 56 49.78125 48.890625 
Q 56.203125 41.796875 56.203125 29.59375 
z
M 47.21875 32.234375 
Q 47.125 39.59375 43.09375 43.984375 
Q 39.0625 48.390625 32.421875 48.390625 
Q 24.90625 48.390625 20.390625 44.140625 
Q 15.875 39.890625 15.1875 32.171875 
z
" id="DejaVuSans-101"/>
      <path id="DejaVuSans-32"/>
      <path d="M 9.8125 72.90625 
L 24.515625 72.90625 
L 43.109375 23.296875 
L 61.8125 72.90625 
L 76.515625 72.90625 
L 76.515625 0 
L 66.890625 0 
L 66.890625 64.015625 
L 48.09375 14.015625 
L 38.1875 14.015625 
L 19.390625 64.015625 
L 19.390625 0 
L 9.8125 0 
z
" id="DejaVuSans-77"/>
      <path d="M 34.28125 27.484375 
Q 23.390625 27.484375 19.1875 25 
Q 14.984375 22.515625 14.984375 16.5 
Q 14.984375 11.71875 18.140625 8.90625 
Q 21.296875 6.109375 26.703125 6.109375 
Q 34.1875 6.109375 38.703125 11.40625 
Q 43.21875 16.703125 43.21875 25.484375 
L 43.21875 27.484375 
z
M 52.203125 31.203125 
L 52.203125 0 
L 43.21875 0 
L 43.21875 8.296875 
Q 40.140625 3.328125 35.546875 0.953125 
Q 30.953125 -1.421875 24.3125 -1.421875 
Q 15.921875 -1.421875 10.953125 3.296875 
Q 6 8.015625 6 15.921875 
Q 6 25.140625 12.171875 29.828125 
Q 18.359375 34.515625 30.609375 34.515625 
L 43.21875 34.515625 
L 43.21875 35.40625 
Q 43.21875 41.609375 39.140625 45 
Q 35.0625 48.390625 27.6875 48.390625 
Q 23 48.390625 18.546875 47.265625 
Q 14.109375 46.140625 10.015625 43.890625 
L 10.015625 52.203125 
Q 14.9375 54.109375 19.578125 55.046875 
Q 24.21875 56 28.609375 56 
Q 40.484375 56 46.34375 49.84375 
Q 52.203125 43.703125 52.203125 31.203125 
z
" id="DejaVuSans-97"/>
      <path d="M 54.890625 33.015625 
L 54.890625 0 
L 45.90625 0 
L 45.90625 32.71875 
Q 45.90625 40.484375 42.875 44.328125 
Q 39.84375 48.1875 33.796875 48.1875 
Q 26.515625 48.1875 22.3125 43.546875 
Q 18.109375 38.921875 18.109375 30.90625 
L 18.109375 0 
L 9.078125 0 
L 9.078125 54.6875 
L 18.109375 54.6875 
L 18.109375 46.1875 
Q 21.34375 51.125 25.703125 53.5625 
Q 30.078125 56 35.796875 56 
Q 45.21875 56 50.046875 50.171875 
Q 54.890625 44.34375 54.890625 33.015625 
z
" id="DejaVuSans-110"/>
      <path d="M 28.609375 0 
L 0.78125 72.90625 
L 11.078125 72.90625 
L 34.1875 11.53125 
L 57.328125 72.90625 
L 67.578125 72.90625 
L 39.796875 0 
z
" id="DejaVuSans-86"/>
      <path d="M 9.421875 75.984375 
L 18.40625 75.984375 
L 18.40625 0 
L 9.421875 0 
z
" id="DejaVuSans-108"/>
      <path d="M 30.609375 48.390625 
Q 23.390625 48.390625 19.1875 42.75 
Q 14.984375 37.109375 14.984375 27.296875 
Q 14.984375 17.484375 19.15625 11.84375 
Q 23.34375 6.203125 30.609375 6.203125 
Q 37.796875 6.203125 41.984375 11.859375 
Q 46.1875 17.53125 46.1875 27.296875 
Q 46.1875 37.015625 41.984375 42.703125 
Q 37.796875 48.390625 30.609375 48.390625 
z
M 30.609375 56 
Q 42.328125 56 49.015625 48.375 
Q 55.71875 40.765625 55.71875 27.296875 
Q 55.71875 13.875 49.015625 6.21875 
Q 42.328125 -1.421875 30.609375 -1.421875 
Q 18.84375 -1.421875 12.171875 6.21875 
Q 5.515625 13.875 5.515625 27.296875 
Q 5.515625 40.765625 12.171875 48.375 
Q 18.84375 56 30.609375 56 
z
" id="DejaVuSans-111"/>
      <path d="M 48.78125 52.59375 
L 48.78125 44.1875 
Q 44.96875 46.296875 41.140625 47.34375 
Q 37.3125 48.390625 33.40625 48.390625 
Q 24.65625 48.390625 19.8125 42.84375 
Q 14.984375 37.3125 14.984375 27.296875 
Q 14.984375 17.28125 19.8125 11.734375 
Q 24.65625 6.203125 33.40625 6.203125 
Q 37.3125 6.203125 41.140625 7.25 
Q 44.96875 8.296875 48.78125 10.40625 
L 48.78125 2.09375 
Q 45.015625 0.34375 40.984375 -0.53125 
Q 36.96875 -1.421875 32.421875 -1.421875 
Q 20.0625 -1.421875 12.78125 6.34375 
Q 5.515625 14.109375 5.515625 27.296875 
Q 5.515625 40.671875 12.859375 48.328125 
Q 20.21875 56 33.015625 56 
Q 37.15625 56 41.109375 55.140625 
Q 45.0625 54.296875 48.78125 52.59375 
z
" id="DejaVuSans-99"/>
      <path d="M 9.421875 54.6875 
L 18.40625 54.6875 
L 18.40625 0 
L 9.421875 0 
z
M 9.421875 75.984375 
L 18.40625 75.984375 
L 18.40625 64.59375 
L 9.421875 64.59375 
z
" id="DejaVuSans-105"/>
      <path d="M 18.3125 70.21875 
L 18.3125 54.6875 
L 36.8125 54.6875 
L 36.8125 47.703125 
L 18.3125 47.703125 
L 18.3125 18.015625 
Q 18.3125 11.328125 20.140625 9.421875 
Q 21.96875 7.515625 27.59375 7.515625 
L 36.8125 7.515625 
L 36.8125 0 
L 27.59375 0 
Q 17.1875 0 13.234375 3.875 
Q 9.28125 7.765625 9.28125 18.015625 
L 9.28125 47.703125 
L 2.6875 47.703125 
L 2.6875 54.6875 
L 9.28125 54.6875 
L 9.28125 70.21875 
z
" id="DejaVuSans-116"/>
      <path d="M 32.171875 -5.078125 
Q 28.375 -14.84375 24.75 -17.8125 
Q 21.140625 -20.796875 15.09375 -20.796875 
L 7.90625 -20.796875 
L 7.90625 -13.28125 
L 13.1875 -13.28125 
Q 16.890625 -13.28125 18.9375 -11.515625 
Q 21 -9.765625 23.484375 -3.21875 
L 25.09375 0.875 
L 2.984375 54.6875 
L 12.5 54.6875 
L 29.59375 11.921875 
L 46.6875 54.6875 
L 56.203125 54.6875 
z
" id="DejaVuSans-121"/>
      <path d="M 31 75.875 
Q 24.46875 64.65625 21.28125 53.65625 
Q 18.109375 42.671875 18.109375 31.390625 
Q 18.109375 20.125 21.3125 9.0625 
Q 24.515625 -2 31 -13.1875 
L 23.1875 -13.1875 
Q 15.875 -1.703125 12.234375 9.375 
Q 8.59375 20.453125 8.59375 31.390625 
Q 8.59375 42.28125 12.203125 53.3125 
Q 15.828125 64.359375 23.1875 75.875 
z
" id="DejaVuSans-40"/>
      <path d="M 45.40625 46.390625 
L 45.40625 75.984375 
L 54.390625 75.984375 
L 54.390625 0 
L 45.40625 0 
L 45.40625 8.203125 
Q 42.578125 3.328125 38.25 0.953125 
Q 33.9375 -1.421875 27.875 -1.421875 
Q 17.96875 -1.421875 11.734375 6.484375 
Q 5.515625 14.40625 5.515625 27.296875 
Q 5.515625 40.1875 11.734375 48.09375 
Q 17.96875 56 27.875 56 
Q 33.9375 56 38.25 53.625 
Q 42.578125 51.265625 45.40625 46.390625 
z
M 14.796875 27.296875 
Q 14.796875 17.390625 18.875 11.75 
Q 22.953125 6.109375 30.078125 6.109375 
Q 37.203125 6.109375 41.296875 11.75 
Q 45.40625 17.390625 45.40625 27.296875 
Q 45.40625 37.203125 41.296875 42.84375 
Q 37.203125 48.484375 30.078125 48.484375 
Q 22.953125 48.484375 18.875 42.84375 
Q 14.796875 37.203125 14.796875 27.296875 
z
" id="DejaVuSans-100"/>
      <path d="M 45.40625 27.984375 
Q 45.40625 37.75 41.375 43.109375 
Q 37.359375 48.484375 30.078125 48.484375 
Q 22.859375 48.484375 18.828125 43.109375 
Q 14.796875 37.75 14.796875 27.984375 
Q 14.796875 18.265625 18.828125 12.890625 
Q 22.859375 7.515625 30.078125 7.515625 
Q 37.359375 7.515625 41.375 12.890625 
Q 45.40625 18.265625 45.40625 27.984375 
z
M 54.390625 6.78125 
Q 54.390625 -7.171875 48.1875 -13.984375 
Q 42 -20.796875 29.203125 -20.796875 
Q 24.46875 -20.796875 20.265625 -20.09375 
Q 16.0625 -19.390625 12.109375 -17.921875 
L 12.109375 -9.1875 
Q 16.0625 -11.328125 19.921875 -12.34375 
Q 23.78125 -13.375 27.78125 -13.375 
Q 36.625 -13.375 41.015625 -8.765625 
Q 45.40625 -4.15625 45.40625 5.171875 
L 45.40625 9.625 
Q 42.625 4.78125 38.28125 2.390625 
Q 33.9375 0 27.875 0 
Q 17.828125 0 11.671875 7.65625 
Q 5.515625 15.328125 5.515625 27.984375 
Q 5.515625 40.671875 11.671875 48.328125 
Q 17.828125 56 27.875 56 
Q 33.9375 56 38.28125 53.609375 
Q 42.625 51.21875 45.40625 46.390625 
L 45.40625 54.6875 
L 54.390625 54.6875 
z
" id="DejaVuSans-103"/>
      <path d="M 44.28125 53.078125 
L 44.28125 44.578125 
Q 40.484375 46.53125 36.375 47.5 
Q 32.28125 48.484375 27.875 48.484375 
Q 21.1875 48.484375 17.84375 46.4375 
Q 14.5 44.390625 14.5 40.28125 
Q 14.5 37.15625 16.890625 35.375 
Q 19.28125 33.59375 26.515625 31.984375 
L 29.59375 31.296875 
Q 39.15625 29.25 43.1875 25.515625 
Q 47.21875 21.78125 47.21875 15.09375 
Q 47.21875 7.46875 41.1875 3.015625 
Q 35.15625 -1.421875 24.609375 -1.421875 
Q 20.21875 -1.421875 15.453125 -0.5625 
Q 10.6875 0.296875 5.421875 2 
L 5.421875 11.28125 
Q 10.40625 8.6875 15.234375 7.390625 
Q 20.0625 6.109375 24.8125 6.109375 
Q 31.15625 6.109375 34.5625 8.28125 
Q 37.984375 10.453125 37.984375 14.40625 
Q 37.984375 18.0625 35.515625 20.015625 
Q 33.0625 21.96875 24.703125 23.78125 
L 21.578125 24.515625 
Q 13.234375 26.265625 9.515625 29.90625 
Q 5.8125 33.546875 5.8125 39.890625 
Q 5.8125 47.609375 11.28125 51.796875 
Q 16.75 56 26.8125 56 
Q 31.78125 56 36.171875 55.265625 
Q 40.578125 54.546875 44.28125 53.078125 
z
" id="DejaVuSans-115"/>
      <path d="M 25.390625 72.90625 
L 33.6875 72.90625 
L 8.296875 -9.28125 
L 0 -9.28125 
z
" id="DejaVuSans-47"/>
      <path d="M 8.015625 75.875 
L 15.828125 75.875 
Q 23.140625 64.359375 26.78125 53.3125 
Q 30.421875 42.28125 30.421875 31.390625 
Q 30.421875 20.453125 26.78125 9.375 
Q 23.140625 -1.703125 15.828125 -13.1875 
L 8.015625 -13.1875 
Q 14.5 -2 17.703125 9.0625 
Q 20.90625 20.125 20.90625 31.390625 
Q 20.90625 42.671875 17.703125 53.65625 
Q 14.5 64.65625 8.015625 75.875 
z
" id="DejaVuSans-41"/>
     </defs>
     <g transform="translate(119.935156 346.070312)scale(0.1 -0.1)">
      <use xlink:href="#DejaVuSans-84"/>
      <use x="46.333984" xlink:href="#DejaVuSans-114"/>
      <use x="87.447266" xlink:href="#DejaVuSans-117"/>
      <use x="150.826172" xlink:href="#DejaVuSans-101"/>
      <use x="212.349609" xlink:href="#DejaVuSans-32"/>
      <use x="244.136719" xlink:href="#DejaVuSans-77"/>
      <use x="330.416016" xlink:href="#DejaVuSans-101"/>
      <use x="391.939453" xlink:href="#DejaVuSans-97"/>
      <use x="453.21875" xlink:href="#DejaVuSans-110"/>
      <use x="516.597656" xlink:href="#DejaVuSans-32"/>
      <use x="548.384766" xlink:href="#DejaVuSans-86"/>
      <use x="609.042969" xlink:href="#DejaVuSans-101"/>
      <use x="670.566406" xlink:href="#DejaVuSans-108"/>
      <use x="698.349609" xlink:href="#DejaVuSans-111"/>
      <use x="759.53125" xlink:href="#DejaVuSans-99"/>
      <use x="814.511719" xlink:href="#DejaVuSans-105"/>
      <use x="842.294922" xlink:href="#DejaVuSans-116"/>
      <use x="881.503906" xlink:href="#DejaVuSans-121"/>
      <use x="940.683594" xlink:href="#DejaVuSans-32"/>
      <use x="972.470703" xlink:href="#DejaVuSans-40"/>
      <use x="1011.484375" xlink:href="#DejaVuSans-100"/>
      <use x="1074.960938" xlink:href="#DejaVuSans-101"/>
      <use x="1136.484375" xlink:href="#DejaVuSans-103"/>
      <use x="1199.960938" xlink:href="#DejaVuSans-114"/>
      <use x="1238.824219" xlink:href="#DejaVuSans-101"/>
      <use x="1300.347656" xlink:href="#DejaVuSans-101"/>
      <use x="1361.871094" xlink:href="#DejaVuSans-115"/>
      <use x="1413.970703" xlink:href="#DejaVuSans-47"/>
      <use x="1447.662109" xlink:href="#DejaVuSans-115"/>
      <use x="1499.761719" xlink:href="#DejaVuSans-41"/>
     </g>
    </g>
   </g>
   <g id="matplotlib.axis_2">
    <g id="ytick_1">
     <g id="line2d_6">
      <defs>
       <path d="M 0 0 
L -3.5 0 
" id="m91d8c6986b" style="stroke:#000000;stroke-width:0.8;"/>
      </defs>
      <g>
       <use style="stroke:#000000;stroke-width:0.8;" x="44.55" xlink:href="#m91d8c6986b" y="270.41745"/>
      </g>
     </g>
     <g id="text_7">
      <!-- 20 -->
      <g transform="translate(24.825 274.216669)scale(0.1 -0.1)">
       <use xlink:href="#DejaVuSans-50"/>
       <use x="63.623047" xlink:href="#DejaVuSans-48"/>
      </g>
     </g>
    </g>
    <g id="ytick_2">
     <g id="line2d_7">
      <g>
       <use style="stroke:#000000;stroke-width:0.8;" x="44.55" xlink:href="#m91d8c6986b" y="213.382352"/>
      </g>
     </g>
     <g id="text_8">
      <!-- 30 -->
      <g transform="translate(24.825 217.181571)scale(0.1 -0.1)">
       <use xlink:href="#DejaVuSans-51"/>
       <use x="63.623047" xlink:href="#DejaVuSans-48"/>
      </g>
     </g>
    </g>
    <g id="ytick_3">
     <g id="line2d_8">
      <g>
       <use style="stroke:#000000;stroke-width:0.8;" x="44.55" xlink:href="#m91d8c6986b" y="156.347254"/>
      </g>
     </g>
     <g id="text_9">
      <!-- 40 -->
      <g transform="translate(24.825 160.146473)scale(0.1 -0.1)">
       <use xlink:href="#DejaVuSans-52"/>
       <use x="63.623047" xlink:href="#DejaVuSans-48"/>
      </g>
     </g>
    </g>
    <g id="ytick_4">
     <g id="line2d_9">
      <g>
       <use style="stroke:#000000;stroke-width:0.8;" x="44.55" xlink:href="#m91d8c6986b" y="99.312156"/>
      </g>
     </g>
     <g id="text_10">
      <!-- 50 -->
      <g transform="translate(24.825 103.111375)scale(0.1 -0.1)">
       <use xlink:href="#DejaVuSans-53"/>
       <use x="63.623047" xlink:href="#DejaVuSans-48"/>
      </g>
     </g>
    </g>
    <g id="ytick_5">
     <g id="line2d_10">
      <g>
       <use style="stroke:#000000;stroke-width:0.8;" x="44.55" xlink:href="#m91d8c6986b" y="42.277058"/>
      </g>
     </g>
     <g id="text_11">
      <!-- 60 -->
      <g transform="translate(24.825 46.076277)scale(0.1 -0.1)">
       <use xlink:href="#DejaVuSans-54"/>
       <use x="63.623047" xlink:href="#DejaVuSans-48"/>
      </g>
     </g>
    </g>
    <g id="text_12">
     <!-- Predicted Mean Velocity (degrees/s) -->
     <defs>
      <path d="M 19.671875 64.796875 
L 19.671875 37.40625 
L 32.078125 37.40625 
Q 38.96875 37.40625 42.71875 40.96875 
Q 46.484375 44.53125 46.484375 51.125 
Q 46.484375 57.671875 42.71875 61.234375 
Q 38.96875 64.796875 32.078125 64.796875 
z
M 9.8125 72.90625 
L 32.078125 72.90625 
Q 44.34375 72.90625 50.609375 67.359375 
Q 56.890625 61.8125 56.890625 51.125 
Q 56.890625 40.328125 50.609375 34.8125 
Q 44.34375 29.296875 32.078125 29.296875 
L 19.671875 29.296875 
L 19.671875 0 
L 9.8125 0 
z
" id="DejaVuSans-80"/>
     </defs>
     <g transform="translate(18.745313 254.089844)rotate(-90)scale(0.1 -0.1)">
      <use xlink:href="#DejaVuSans-80"/>
      <use x="58.552734" xlink:href="#DejaVuSans-114"/>
      <use x="97.416016" xlink:href="#DejaVuSans-101"/>
      <use x="158.939453" xlink:href="#DejaVuSans-100"/>
      <use x="222.416016" xlink:href="#DejaVuSans-105"/>
      <use x="250.199219" xlink:href="#DejaVuSans-99"/>
      <use x="305.179688" xlink:href="#DejaVuSans-116"/>
      <use x="344.388672" xlink:href="#DejaVuSans-101"/>
      <use x="405.912109" xlink:href="#DejaVuSans-100"/>
      <use x="469.388672" xlink:href="#DejaVuSans-32"/>
      <use x="501.175781" xlink:href="#DejaVuSans-77"/>
      <use x="587.455078" xlink:href="#DejaVuSans-101"/>
      <use x="648.978516" xlink:href="#DejaVuSans-97"/>
      <use x="710.257812" xlink:href="#DejaVuSans-110"/>
      <use x="773.636719" xlink:href="#DejaVuSans-32"/>
      <use x="805.423828" xlink:href="#DejaVuSans-86"/>
      <use x="866.082031" xlink:href="#DejaVuSans-101"/>
      <use x="927.605469" xlink:href="#DejaVuSans-108"/>
      <use x="955.388672" xlink:href="#DejaVuSans-111"/>
      <use x="1016.570312" xlink:href="#DejaVuSans-99"/>
      <use x="1071.550781" xlink:href="#DejaVuSans-105"/>
      <use x="1099.333984" xlink:href="#DejaVuSans-116"/>
      <use x="1138.542969" xlink:href="#DejaVuSans-121"/>
      <use x="1197.722656" xlink:href="#DejaVuSans-32"/>
      <use x="1229.509766" xlink:href="#DejaVuSans-40"/>
      <use x="1268.523438" xlink:href="#DejaVuSans-100"/>
      <use x="1332" xlink:href="#DejaVuSans-101"/>
      <use x="1393.523438" xlink:href="#DejaVuSans-103"/>
      <use x="1457" xlink:href="#DejaVuSans-114"/>
      <use x="1495.863281" xlink:href="#DejaVuSans-101"/>
      <use x="1557.386719" xlink:href="#DejaVuSans-101"/>
      <use x="1618.910156" xlink:href="#DejaVuSans-115"/>
      <use x="1671.009766" xlink:href="#DejaVuSans-47"/>
      <use x="1704.701172" xlink:href="#DejaVuSans-115"/>
      <use x="1756.800781" xlink:href="#DejaVuSans-41"/>
     </g>
    </g>
   </g>
   <g id="line2d_11">
    <path clip-path="url(#p95aa02f963)" d="M 44.55 248.632523 
L 47.627273 247.318831 
L 50.704545 246.00514 
L 53.781818 244.691448 
L 56.859091 243.377757 
L 59.936364 242.064066 
L 63.013636 240.750374 
L 66.090909 239.436683 
L 69.168182 238.122991 
L 72.245455 236.8093 
L 75.322727 235.495608 
L 78.4 234.181917 
L 81.477273 232.868225 
L 84.554545 231.554534 
L 87.631818 230.240842 
L 90.709091 228.927151 
L 93.786364 227.613459 
L 96.863636 226.299768 
L 99.940909 224.986076 
L 103.018182 223.672385 
L 106.095455 222.358693 
L 109.172727 221.045002 
L 112.25 219.731311 
L 115.327273 218.417619 
L 118.404545 217.103928 
L 121.481818 215.790236 
L 124.559091 214.476545 
L 127.636364 213.162853 
L 130.713636 211.849162 
L 133.790909 210.53547 
L 136.868182 209.221779 
L 139.945455 207.908087 
L 143.022727 206.594396 
L 146.1 205.280704 
L 149.177273 203.967013 
L 152.254545 202.653321 
L 155.331818 201.33963 
L 158.409091 200.025938 
L 161.486364 198.712247 
L 164.563636 197.398555 
L 167.640909 196.084864 
L 170.718182 194.771173 
L 173.795455 193.457481 
L 176.872727 192.14379 
L 179.95 190.830098 
L 183.027273 189.516407 
L 186.104545 188.202715 
L 189.181818 186.889024 
L 192.259091 185.575332 
L 195.336364 184.261641 
L 198.413636 182.947949 
L 201.490909 181.634258 
L 204.568182 180.320566 
L 207.645455 179.006875 
L 210.722727 177.693183 
L 213.8 176.379492 
L 216.877273 175.0658 
L 219.954545 173.752109 
L 223.031818 172.438417 
L 226.109091 171.124726 
L 229.186364 169.811035 
L 232.263636 168.497343 
L 235.340909 167.183652 
L 238.418182 165.86996 
L 241.495455 164.556269 
L 244.572727 163.242577 
L 247.65 161.928886 
L 250.727273 160.615194 
L 253.804545 159.301503 
L 256.881818 157.987811 
L 259.959091 156.67412 
L 263.036364 155.360428 
L 266.113636 154.046737 
L 269.190909 152.733045 
L 272.268182 151.419354 
L 275.345455 150.105662 
L 278.422727 148.791971 
L 281.5 147.478279 
L 284.577273 146.164588 
L 287.654545 144.850897 
L 290.731818 143.537205 
L 293.809091 142.223514 
L 296.886364 140.909822 
L 299.963636 139.596131 
L 303.040909 138.282439 
L 306.118182 136.968748 
L 309.195455 135.655056 
L 312.272727 134.341365 
L 315.35 133.027673 
L 318.427273 131.713982 
L 321.504545 130.40029 
L 324.581818 129.086599 
L 327.659091 127.772907 
L 330.736364 126.459216 
L 333.813636 125.145524 
L 336.890909 123.831833 
L 339.968182 122.518141 
L 343.045455 121.20445 
L 346.122727 119.890759 
L 349.2 118.577067 
" style="fill:none;stroke:#1f77b4;stroke-linecap:square;stroke-width:2.25;"/>
   </g>
   <g id="line2d_12">
    <path clip-path="url(#p95aa02f963)" d="M 44.55 303.839489 
L 349.2 24.754261 
" style="fill:none;stroke:#ff0000;stroke-linecap:square;"/>
   </g>
   <g id="patch_3">
    <path d="M 44.55 317.79375 
L 44.55 10.8 
" style="fill:none;stroke:#000000;stroke-linecap:square;stroke-linejoin:miter;stroke-width:0.8;"/>
   </g>
   <g id="patch_4">
    <path d="M 44.55 317.79375 
L 349.2 317.79375 
" style="fill:none;stroke:#000000;stroke-linecap:square;stroke-linejoin:miter;stroke-width:0.8;"/>
   </g>
   <g id="text_13">
    <!-- Mean Velocity Prediction -->
    <g transform="translate(123.370312 4.8)scale(0.12 -0.12)">
     <use xlink:href="#DejaVuSans-77"/>
     <use x="86.279297" xlink:href="#DejaVuSans-101"/>
     <use x="147.802734" xlink:href="#DejaVuSans-97"/>
     <use x="209.082031" xlink:href="#DejaVuSans-110"/>
     <use x="272.460938" xlink:href="#DejaVuSans-32"/>
     <use x="304.248047" xlink:href="#DejaVuSans-86"/>
     <use x="364.90625" xlink:href="#DejaVuSans-101"/>
     <use x="426.429688" xlink:href="#DejaVuSans-108"/>
     <use x="454.212891" xlink:href="#DejaVuSans-111"/>
     <use x="515.394531" xlink:href="#DejaVuSans-99"/>
     <use x="570.375" xlink:href="#DejaVuSans-105"/>
     <use x="598.158203" xlink:href="#DejaVuSans-116"/>
     <use x="637.367188" xlink:href="#DejaVuSans-121"/>
     <use x="696.546875" xlink:href="#DejaVuSans-32"/>
     <use x="728.333984" xlink:href="#DejaVuSans-80"/>
     <use x="786.886719" xlink:href="#DejaVuSans-114"/>
     <use x="825.75" xlink:href="#DejaVuSans-101"/>
     <use x="887.273438" xlink:href="#DejaVuSans-100"/>
     <use x="950.75" xlink:href="#DejaVuSans-105"/>
     <use x="978.533203" xlink:href="#DejaVuSans-99"/>
     <use x="1033.513672" xlink:href="#DejaVuSans-116"/>
     <use x="1072.722656" xlink:href="#DejaVuSans-105"/>
     <use x="1100.505859" xlink:href="#DejaVuSans-111"/>
     <use x="1161.6875" xlink:href="#DejaVuSans-110"/>
    </g>
   </g>
   <g id="legend_1">
    <g id="patch_5">
     <path d="M 51.55 48.15625 
L 188.80625 48.15625 
Q 190.80625 48.15625 190.80625 46.15625 
L 190.80625 17.8 
Q 190.80625 15.8 188.80625 15.8 
L 51.55 15.8 
Q 49.55 15.8 49.55 17.8 
L 49.55 46.15625 
Q 49.55 48.15625 51.55 48.15625 
z
" style="fill:#ffffff;opacity:0.8;stroke:#cccccc;stroke-linejoin:miter;"/>
    </g>
    <g id="line2d_13">
     <path d="M 53.55 23.898438 
L 73.55 23.898438 
" style="fill:none;stroke:#1f77b4;stroke-linecap:square;stroke-width:2.25;"/>
    </g>
    <g id="line2d_14"/>
    <g id="text_14">
     <!-- Predicted Correlation -->
     <defs>
      <path d="M 64.40625 67.28125 
L 64.40625 56.890625 
Q 59.421875 61.53125 53.78125 63.8125 
Q 48.140625 66.109375 41.796875 66.109375 
Q 29.296875 66.109375 22.65625 58.46875 
Q 16.015625 50.828125 16.015625 36.375 
Q 16.015625 21.96875 22.65625 14.328125 
Q 29.296875 6.6875 41.796875 6.6875 
Q 48.140625 6.6875 53.78125 8.984375 
Q 59.421875 11.28125 64.40625 15.921875 
L 64.40625 5.609375 
Q 59.234375 2.09375 53.4375 0.328125 
Q 47.65625 -1.421875 41.21875 -1.421875 
Q 24.65625 -1.421875 15.125 8.703125 
Q 5.609375 18.84375 5.609375 36.375 
Q 5.609375 53.953125 15.125 64.078125 
Q 24.65625 74.21875 41.21875 74.21875 
Q 47.75 74.21875 53.53125 72.484375 
Q 59.328125 70.75 64.40625 67.28125 
z
" id="DejaVuSans-67"/>
     </defs>
     <g transform="translate(81.55 27.398438)scale(0.1 -0.1)">
      <use xlink:href="#DejaVuSans-80"/>
      <use x="58.552734" xlink:href="#DejaVuSans-114"/>
      <use x="97.416016" xlink:href="#DejaVuSans-101"/>
      <use x="158.939453" xlink:href="#DejaVuSans-100"/>
      <use x="222.416016" xlink:href="#DejaVuSans-105"/>
      <use x="250.199219" xlink:href="#DejaVuSans-99"/>
      <use x="305.179688" xlink:href="#DejaVuSans-116"/>
      <use x="344.388672" xlink:href="#DejaVuSans-101"/>
      <use x="405.912109" xlink:href="#DejaVuSans-100"/>
      <use x="469.388672" xlink:href="#DejaVuSans-32"/>
      <use x="501.175781" xlink:href="#DejaVuSans-67"/>
      <use x="571" xlink:href="#DejaVuSans-111"/>
      <use x="632.181641" xlink:href="#DejaVuSans-114"/>
      <use x="671.544922" xlink:href="#DejaVuSans-114"/>
      <use x="710.408203" xlink:href="#DejaVuSans-101"/>
      <use x="771.931641" xlink:href="#DejaVuSans-108"/>
      <use x="799.714844" xlink:href="#DejaVuSans-97"/>
      <use x="860.994141" xlink:href="#DejaVuSans-116"/>
      <use x="900.203125" xlink:href="#DejaVuSans-105"/>
      <use x="927.986328" xlink:href="#DejaVuSans-111"/>
      <use x="989.167969" xlink:href="#DejaVuSans-110"/>
     </g>
    </g>
    <g id="line2d_15">
     <path d="M 53.55 38.576563 
L 73.55 38.576563 
" style="fill:none;stroke:#ff0000;stroke-linecap:square;"/>
    </g>
    <g id="line2d_16"/>
    <g id="text_15">
     <!-- Real Correlation -->
     <defs>
      <path d="M 44.390625 34.1875 
Q 47.5625 33.109375 50.5625 29.59375 
Q 53.5625 26.078125 56.59375 19.921875 
L 66.609375 0 
L 56 0 
L 46.6875 18.703125 
Q 43.0625 26.03125 39.671875 28.421875 
Q 36.28125 30.8125 30.421875 30.8125 
L 19.671875 30.8125 
L 19.671875 0 
L 9.8125 0 
L 9.8125 72.90625 
L 32.078125 72.90625 
Q 44.578125 72.90625 50.734375 67.671875 
Q 56.890625 62.453125 56.890625 51.90625 
Q 56.890625 45.015625 53.6875 40.46875 
Q 50.484375 35.9375 44.390625 34.1875 
z
M 19.671875 64.796875 
L 19.671875 38.921875 
L 32.078125 38.921875 
Q 39.203125 38.921875 42.84375 42.21875 
Q 46.484375 45.515625 46.484375 51.90625 
Q 46.484375 58.296875 42.84375 61.546875 
Q 39.203125 64.796875 32.078125 64.796875 
z
" id="DejaVuSans-82"/>
     </defs>
     <g transform="translate(81.55 42.076563)scale(0.1 -0.1)">
      <use xlink:href="#DejaVuSans-82"/>
      <use x="64.982422" xlink:href="#DejaVuSans-101"/>
      <use x="126.505859" xlink:href="#DejaVuSans-97"/>
      <use x="187.785156" xlink:href="#DejaVuSans-108"/>
      <use x="215.568359" xlink:href="#DejaVuSans-32"/>
      <use x="247.355469" xlink:href="#DejaVuSans-67"/>
      <use x="317.179688" xlink:href="#DejaVuSans-111"/>
      <use x="378.361328" xlink:href="#DejaVuSans-114"/>
      <use x="417.724609" xlink:href="#DejaVuSans-114"/>
      <use x="456.587891" xlink:href="#DejaVuSans-101"/>
      <use x="518.111328" xlink:href="#DejaVuSans-108"/>
      <use x="545.894531" xlink:href="#DejaVuSans-97"/>
      <use x="607.173828" xlink:href="#DejaVuSans-116"/>
      <use x="646.382812" xlink:href="#DejaVuSans-105"/>
      <use x="674.166016" xlink:href="#DejaVuSans-111"/>
      <use x="735.347656" xlink:href="#DejaVuSans-110"/>
     </g>
    </g>
   </g>
  </g>
 </g>
 <defs>
  <clipPath id="p95aa02f963">
   <rect height="306.99375" width="304.65" x="44.55" y="10.8"/>
  </clipPath>
 </defs>
</svg>
